<svg width="55.33" height="54.25" viewBox="0 0 43.92 43.06" xmlns:xlink="http://www.w3.org/1999/xlink" xmlns="http://www.w3.org/2000/svg">
  <defs>
    <path id="a" d="M0 0h1920v1080H0z"/>
    <path id="c" d="M0 0h1920v1080H0z"/>
    <path id="e" d="M777 757h165v161.75H777z"/>
    <path id="g" d="M777 757h165v161.75H777z"/>
  </defs>
  <g transform="matrix(.26458 0 0 .26458 -205.45 -200.16)">
    <clipPath id="b">
      <use xlink:href="#a" overflow="visible" width="100%" height="100%"/>
    </clipPath>
    <g clip-path="url(#b)">
      <clipPath id="d">
        <use xlink:href="#c" overflow="visible" width="100%" height="100%"/>
      </clipPath>
      <g clip-path="url(#d)">
        <clipPath id="f">
          <use xlink:href="#e" overflow="visible" width="100%" height="100%"/>
        </clipPath>
        <g clip-path="url(#f)">
          <clipPath id="h">
            <use xlink:href="#g" overflow="visible" width="100%" height="100%"/>
          </clipPath>
          <path clip-path="url(#h)" fill="#afafaf" d="M867.85 865.27c.32 1.53.6 6.8.91 7.99-2.23 1.54 4.26 5.08 7.14 5.66 2.87.57 5.87-.96 7.35-2.98 1.47-2.03 1.75-4.43 2-6.76a34.55 34.55 0 0 0-17.07-3.95zm64.03 36.45c-4.48 1.6-9.27 1.54-11.25-1.72l-.07-.29c-5.84.85-10.42 4.4-15.43 6.99a47.41 47.41 0 0 1-16.42 4.76c-12.88 1.42-26.79-1.59-37.2-7.92-3.34-2.02-6.73-4.46-10.93-4.58-2.34-.06-4.63.62-6.97.53-6.8-.24-10.3-6.24-13.45-10.99l.03-.02a41.73 41.73 0 0 0-4.49-17.66c-.49-1-1.03-2-1.6-2.97-3.18-5.37-7.68-10.9-6.25-16.69.63-2.53 2.36-4.85 3.09-7.37.68-2.35.45-4.78.2-7.17v-.02a429.98 429.98 0 0 0-5.33-35.85c-.4-2.06-.88-4.11-1.7-6.09l.52-.13c6.95-3.84 12.84-6.18 20.63-8.85 2.94-1.01 6.05-1.95 9.26-1.86 5.55.13 10.21 3.23 14.07 6.38 5.33 4.35 8.54 8.84 12.62 13.97-1.51 3.5-2.67 7-3.1 10.36-.86 6.56-.25 14.1 6.16 18.33 4.9 3.22 11.78 3.57 17.71 5.41 7.81 2.43 14.1 7.72 16.65 14 .86 2.13 1.43 4.5 3.57 5.94 1.3.88 2.98 1.28 4.64 1.6 5.89 1.14 5.86 3.42 11.9 3.05l.3-.16c.46.5.96 1.01 1.47 1.5 5.08 4.91 11.59 8.87 16.25 14.03 4.67 5.16 7.24 12.28 3.32 17.82-1.67 2.37-4.85 4.48-8.2 5.67m-77.23-32.55c2.68-3.55 1.58-8.46-2.1-11.41-3.68-2.96-9.48-3.97-14.58-3l-.33-.07c-.75 2.85-2.23 7.12-1.85 10.01a9.47 9.47 0 0 0 5.2 7.39c4.47 2.17 10.97.64 13.66-2.92m-.64-57.55c.14-.18.12-.4.1-.6a11.02 11.02 0 0 0-1.21-3.71 1.42 1.42 0 0 0-.52-.61 2 2 0 0 0-.8-.22 18.98 18.98 0 0 0-6.48.45c-.83.18-1.67.4-2.35.82a4.94 4.94 0 0 0-1.84 2.11 8.86 8.86 0 0 0-.95 3.94l.25.18c1.75-1.16 4.16-1.43 6.44-1.5 2.28-.06 4.62.03 6.77-.57.22-.06.46-.14.59-.3"/>
          <path clip-path="url(#h)" fill="#909090" d="M920.63 900c1.98 3.26 6.77 3.32 11.25 1.72-1.76 6.32-9.92 11.3-17.37 14.02-4.42 1.61-9.1 3.12-13.97 3-4.73-.12-10.21-3.71-11.83-7.28a47.38 47.38 0 0 0 16.42-4.76c5.01-2.58 9.59-6.14 15.43-6.99z"/>
          <path clip-path="url(#h)" fill="#9d9d9d" d="m869.56 788.12.14-.27c16.12 6.92 26.97 22.13 31.5 36.14 4.34 13.4 7.43 27.69 17.84 38.7l-.3.17c-6.04.36-6.01-1.9-11.9-3.05-1.66-.32-3.35-.72-4.64-1.6-2.14-1.45-2.71-3.82-3.57-5.93-2.56-6.3-8.84-11.58-16.65-14.01-5.93-1.84-12.81-2.2-17.71-5.41-6.41-4.23-7.02-11.78-6.17-18.33a39.6 39.6 0 0 1 3.1-10.36c2.4-5.56 5.68-11.11 8.36-16.05M885.25 869.18c-.25 2.33-.53 4.73-2 6.76-1.48 2.02-4.48 3.55-7.35 2.98-2.88-.58-9.37-4.11-7.14-5.66-.31-1.19-.6-6.46-.9-7.99l.32-.04a34.53 34.53 0 0 1 17.07 3.95"/>
          <path clip-path="url(#h)" fill="#909090" d="M811.85 784.31c-.1.68-1.24-1.04-2.12-1.17a9.27 9.27 0 0 0-2.3.02l.03.23c-.75.62-1.44 1.93-1.15 2.75.31.9.92 1.93 2.1 2.05.88.08 1.73-.36 2.28-.9.83-.82 1.13-2.78 1.16-2.98m57.71 3.8c-2.68 4.95-5.96 10.5-8.35 16.06-4.08-5.13-7.3-9.62-12.62-13.97-3.86-3.15-8.52-6.25-14.07-6.38-3.2-.09-6.32.85-9.26 1.86-7.8 2.67-13.68 5.01-20.63 8.85l-.52.13a16.82 16.82 0 0 0-2.12-3.8c-3.6-4.8-11.78-8.86-19.53-10.07a341.91 341.91 0 0 1 31.7-22.86c1.27.06 2.5.13 3.67.21 8.26.68 15.97 2.39 23.79 4.6 2.36.66 4.76 1.43 6.46 2.88 1.91 1.63 2.66 3.88 3.63 5.96 3.22 6.93 9.67 12.91 17.85 16.54"/>
          <path clip-path="url(#h)" fill="#9d9d9d" d="M852.55 857.76c3.68 2.95 4.78 7.86 2.1 11.41-2.69 3.56-9.2 5.1-13.66 2.92a9.47 9.47 0 0 1-5.2-7.39c-.38-2.9 1.1-7.16 1.85-10l.33.07c5.1-.98 10.9.03 14.58 2.99M854.1 811.03c.03.2.05.42-.09.59-.13.15-.37.23-.6.3-2.15.6-4.48.5-6.76.56-2.28.07-4.7.34-6.44 1.5l-.25-.18c0-1.35.33-2.68.95-3.94.4-.8.96-1.6 1.84-2.11a7.52 7.52 0 0 1 2.35-.82c2.1-.47 4.32-.73 6.48-.45a2 2 0 0 1 .8.22c.25.15.4.38.52.6a11.02 11.02 0 0 1 1.2 3.73"/>
          <path clip-path="url(#h)" fill="#909090" d="m820.2 888.49-.04.01s0-.02-.02-.03c-6.28-9.54-16.83-17.3-29.35-21.58-2.96-1.01-6.12-1.88-8.43-3.66-2.41-1.88-3.58-4.53-4.25-7.16-2.84-11.02 2.19-23.09 12.76-30.65 1.25-.9 2.64-1.82 3.02-3.12.34-1.17-.24-2.38-.84-3.49-3.3-6-10.18-14.23-15.77-19.08l.23-.29a55.61 55.61 0 0 1 .7-19.02h.01c1.38.02 2.8.15 4.24.37 7.75 1.2 15.93 5.27 19.53 10.08a16.8 16.8 0 0 1 2.12 3.8c.82 1.97 1.3 4.02 1.7 6.08a429.44 429.44 0 0 1 5.33 35.85v.02l-1.32.09c-3.16-.46-6.32 1.24-7.95 3.47-1.64 2.24-2.05 4.89-2.36 7.47a16.55 16.55 0 0 0-.07 5.32c.36 1.81 1.29 3.51 2.2 5.2 2.04 3.8 10.41 9.45 14.06 12.65a41.72 41.72 0 0 1 4.5 17.67"/>
          <path clip-path="url(#h)" fill="#afafaf" d="M814.1 867.85a42.5 42.5 0 0 1 1.6 2.97c-3.65-3.2-12.02-8.86-14.07-12.66-.9-1.68-1.83-3.38-2.19-5.19-.35-1.76-.16-3.55.07-5.32.31-2.58.73-5.23 2.36-7.47 1.63-2.23 4.79-3.94 7.95-3.48l1.32-.08c.25 2.4.48 4.82-.2 7.17-.73 2.52-2.46 4.84-3.1 7.38-1.42 5.78 3.08 11.31 6.26 16.68M809.73 783.14c.88.13 2.02 1.85 2.11 1.17-.02.2-.32 2.16-1.15 2.98-.55.54-1.4.98-2.28.9-1.18-.12-1.79-1.15-2.1-2.05-.3-.82.4-2.13 1.15-2.75l-.04-.23a9.22 9.22 0 0 1 2.31-.02M792.78 757.06c6.39.42 14.47.55 21.38.87a341.77 341.77 0 0 0-31.7 22.86 29.94 29.94 0 0 0-4.24-.37h-.02a60.85 60.85 0 0 1 8.68-20.72c.62-.95 1.35-1.95 2.58-2.4a8.05 8.05 0 0 1 3.32-.24"/>
        </g>
      </g>
      <path clip-path="url(#d)" fill="none" stroke="#000" stroke-miterlimit="10" d="M777.28 799.73c5.6 4.85 12.47 13.07 15.77 19.08.6 1.1 1.18 2.32.84 3.5-.38 1.3-1.77 2.21-3.02 3.11-10.57 7.56-15.6 19.63-12.76 30.65.67 2.62 1.84 5.28 4.26 7.15 2.3 1.79 5.46 2.66 8.42 3.67 12.52 4.27 23.07 12.03 29.35 21.58l.02.03c3.14 4.75 6.65 10.74 13.45 10.99 2.34.09 4.63-.6 6.97-.53 4.2.12 7.6 2.56 10.92 4.58 10.42 6.33 24.33 9.34 37.2 7.91a47.39 47.39 0 0 0 16.43-4.76c5.01-2.57 9.59-6.13 15.43-6.98l.43-.06"/>
      <path clip-path="url(#d)" fill="none" stroke="#000" stroke-miterlimit="10" d="m888.56 911.14.15.32c1.62 3.57 7.1 7.16 11.83 7.28 4.87.12 9.54-1.39 13.97-3 7.45-2.72 15.6-7.7 17.37-14.02l.06-.24"/>
      <path clip-path="url(#d)" fill="none" stroke="#000" stroke-miterlimit="10" d="M920.63 900c1.98 3.26 6.77 3.32 11.25 1.72 3.35-1.19 6.53-3.3 8.2-5.67 3.92-5.54 1.35-12.66-3.32-17.82-4.66-5.16-11.17-9.12-16.25-14.03-.51-.49-1.01-1-1.48-1.5-10.4-11.02-13.5-25.31-17.83-38.71-4.54-14-15.38-29.22-31.5-36.14M869.64 788.15l-.08-.03c-8.18-3.63-14.63-9.6-17.85-16.54-.97-2.08-1.72-4.33-3.63-5.96-1.7-1.45-4.1-2.22-6.46-2.89-7.82-2.2-15.53-3.9-23.79-4.59"/>
      <path clip-path="url(#d)" fill="none" stroke="#000" stroke-miterlimit="10" d="M817.83 758.14c-1.17-.08-2.4-.15-3.67-.2-6.9-.33-14.99-.46-21.38-.88a8.08 8.08 0 0 0-3.32.24c-1.23.45-1.96 1.45-2.58 2.4a60.85 60.85 0 0 0-8.68 20.72 55.62 55.62 0 0 0-.7 19.02"/>
      <path clip-path="url(#d)" fill="#b9b9b9" d="M854.14 842.44c0 1.64-4 2.97-8.96 2.97-4.94 0-8.96-1.33-8.96-2.97 0-1.64 4.02-2.97 8.96-2.97 4.95 0 8.96 1.33 8.96 2.97M927.7 879.94c-.23 17.94-6.93 30.6-14.62 6.32-1.95-6.17-14.61-2.83-14.61-6.32 0-3.48 6.54-6.3 14.61-6.3 8.08 0 14.67 2.82 14.62 6.3M832.45 883.29c0 15.79-7.14-26.74-8.96-26.74-1.82 0-3.3-12.8-3.3-28.6 0-15.79 1.48-28.59 3.3-28.59 1.83 0 8.96 68.13 8.96 83.93M888.1 897.03c0 2.66-10.78 4.82-24.06 4.82S840 899.7 840 897.03c0-2.67 15-10.03 28.29-10.03 13.28 0 19.8 7.36 19.8 10.03M804.16 797.5c0 4.72 3.16 24.14-2.83 24.14s-18.86-19.42-18.86-24.13c0-4.72 4.85-8.55 10.84-8.55 6 0 10.85 3.83 10.85 8.54M894.7 818.67c0 6.98-4.02 12.63-8.97 12.63-4.94 0-8.95-5.65-8.95-12.63 0-6.97 4-12.62 8.95-12.62 4.95 0 8.96 5.65 8.96 12.62M794.73 850.98c0 4.72-2.32 8.54-5.19 8.54-2.86 0-5.18-3.82-5.18-8.54 0-4.72 14.1-17.45 16.97-17.45 2.86 0-6.6 12.73-6.6 17.45M804.16 779.3c0 4.32 11.02-.73 14.15-.73 3.12 0 14.14-9.07 14.14-13.37 0-4.31-11.02-2.23-14.15-2.23-3.12 0-14.14 12.03-14.14 16.34"/>
      <path clip-path="url(#d)" d="M0 1.5c1.93 0 1.93-3 0-3s-1.93 3 0 3"/>
    </g>
  </g>
</svg>
