<svg width="187.23" height="197.54" viewBox="0 0 49.54 52.26" xmlns:xlink="http://www.w3.org/1999/xlink" xmlns="http://www.w3.org/2000/svg">
  <defs>
    <path id="a" d="M0 0h1920v1080H0z"/>
    <path id="c" d="M0 0h1920v1080H0z"/>
    <path id="e" d="M1044.51 725.5h186.22v196.53h-186.22z"/>
    <path id="g" d="M1044.51 725.5h186.22v196.53h-186.22z"/>
  </defs>
  <g transform="matrix(.26458 0 0 .26458 -276.23 -191.82)">
    <clipPath id="b">
      <use xlink:href="#a" overflow="visible" width="100%" height="100%"/>
    </clipPath>
    <g clip-path="url(#b)">
      <clipPath id="d">
        <use xlink:href="#c" overflow="visible" width="100%" height="100%"/>
      </clipPath>
      <g clip-path="url(#d)">
        <clipPath id="f">
          <use xlink:href="#e" overflow="visible" width="100%" height="100%"/>
        </clipPath>
        <g clip-path="url(#f)">
          <clipPath id="h">
            <use xlink:href="#g" overflow="visible" width="100%" height="100%"/>
          </clipPath>
          <path clip-path="url(#h)" fill="#989898" d="m1111.77 851.65.07-.24c.11-.35.25-.71.56-.9.3-.17.68-.13 1.02-.07l16.85 2.52c2.46.36 5.15.69 7.27-.6 2.64-1.6 3.4-5.02 3.83-8.07.18-1.24.34-2.52-.03-3.71-.44-1.37-1.52-2.41-2.56-3.39l-5.89-5.57c-1.47-1.38-2.97-2.79-4.78-3.66-1.82-.88-4.03-1.15-5.83-.24-1.02.52-1.83 1.38-2.83 1.92-1.79.97-4 .85-5.8 1.77-1.39.69-2.4 1.92-3.4 3.12-3.08 3.76-6.29 7.83-6.74 12.67v.3c1.6 3.2 4.45 5.8 7.52 7.64.14-1.19.38-2.36.74-3.49m118.73 1.85c1.48 10.59-4.32 22.9-11.44 30.89a87.4 87.4 0 0 1-7.13 7.04c-9.57-1.14-22.78-2.84-31.75-5.93-4.37-1.51-8.63-3.47-13.2-4.13-4.58-.66-9.69.23-12.81 3.63-1.36 1.49-2.26 3.34-3.53 4.91-1.89 2.32-4.52 3.9-7.1 5.42l-1.52.89-.1-.18a12.37 12.37 0 0 1-12.22-8.99c-.24-.91-.38-1.88-.94-2.64-.9-1.2-2.56-1.48-3.9-2.19-2.08-1.12-3.32-3.3-4.64-5.26-8.69-12.9-28.24-20.57-43.43-16.81l-.05-.21c-5.22-3.5-8.4-9.45-9.82-15.57-1.43-6.12-1.31-12.48-1.18-18.77l.2-9.56h.3c6.09.89 12.26 1.24 18.42 1.06 8.65-.26 17.3-1.57 25.94-.8 7.28.66 14.4 2.79 21.7 2.9 9.12.13 18.63-2.85 27.12.46 4.34 1.7 8 4.93 12.5 6.18 6.79 1.89 13.85-1.08 20.46-3.52 6.6-2.43 18.17-1.6 24.12 2.18l.35.08c-.92 3.46.57 7.1 2.18 10.32 3.2 6.37 7.18 12.91 11.47 18.6"/>
          <path clip-path="url(#h)" fill="#909090" d="M1132.54 725.65c1.26 5.19 10.87 14.95 15.41 17.52 4.59 2.58 9.67 4.26 14.09 7.11 4.58 2.95 8.43 7.14 13.51 9.1 7.25 2.81 17.14-.35 24.61-2.77l.34-.11c3.51 4.56 9.57 9.96 12.96 14.61a42.62 42.62 0 0 1 3.76 6.78c2.24 4.72 4.47 9.49 5.72 14.57 1.25 5.07 1.48 10.52-.26 15.44l-.25-.05c-.56 3.13-1.46 8.66-2.94 11.54l-.05-.02c-2.29-7.41-4.6-14.88-8.37-21.66-3.75-6.8-9.1-12.93-16.09-16.3-1.74-.83-3.73-1.5-5.58-.92-1.54.49-2.68 1.75-3.88 2.85a23.4 23.4 0 0 1-23.42 4.64c-4.48-1.65-8.32-4.65-12.07-7.6-11.68-9.2-23.5-18.52-32.52-30.32-.87-1.14-1.77-2.34-3.08-2.91-1.01-.43-2.15-.43-3.24-.43-2.63 0-5.25.02-7.88.03-.75 0-1.55.02-2.19.4-.85.54-1.2 1.59-1.49 2.56-2.12 7.19-4.54 14.39-8.56 20.73-4.02 6.33-9.82 11.79-16.97 14.09-2.64.85-5.79 1.52-7.03 4-.57 1.15-.6 2.47-.63 3.75l-.5 23.76-.2 9.56c-.13 6.29-.25 12.65 1.18 18.77 1.43 6.12 4.6 12.07 9.82 15.57l.05.2-1.29.36-.33.1c-.86 8.3-5.4 20.72-9.67 27.9l-.37.25a234.02 234.02 0 0 1-11.6-18.78 65.31 65.31 0 0 0 7.5-8c1.4-1.76 2.73-3.7 2.97-5.93.28-2.72-1.14-5.32-2.7-7.55-1.44-2.04-3.15-4.03-5.46-4.97-2.3-.94-9.94-1.1-11.33.97-.04-2.7.38-5.34 1.41-7.88 1.51-3.71 4.24-6.84 5.73-10.56a17.87 17.87 0 0 0-.53-14.24l.57-.1c2.65-9.04-.35-18.67-3.45-27.57l.11-.04c-.53-1.64-.87-4.34-.25-5.77l.9.1c.62-4.58 1.9-9.46 5.91-11.52 2.87-1.47 6.3-1 9.51-1.33 7.04-.73 13.16-5.48 17.21-11.28 3.88-5.53 6.38-12.45 8.56-18.9l.31.1c4.55-1.46 9.94-.7 14.56-1.94 1.84-.49 3.53-4.46 5.34-5.07 1.9-.63 3.9-.85 5.88-1.06 4.83-.53 11.4-1.4 16.22-1.93l.04.15"/>
          <path clip-path="url(#h)" fill="#9d9d9d" d="M1098.37 778.74c-1.34 2.64-2.33 9.25-2.99 11.91-.68 2.74-.52 5.82 1.08 8.16 2.72 3.99 8.33 4.45 13.16 4.44.52 0 1.07-.01 1.52-.28.44-.27.7-.74.92-1.2 2.37-4.9 2.72-10.91.21-15.74-2.52-4.83-8.1-8.09-13.48-7.19zm4.59-25.13-.01.04c-2.55 2.74-2 7.71 1.08 9.82.39.26.84.49 1.29.4.44-.06.64-.85 1.07-.75 15.82 3.9 5.09-7.4-3.43-9.51m116.48 65.76.05.02-.27.49c-.88 1.47-1.87 2.92-2.34 4.57l-.03.13-.35-.08c-5.95-3.77-17.51-4.61-24.12-2.18-6.61 2.44-13.67 5.41-20.46 3.52-4.5-1.25-8.16-4.48-12.5-6.18-8.5-3.31-18-.33-27.12-.46-7.3-.11-14.42-2.24-21.7-2.9-8.63-.77-17.3.54-25.94.8-6.16.18-12.33-.17-18.42-1.05l-.3-.01.5-23.76c.03-1.28.06-2.6.63-3.74 1.24-2.49 4.39-3.16 7.03-4.01 7.15-2.3 12.95-7.76 16.97-14.09 4.02-6.34 6.44-13.54 8.56-20.73.29-.97.64-2.02 1.49-2.55.64-.4 1.44-.41 2.19-.41l7.88-.03c1.09 0 2.23 0 3.24.43 1.31.57 2.2 1.77 3.08 2.91 9.02 11.8 20.84 21.13 32.52 30.32 3.75 2.95 7.59 5.95 12.07 7.6a23.4 23.4 0 0 0 23.42-4.64c1.2-1.1 2.34-2.36 3.88-2.85 1.85-.58 3.84.09 5.58.93 6.99 3.36 12.34 9.5 16.09 16.29 3.76 6.78 6.08 14.25 8.37 21.66m-67.49-14.08c3.14-4.37 3.3-10.82-.02-15.06-3.3-4.21-9.89-5.54-14.33-2.57l-.1-.16c-3.76 1.34-5.86 7-6.57 10.93-.73 4-.82 8.83 2.42 11.28a8.86 8.86 0 0 0 4.4 1.55c5.34.62 11.06-1.59 14.2-5.97"/>
          <path clip-path="url(#h)" fill="#909090" d="M1211.93 891.43c-5.48 4.88-11.39 9.33-16.82 14.28-3.52 3.21-7.16 6.82-11.87 7.56-2.87.45-6.02-.2-8.56 1.2-1.39.77-2.4 2.06-3.69 2.97-2 1.42-4.5 1.87-6.94 2.14-15.17 1.71-30.76-1.88-45.66 1.4-3.5.77-7.36 1.87-10.47.1-2.19-1.26-3.43-3.65-5.09-5.55a16.3 16.3 0 0 0-3.66-3.09c6.5-.54 13.6-2.57 20.58-5.3a164.67 164.67 0 0 0 23.8-11.81c2.57-1.52 5.2-3.1 7.1-5.42 1.26-1.57 2.16-3.42 3.52-4.91 3.12-3.4 8.23-4.29 12.81-3.63 4.57.66 8.83 2.62 13.2 4.13 8.97 3.09 22.18 4.79 31.75 5.93"/>
          <path clip-path="url(#h)" fill="#9d9d9d" d="M1182.56 734.69c8.13 4.89 9.58 17.07 17.6 21.92-7.47 2.42-17.36 5.58-24.6 2.78-5.09-1.97-8.94-6.16-13.52-9.11-4.42-2.85-9.5-4.53-14.09-7.11-4.54-2.57-14.15-12.33-15.41-17.52 12.7 1.1 25.4 5.1 38.08 6.17 4.12.34 8.4.74 11.94 2.87"/>
          <path clip-path="url(#h)" fill="#b9b9b9" d="M1137.6 787.66c4.44-2.97 11.04-1.64 14.33 2.57 3.32 4.24 3.16 10.69.02 15.06-3.14 4.38-8.86 6.59-14.2 5.97a8.87 8.87 0 0 1-4.4-1.55c-3.24-2.45-3.15-7.28-2.42-11.28.71-3.93 2.81-9.59 6.57-10.93z"/>
          <path clip-path="url(#h)" fill="#989898" d="m1141.92 896.04.1.18a164.73 164.73 0 0 1-22.27 10.92l-.25-.64c-.96-.05-5.5-1.89-5.3-2.83.17-.94.66-1.87.44-2.8-.18-.75-.8-1.31-1.36-1.82-3.64-3.23-7.35-6.51-11.81-8.45-8.11-3.52-17.49-2.13-25.99.31-1.35.4-7.01 1.18-6.98 2.6l-.07.04c-1.1-1.59-2.21-3.19-3.3-4.8l.37-.25c4.26-7.18 8.81-19.6 9.67-27.9l.33-.1c.43-.13.86-.24 1.29-.35 15.19-3.76 34.74 3.91 43.43 16.81 1.32 1.96 2.56 4.14 4.65 5.26 1.33.71 2.99 1 3.89 2.2.56.75.7 1.72.94 2.63a12.37 12.37 0 0 0 12.22 8.99"/>
          <path clip-path="url(#h)" fill="#909090" d="M1111.77 851.65c-.36 1.13-.6 2.3-.74 3.49-3.07-1.85-5.93-4.44-7.53-7.64l.01-.3c.45-4.84 3.66-8.91 6.74-12.67 1-1.2 2.01-2.43 3.4-3.12 1.8-.92 4.01-.8 5.8-1.77 1-.54 1.81-1.4 2.83-1.92 1.8-.91 4.01-.64 5.83.24 1.81.87 3.31 2.28 4.78 3.66l5.9 5.57c1.03.98 2.11 2.02 2.55 3.39.37 1.19.21 2.47.03 3.7-.44 3.06-1.19 6.48-3.83 8.08-2.12 1.29-4.8.96-7.27.6l-16.85-2.52c-.34-.06-.72-.1-1.02.08-.3.18-.45.54-.56.89l-.07.24M1119.5 906.5l.25.64c-6.98 2.73-14.09 4.76-20.58 5.3-5.39-3.42-12.53-4.29-18.52-7.1l.4-.84c2.13.8 4.4 1.32 6.43.4.81-.37 1.51-.96 2.36-1.25 1.7-.58 3.52.17 5.2.8 6.46 2.35 17.73 3.44 24.46 2.05"/>
          <path clip-path="url(#h)" fill="#909090" d="m1081.05 904.5-.4.83c-1.2-.56-2.36-1.2-3.44-1.96-3.6-2.51-6.23-6.15-8.74-9.76 0-.02-.03-.04-.04-.06l.07-.05c-.03-1.41 5.63-2.2 6.98-2.6 8.5-2.43 17.88-3.82 25.99-.3 4.46 1.94 8.17 5.22 11.81 8.45.57.5 1.18 1.07 1.36 1.82.22.93-.27 1.86-.45 2.8-.19.94 4.35 2.78 5.31 2.83-6.73 1.39-18 .3-24.45-2.06-1.69-.62-3.5-1.37-5.2-.8-.86.3-1.56.89-2.37 1.26-2.02.92-4.3.39-6.43-.4"/>
          <path clip-path="url(#h)" fill="#b9b9b9" d="M1112.27 786.03c2.51 4.83 2.16 10.84-.21 15.74-.22.46-.48.93-.92 1.2-.45.27-1 .28-1.52.28-4.83 0-10.44-.45-13.16-4.44-1.6-2.34-1.76-5.42-1.08-8.16.66-2.66 1.65-9.27 2.99-11.91l.42.1c5.37-.9 10.96 2.36 13.48 7.19"/>
          <path clip-path="url(#h)" fill="#909090" d="M1102.96 753.61c8.52 2.1 19.25 13.4 3.43 9.51-.43-.1-.63.69-1.07.76-.45.08-.9-.15-1.29-.41-3.08-2.1-3.63-7.08-1.08-9.82zM1061.29 848.49c1.57 2.23 2.99 4.83 2.71 7.55-.24 2.23-1.58 4.17-2.97 5.93a65.17 65.17 0 0 1-7.5 8c-1.44-2.6-2.8-5.27-4.1-7.96-2.6-5.47-4.86-11.58-4.92-17.52 1.39-2.07 9.03-1.91 11.33-.97 2.31.94 4.02 2.93 5.45 4.97"/>
        </g>
      </g>
      <path clip-path="url(#d)" fill="none" stroke="#000" stroke-miterlimit="10" d="M1050.23 810.19a17.86 17.86 0 0 1 1.42 15.86c-1.49 3.72-4.22 6.85-5.73 10.56a19.98 19.98 0 0 0-1.41 7.88c.06 5.94 2.32 12.05 4.93 17.52 1.3 2.69 2.65 5.35 4.1 7.96a234.01 234.01 0 0 0 11.59 18.78l3.3 4.8.04.06c2.51 3.61 5.14 7.25 8.74 9.76a22.6 22.6 0 0 0 3.44 1.96c5.99 2.82 13.13 3.69 18.52 7.11 1.35.85 2.58 1.85 3.66 3.1 1.66 1.89 2.9 4.28 5.1 5.53 3.1 1.78 6.96.68 10.46-.09 14.9-3.28 30.49.31 45.66-1.4 2.43-.27 4.94-.72 6.94-2.14 1.3-.9 2.3-2.2 3.69-2.97 2.54-1.4 5.69-.75 8.56-1.2 4.71-.74 8.35-4.35 11.87-7.56 5.43-4.95 11.34-9.4 16.82-14.28 2.5-2.23 4.9-4.54 7.13-7.04 7.12-7.99 12.92-20.3 11.44-30.89M1230.5 853.5a124.14 124.14 0 0 1-11.47-18.6c-1.61-3.22-3.1-6.86-2.18-10.32l.03-.13c.47-1.65 1.46-3.1 2.34-4.57l.27-.49c1.48-2.88 2.38-8.4 2.94-11.54l.07-.35M1222.68 807.9c1.74-4.92 1.51-10.37.26-15.44-1.25-5.08-3.48-9.85-5.72-14.57a42.5 42.5 0 0 0-3.76-6.78c-3.39-4.65-9.45-10.05-12.96-14.6"/>
      <path clip-path="url(#d)" fill="none" stroke="#000" stroke-miterlimit="10" d="m1200.8 756.97-.64-.36c-8.02-4.85-9.47-17.03-17.6-21.92-3.54-2.13-7.82-2.53-11.94-2.87-12.69-1.06-25.39-5.06-38.08-6.17l-.39-.04M1132.5 725.5c-4.83.53-11.39 1.4-16.22 1.93-1.99.21-3.99.43-5.88 1.06-1.81.61-3.5 4.58-5.34 5.07-4.62 1.24-10.01.48-14.56 1.94M1090.5 734.5l-.31.9c-2.18 6.45-4.68 13.37-8.56 18.9-4.05 5.8-10.17 10.55-17.21 11.28-3.21.33-6.64-.14-9.51 1.33-4.01 2.06-5.3 6.94-5.91 11.53l-.2 1.58M1048.24 784.14c3.1 8.9 6.1 18.53 3.45 27.57M1048.5 784.5l-.15-.4c-.53-1.64-.87-4.34-.25-5.77"/>
      <path clip-path="url(#d)" fill="#b9b9b9" d="M1132 841.5c0 2.48-3.58 4.5-8 4.5s-8-2.02-8-4.5 3.58-4.5 8-4.5 8 2.02 8 4.5M1207 809c0 3.31-23.68 10-35 10s-6-6.69-6-10c0-3.31 9.18-6 20.5-6s20.5 2.69 20.5 6"/>
      <path clip-path="url(#d)" fill="#989898" d="M1201 842c0 .55-32.34 8-42 8-9.66 0 7-7.45 7-8 0-.55 7.83-1 17.5-1 9.66 0 17.5.45 17.5 1M1094 841.5c0 2.48-6.27 4.5-14 4.5s-14-2.02-14-4.5 21.27-15.5 29-15.5-1 13.02-1 15.5M1221 870.5c0 3.04-62.85 7.5-75 7.5-12.15 0 19-7.96 19-11s21.85-2 34-2c12.15 0 22 2.46 22 5.5"/>
      <path clip-path="url(#d)" fill="#b9b9b9" d="M1186 896c.94.58 3.12 6-14 6s-31 .9-31 2-9.12 6 8 6c17.12 0 24-22 37-14"/>
      <path clip-path="url(#d)" d="M0 1.5c1.93 0 1.93-3 0-3s-1.93 3 0 3"/>
    </g>
  </g>
</svg>
