<?xml version="1.0" encoding="UTF-8" standalone="no"?>
<!-- Created with Inkscape (http://www.inkscape.org/) -->

<svg
   width="42.195751mm"
   height="27.908249mm"
   viewBox="0 0 42.195751 27.908249"
   version="1.1"
   id="svg5"
   inkscape:export-filename="C:\Users\u1330167\Desktop\bitmap.png"
   inkscape:export-xdpi="96"
   inkscape:export-ydpi="96"
   inkscape:version="1.1 (c68e22c387, 2021-05-23)"
   sodipodi:docname="arrows.svg"
   xmlns:inkscape="http://www.inkscape.org/namespaces/inkscape"
   xmlns:sodipodi="http://sodipodi.sourceforge.net/DTD/sodipodi-0.dtd"
   xmlns="http://www.w3.org/2000/svg"
   xmlns:svg="http://www.w3.org/2000/svg">
  <sodipodi:namedview
     id="namedview7"
     pagecolor="#505050"
     bordercolor="#ffffff"
     borderopacity="1"
     inkscape:pageshadow="0"
     inkscape:pageopacity="0"
     inkscape:pagecheckerboard="1"
     inkscape:document-units="mm"
     showgrid="false"
     inkscape:zoom="0.74118967"
     inkscape:cx="139.64037"
     inkscape:cy="145.0371"
     inkscape:window-width="1920"
     inkscape:window-height="1017"
     inkscape:window-x="1912"
     inkscape:window-y="-8"
     inkscape:window-maximized="1"
     inkscape:current-layer="g5253" />
  <defs
     id="defs2" />
  <g
     inkscape:label="Layer 1"
     inkscape:groupmode="layer"
     id="layer1"
     transform="translate(-109.62063,-95.655491)">
    <g
       id="g5253"
       transform="matrix(0.26458333,0,0,0.26458333,24.189665,56.725962)">
      <g
         id="ANSI"
         transform="translate(-542.3713,-124.12477)"
         inkscape:export-filename="C:\Users\u1330167\Desktop\ANSI.png"
         inkscape:export-xdpi="300"
         inkscape:export-ydpi="300">
	
	
	
	
	
	
	
	
	
	
	
	
	
	
	
	
	
	
	<g
   id="g618">
		<path
   fill="#a7a9ac"
   d="m 869.26,376.74 c -2.2,0 -4,-1.8 -4,-4 v -43.48 c 0,-2.2 1.8,-4 4,-4 h 43.48 c 2.2,0 4,1.8 4,4 v 43.48 c 0,2.2 -1.8,4 -4,4 z"
   id="path588" />

		<path
   opacity="0.3"
   d="m 869.26,376.74 c -2.2,0 -4,-1.8 -4,-4 v -43.48 c 0,-2.2 1.8,-4 4,-4 h 43.48 c 2.2,0 4,1.8 4,4 v 43.48 c 0,2.2 -1.8,4 -4,4 z"
   id="path590" />

		<path
   opacity="0.1"
   d="m 869.26,376.74 c -2.2,0 -4,-1.8 -4,-4 v -43.48 c 0,-2.2 1.8,-4 4,-4 h 43.48 c 2.2,0 4,1.8 4,4 v 43.48 c 0,2.2 -1.8,4 -4,4 z"
   id="path592" />

		<linearGradient
   id="SVGID_37_"
   gradientUnits="userSpaceOnUse"
   x1="866.43481"
   y1="326.43481"
   x2="915.56519"
   y2="375.56519">
			<stop
   offset="0"
   style="stop-color:#FFFFFF"
   id="stop594" />

			<stop
   offset="0.5"
   style="stop-color:#FFFFFF;stop-opacity:0"
   id="stop596" />

			<stop
   offset="0.5047"
   style="stop-color:#020202;stop-opacity:0"
   id="stop598" />

			<stop
   offset="1"
   style="stop-color:#000000"
   id="stop600" />

		</linearGradient>

		<path
   opacity="0.2"
   fill="url(#SVGID_37_)"
   d="m 869.26,376.74 c -2.2,0 -4,-1.8 -4,-4 v -43.48 c 0,-2.2 1.8,-4 4,-4 h 43.48 c 2.2,0 4,1.8 4,4 v 43.48 c 0,2.2 -1.8,4 -4,4 z"
   id="path603"
   style="fill:url(#SVGID_37_)" />

		<path
   fill="#a7a9ac"
   d="m 874.08,363.552 c 0,2.75 2.25,5 5,5 h 23.84 c 2.75,0 5,-2.25 5,-5 v -30.104 c 0,-2.75 -2.25,-5 -5,-5 h -23.84 c -2.75,0 -5,2.25 -5,5 z"
   id="path605" />

		<linearGradient
   id="SVGID_38_"
   gradientUnits="userSpaceOnUse"
   x1="908.01727"
   y1="365.51721"
   x2="873.98273"
   y2="331.48279">
			<stop
   offset="0"
   style="stop-color:#FFFFFF"
   id="stop607" />

			<stop
   offset="0.5"
   style="stop-color:#FFFFFF;stop-opacity:0"
   id="stop609" />

			<stop
   offset="0.5047"
   style="stop-color:#020202;stop-opacity:0"
   id="stop611" />

			<stop
   offset="1"
   style="stop-color:#000000"
   id="stop613" />

		</linearGradient>

		<path
   opacity="0.1"
   fill="url(#SVGID_38_)"
   d="m 874.08,363.552 c 0,2.75 2.25,5 5,5 h 23.84 c 2.75,0 5,-2.25 5,-5 v -30.104 c 0,-2.75 -2.25,-5 -5,-5 h -23.84 c -2.75,0 -5,2.25 -5,5 z"
   id="path616"
   style="fill:url(#SVGID_38_)" />

	</g>

	<g
   id="g650">
		<path
   fill="#a7a9ac"
   d="m 923.26,322.74 c -2.2,0 -4,-1.8 -4,-4 v -43.48 c 0,-2.2 1.8,-4 4,-4 h 43.48 c 2.2,0 4,1.8 4,4 v 43.48 c 0,2.2 -1.8,4 -4,4 z"
   id="path620" />

		<path
   opacity="0.3"
   d="m 923.26,322.74 c -2.2,0 -4,-1.8 -4,-4 v -43.48 c 0,-2.2 1.8,-4 4,-4 h 43.48 c 2.2,0 4,1.8 4,4 v 43.48 c 0,2.2 -1.8,4 -4,4 z"
   id="path622" />

		<path
   opacity="0.1"
   d="m 923.26,322.74 c -2.2,0 -4,-1.8 -4,-4 v -43.48 c 0,-2.2 1.8,-4 4,-4 h 43.48 c 2.2,0 4,1.8 4,4 v 43.48 c 0,2.2 -1.8,4 -4,4 z"
   id="path624" />

		<linearGradient
   id="SVGID_39_"
   gradientUnits="userSpaceOnUse"
   x1="920.43481"
   y1="272.43481"
   x2="969.56519"
   y2="321.56519">
			<stop
   offset="0"
   style="stop-color:#FFFFFF"
   id="stop626" />

			<stop
   offset="0.5"
   style="stop-color:#FFFFFF;stop-opacity:0"
   id="stop628" />

			<stop
   offset="0.5047"
   style="stop-color:#020202;stop-opacity:0"
   id="stop630" />

			<stop
   offset="1"
   style="stop-color:#000000"
   id="stop632" />

		</linearGradient>

		<path
   opacity="0.2"
   fill="url(#SVGID_39_)"
   d="m 923.26,322.74 c -2.2,0 -4,-1.8 -4,-4 v -43.48 c 0,-2.2 1.8,-4 4,-4 h 43.48 c 2.2,0 4,1.8 4,4 v 43.48 c 0,2.2 -1.8,4 -4,4 z"
   id="path635"
   style="fill:url(#SVGID_39_)" />

		<path
   fill="#a7a9ac"
   d="m 928.08,309.552 c 0,2.75 2.25,5 5,5 h 23.84 c 2.75,0 5,-2.25 5,-5 v -30.104 c 0,-2.75 -2.25,-5 -5,-5 h -23.84 c -2.75,0 -5,2.25 -5,5 z"
   id="path637" />

		<linearGradient
   id="SVGID_40_"
   gradientUnits="userSpaceOnUse"
   x1="962.01727"
   y1="311.51721"
   x2="927.98273"
   y2="277.48279">
			<stop
   offset="0"
   style="stop-color:#FFFFFF"
   id="stop639" />

			<stop
   offset="0.5"
   style="stop-color:#FFFFFF;stop-opacity:0"
   id="stop641" />

			<stop
   offset="0.5047"
   style="stop-color:#020202;stop-opacity:0"
   id="stop643" />

			<stop
   offset="1"
   style="stop-color:#000000"
   id="stop645" />

		</linearGradient>

		<path
   opacity="0.1"
   fill="url(#SVGID_40_)"
   d="m 928.08,309.552 c 0,2.75 2.25,5 5,5 h 23.84 c 2.75,0 5,-2.25 5,-5 v -30.104 c 0,-2.75 -2.25,-5 -5,-5 h -23.84 c -2.75,0 -5,2.25 -5,5 z"
   id="path648"
   style="fill:url(#SVGID_40_)" />

	</g>

	<g
   id="g682">
		<path
   fill="#a7a9ac"
   d="m 923.26,376.74 c -2.2,0 -4,-1.8 -4,-4 v -43.48 c 0,-2.2 1.8,-4 4,-4 h 43.48 c 2.2,0 4,1.8 4,4 v 43.48 c 0,2.2 -1.8,4 -4,4 z"
   id="path652" />

		<path
   opacity="0.3"
   d="m 923.26,376.74 c -2.2,0 -4,-1.8 -4,-4 v -43.48 c 0,-2.2 1.8,-4 4,-4 h 43.48 c 2.2,0 4,1.8 4,4 v 43.48 c 0,2.2 -1.8,4 -4,4 z"
   id="path654" />

		<path
   opacity="0.1"
   d="m 923.26,376.74 c -2.2,0 -4,-1.8 -4,-4 v -43.48 c 0,-2.2 1.8,-4 4,-4 h 43.48 c 2.2,0 4,1.8 4,4 v 43.48 c 0,2.2 -1.8,4 -4,4 z"
   id="path656" />

		<linearGradient
   id="SVGID_41_"
   gradientUnits="userSpaceOnUse"
   x1="920.43481"
   y1="326.43481"
   x2="969.56519"
   y2="375.56519">
			<stop
   offset="0"
   style="stop-color:#FFFFFF"
   id="stop658" />

			<stop
   offset="0.5"
   style="stop-color:#FFFFFF;stop-opacity:0"
   id="stop660" />

			<stop
   offset="0.5047"
   style="stop-color:#020202;stop-opacity:0"
   id="stop662" />

			<stop
   offset="1"
   style="stop-color:#000000"
   id="stop664" />

		</linearGradient>

		<path
   opacity="0.2"
   fill="url(#SVGID_41_)"
   d="m 923.26,376.74 c -2.2,0 -4,-1.8 -4,-4 v -43.48 c 0,-2.2 1.8,-4 4,-4 h 43.48 c 2.2,0 4,1.8 4,4 v 43.48 c 0,2.2 -1.8,4 -4,4 z"
   id="path667"
   style="fill:url(#SVGID_41_)" />

		<path
   fill="#a7a9ac"
   d="m 928.08,363.552 c 0,2.75 2.25,5 5,5 h 23.84 c 2.75,0 5,-2.25 5,-5 v -30.104 c 0,-2.75 -2.25,-5 -5,-5 h -23.84 c -2.75,0 -5,2.25 -5,5 z"
   id="path669" />

		<linearGradient
   id="SVGID_42_"
   gradientUnits="userSpaceOnUse"
   x1="962.01727"
   y1="365.51721"
   x2="927.98273"
   y2="331.48279">
			<stop
   offset="0"
   style="stop-color:#FFFFFF"
   id="stop671" />

			<stop
   offset="0.5"
   style="stop-color:#FFFFFF;stop-opacity:0"
   id="stop673" />

			<stop
   offset="0.5047"
   style="stop-color:#020202;stop-opacity:0"
   id="stop675" />

			<stop
   offset="1"
   style="stop-color:#000000"
   id="stop677" />

		</linearGradient>

		<path
   opacity="0.1"
   fill="url(#SVGID_42_)"
   d="m 928.08,363.552 c 0,2.75 2.25,5 5,5 h 23.84 c 2.75,0 5,-2.25 5,-5 v -30.104 c 0,-2.75 -2.25,-5 -5,-5 h -23.84 c -2.75,0 -5,2.25 -5,5 z"
   id="path680"
   style="fill:url(#SVGID_42_)" />

	</g>

	<g
   id="g714">
		<path
   fill="#a7a9ac"
   d="m 977.26,376.74 c -2.2,0 -4,-1.8 -4,-4 v -43.48 c 0,-2.2 1.8,-4 4,-4 h 43.48 c 2.2,0 4,1.8 4,4 v 43.48 c 0,2.2 -1.8,4 -4,4 z"
   id="path684" />

		<path
   opacity="0.3"
   d="m 977.26,376.74 c -2.2,0 -4,-1.8 -4,-4 v -43.48 c 0,-2.2 1.8,-4 4,-4 h 43.48 c 2.2,0 4,1.8 4,4 v 43.48 c 0,2.2 -1.8,4 -4,4 z"
   id="path686" />

		<path
   opacity="0.1"
   d="m 977.26,376.74 c -2.2,0 -4,-1.8 -4,-4 v -43.48 c 0,-2.2 1.8,-4 4,-4 h 43.48 c 2.2,0 4,1.8 4,4 v 43.48 c 0,2.2 -1.8,4 -4,4 z"
   id="path688" />

		<linearGradient
   id="SVGID_43_"
   gradientUnits="userSpaceOnUse"
   x1="974.43481"
   y1="326.43481"
   x2="1023.5652"
   y2="375.56519">
			<stop
   offset="0"
   style="stop-color:#FFFFFF"
   id="stop690" />

			<stop
   offset="0.5"
   style="stop-color:#FFFFFF;stop-opacity:0"
   id="stop692" />

			<stop
   offset="0.5047"
   style="stop-color:#020202;stop-opacity:0"
   id="stop694" />

			<stop
   offset="1"
   style="stop-color:#000000"
   id="stop696" />

		</linearGradient>

		<path
   opacity="0.2"
   fill="url(#SVGID_43_)"
   d="m 977.26,376.74 c -2.2,0 -4,-1.8 -4,-4 v -43.48 c 0,-2.2 1.8,-4 4,-4 h 43.48 c 2.2,0 4,1.8 4,4 v 43.48 c 0,2.2 -1.8,4 -4,4 z"
   id="path699"
   style="fill:url(#SVGID_43_)" />

		<path
   fill="#a7a9ac"
   d="m 982.08,363.552 c 0,2.75 2.25,5 5,5 h 23.84 c 2.75,0 5,-2.25 5,-5 v -30.104 c 0,-2.75 -2.25,-5 -5,-5 h -23.84 c -2.75,0 -5,2.25 -5,5 z"
   id="path701" />

		<linearGradient
   id="SVGID_44_"
   gradientUnits="userSpaceOnUse"
   x1="1016.0173"
   y1="365.51721"
   x2="981.98273"
   y2="331.48279">
			<stop
   offset="0"
   style="stop-color:#FFFFFF"
   id="stop703" />

			<stop
   offset="0.5"
   style="stop-color:#FFFFFF;stop-opacity:0"
   id="stop705" />

			<stop
   offset="0.5047"
   style="stop-color:#020202;stop-opacity:0"
   id="stop707" />

			<stop
   offset="1"
   style="stop-color:#000000"
   id="stop709" />

		</linearGradient>

		<path
   opacity="0.1"
   fill="url(#SVGID_44_)"
   d="m 982.08,363.552 c 0,2.75 2.25,5 5,5 h 23.84 c 2.75,0 5,-2.25 5,-5 v -30.104 c 0,-2.75 -2.25,-5 -5,-5 h -23.84 c -2.75,0 -5,2.25 -5,5 z"
   id="path712"
   style="fill:url(#SVGID_44_)" />

	</g>

	
	
	
	
	
	
	
	
	
	
	
	
	
	
	
	
	
	
	
	
	
	
	
	
	
	
	
	
	
	
	
	
	
	
	
	
	
	
	
	
	
	
	
	
	
	
	
	
	
	
	
	
	
	
	
	
	
	
	
	
	
	
	
	
	
</g>
      <g
         id="Legends_1_">
	
	
	
	
	
	
	
	
	
	
	
	
	
	
	
	
	
	
	
	
	
	
	
	
	
	
	
	
	
	
	
	
	
	
	
	
	
	
	
	
	
	
	
	
	
	
	
	
	
	
	
	
	
	
	
	
	
	
	
	
	
	
	
	
	
	
	
	
	
	
	
	
	
	
	
	
	
	
	
	<g
   id="g3369"
   transform="translate(-542.3713,-124.12477)"
   inkscape:export-filename="C:\Users\u1330167\Desktop\ANSI.png"
   inkscape:export-xdpi="300"
   inkscape:export-ydpi="300">
		<path
   fill="#414042"
   d="m 938.455,286.756 4.219,4.219 h -3.496 v 11.445 h -1.445 v -11.445 h -3.496 z"
   id="path3367" />

	</g>

	<g
   id="g3373"
   transform="translate(-542.3713,-124.12477)"
   inkscape:export-filename="C:\Users\u1330167\Desktop\ANSI.png"
   inkscape:export-xdpi="300"
   inkscape:export-ydpi="300">
		<path
   fill="#414042"
   d="m 934.236,353.412 h 3.496 v -11.445 h 1.445 v 11.445 h 3.496 l -4.219,4.219 z"
   id="path3371" />

	</g>

	<g
   id="g3377"
   transform="translate(-542.3713,-124.12477)"
   inkscape:export-filename="C:\Users\u1330167\Desktop\ANSI.png"
   inkscape:export-xdpi="300"
   inkscape:export-ydpi="300">
		<path
   fill="#414042"
   d="m 880.051,349.193 4.219,-4.219 v 3.496 h 11.445 v 1.445 H 884.27 v 3.496 z"
   id="path3375" />

	</g>

	
	
	
	
	
	
	
	<g
   id="g3421"
   transform="translate(-542.3713,-124.12477)"
   inkscape:export-filename="C:\Users\u1330167\Desktop\ANSI.png"
   inkscape:export-xdpi="300"
   inkscape:export-ydpi="300">
		<path
   fill="#414042"
   d="m 999.73,353.412 v -3.496 h -11.445 v -1.445 h 11.445 v -3.496 l 4.219,4.219 z"
   id="path3419" />

	</g>

	
	<g
   id="g3429">
	</g>

	<g
   id="g3431">
	</g>

	<g
   id="g3433">
	</g>

	<g
   id="g3435">
	</g>

	<g
   id="g3437">
	</g>

	<g
   id="g3439">
	</g>

</g>
    </g>
  </g>
</svg>
