<?xml version="1.0" encoding="UTF-8" standalone="no"?>
<!-- Created with Inkscape (http://www.inkscape.org/) -->

<svg
   width="42.195168mm"
   height="27.907866mm"
   viewBox="0 0 42.195168 27.907866"
   version="1.1"
   id="svg1373"
   inkscape:version="1.1 (c68e22c387, 2021-05-23)"
   xmlns:inkscape="http://www.inkscape.org/namespaces/inkscape"
   xmlns:sodipodi="http://sodipodi.sourceforge.net/DTD/sodipodi-0.dtd"
   xmlns="http://www.w3.org/2000/svg"
   xmlns:svg="http://www.w3.org/2000/svg">
  <sodipodi:namedview
     id="namedview1375"
     pagecolor="#505050"
     bordercolor="#ffffff"
     borderopacity="1"
     inkscape:pageshadow="0"
     inkscape:pageopacity="0"
     inkscape:pagecheckerboard="1"
     inkscape:document-units="mm"
     showgrid="false"
     inkscape:zoom="3.1108586"
     inkscape:cx="78.91712"
     inkscape:cy="82.292394"
     inkscape:window-width="1278"
     inkscape:window-height="1378"
     inkscape:window-x="5113"
     inkscape:window-y="0"
     inkscape:window-maximized="0"
     inkscape:current-layer="g1507" />
  <defs
     id="defs1370" />
  <g
     inkscape:label="Layer 1"
     inkscape:groupmode="layer"
     id="layer1"
     transform="translate(-118.04675,-129.95328)">
    <g
       id="g1585"
       transform="matrix(0.99999879,0,0,0.99999879,118.04966,129.95421)">
      <g
         transform="matrix(0.26458,0,0,0.26458,-228.9334,-71.7709)"
         id="g1471">
        <path
           fill="#e6e7e8"
           d="m 923.26,376.74 c -2.2,0 -4,-1.8 -4,-4 v -43.48 c 0,-2.2 1.8,-4 4,-4 h 43.48 c 2.2,0 4,1.8 4,4 v 43.48 c 0,2.2 -1.8,4 -4,4 z"
           id="path1441" />
        <path
           opacity="0.3"
           d="m 923.26,376.74 c -2.2,0 -4,-1.8 -4,-4 v -43.48 c 0,-2.2 1.8,-4 4,-4 h 43.48 c 2.2,0 4,1.8 4,4 v 43.48 c 0,2.2 -1.8,4 -4,4 z"
           id="path1443" />
        <path
           opacity="0.1"
           d="m 923.26,376.74 c -2.2,0 -4,-1.8 -4,-4 v -43.48 c 0,-2.2 1.8,-4 4,-4 h 43.48 c 2.2,0 4,1.8 4,4 v 43.48 c 0,2.2 -1.8,4 -4,4 z"
           id="path1445" />
        <linearGradient
           id="e"
           gradientUnits="userSpaceOnUse"
           x1="920.43481"
           y1="326.43481"
           x2="969.56519"
           y2="375.56519">
          <stop
             offset="0"
             style="stop-color:#fff"
             id="stop1447" />
          <stop
             offset=".5"
             style="stop-color:#fff;stop-opacity:0"
             id="stop1449" />
          <stop
             offset=".5047"
             style="stop-color:#020202;stop-opacity:0"
             id="stop1451" />
          <stop
             offset="1"
             style="stop-color:#000"
             id="stop1453" />
        </linearGradient>
        <path
           opacity="0.2"
           fill="url(#e)"
           d="m 923.26,376.74 c -2.2,0 -4,-1.8 -4,-4 v -43.48 c 0,-2.2 1.8,-4 4,-4 h 43.48 c 2.2,0 4,1.8 4,4 v 43.48 c 0,2.2 -1.8,4 -4,4 z"
           style="fill:url(#e)"
           id="path1456" />
        <path
           fill="#e6e7e8"
           d="m 928.08,363.552 c 0,2.75 2.25,5 5,5 h 23.84 c 2.75,0 5,-2.25 5,-5 v -30.104 c 0,-2.75 -2.25,-5 -5,-5 h -23.84 c -2.75,0 -5,2.25 -5,5 z"
           id="path1458" />
        <linearGradient
           id="f"
           gradientUnits="userSpaceOnUse"
           x1="962.01727"
           y1="365.51721"
           x2="927.98273"
           y2="331.48279">
          <stop
             offset="0"
             style="stop-color:#fff"
             id="stop1460" />
          <stop
             offset=".5"
             style="stop-color:#fff;stop-opacity:0"
             id="stop1462" />
          <stop
             offset=".5047"
             style="stop-color:#020202;stop-opacity:0"
             id="stop1464" />
          <stop
             offset="1"
             style="stop-color:#000"
             id="stop1466" />
        </linearGradient>
        <path
           opacity="0.1"
           fill="url(#f)"
           d="m 928.08,363.552 c 0,2.75 2.25,5 5,5 h 23.84 c 2.75,0 5,-2.25 5,-5 v -30.104 c 0,-2.75 -2.25,-5 -5,-5 h -23.84 c -2.75,0 -5,2.25 -5,5 z"
           style="fill:url(#f)"
           id="path1469" />
      </g>
      <g
         id="g1507">
        <path
           fill="#414042"
           d="m 18.2499,21.736 h 0.925 v -3.028 h 0.3823 v 3.0281 h 0.925 l -1.1163,1.1163 z"
           id="path1505"
           sodipodi:nodetypes="cccccccc" />
      </g>
    </g>
  </g>
</svg>
