<?xml version="1.0" encoding="UTF-8" standalone="no"?>
<!-- Created with Inkscape (http://www.inkscape.org/) -->

<svg
   width="42.195168mm"
   height="27.907866mm"
   viewBox="0 0 42.195168 27.907866"
   version="1.1"
   id="svg1373"
   inkscape:version="1.1 (c68e22c387, 2021-05-23)"
   xmlns:inkscape="http://www.inkscape.org/namespaces/inkscape"
   xmlns:sodipodi="http://sodipodi.sourceforge.net/DTD/sodipodi-0.dtd"
   xmlns="http://www.w3.org/2000/svg"
   xmlns:svg="http://www.w3.org/2000/svg">
  <sodipodi:namedview
     id="namedview1375"
     pagecolor="#505050"
     bordercolor="#ffffff"
     borderopacity="1"
     inkscape:pageshadow="0"
     inkscape:pageopacity="0"
     inkscape:pagecheckerboard="1"
     inkscape:document-units="mm"
     showgrid="false"
     inkscape:zoom="3.1108586"
     inkscape:cx="78.91712"
     inkscape:cy="82.292394"
     inkscape:window-width="1278"
     inkscape:window-height="1378"
     inkscape:window-x="5113"
     inkscape:window-y="0"
     inkscape:window-maximized="0"
     inkscape:current-layer="g1507" />
  <defs
     id="defs1370" />
  <g
     inkscape:label="Layer 1"
     inkscape:groupmode="layer"
     id="layer1"
     transform="translate(-118.04675,-129.95328)">
    <g
       id="g1585"
       transform="matrix(0.99999879,0,0,0.99999879,118.04966,129.95421)">
      <g
         transform="matrix(0.26458,0,0,0.26458,-228.9334,-71.7709)"
         id="g1407">
        <path
           fill="#e6e7e8"
           d="m 869.26,376.74 c -2.2,0 -4,-1.8 -4,-4 v -43.48 c 0,-2.2 1.8,-4 4,-4 h 43.48 c 2.2,0 4,1.8 4,4 v 43.48 c 0,2.2 -1.8,4 -4,4 z"
           id="path1377" />
        <path
           opacity="0.3"
           d="m 869.26,376.74 c -2.2,0 -4,-1.8 -4,-4 v -43.48 c 0,-2.2 1.8,-4 4,-4 h 43.48 c 2.2,0 4,1.8 4,4 v 43.48 c 0,2.2 -1.8,4 -4,4 z"
           id="path1379" />
        <path
           opacity="0.1"
           d="m 869.26,376.74 c -2.2,0 -4,-1.8 -4,-4 v -43.48 c 0,-2.2 1.8,-4 4,-4 h 43.48 c 2.2,0 4,1.8 4,4 v 43.48 c 0,2.2 -1.8,4 -4,4 z"
           id="path1381" />
        <linearGradient
           id="a"
           gradientUnits="userSpaceOnUse"
           x1="866.43481"
           y1="326.43481"
           x2="915.56519"
           y2="375.56519">
          <stop
             offset="0"
             style="stop-color:#fff"
             id="stop1383" />
          <stop
             offset=".5"
             style="stop-color:#fff;stop-opacity:0"
             id="stop1385" />
          <stop
             offset=".5047"
             style="stop-color:#020202;stop-opacity:0"
             id="stop1387" />
          <stop
             offset="1"
             style="stop-color:#000"
             id="stop1389" />
        </linearGradient>
        <path
           opacity="0.2"
           fill="url(#a)"
           d="m 869.26,376.74 c -2.2,0 -4,-1.8 -4,-4 v -43.48 c 0,-2.2 1.8,-4 4,-4 h 43.48 c 2.2,0 4,1.8 4,4 v 43.48 c 0,2.2 -1.8,4 -4,4 z"
           style="fill:url(#a)"
           id="path1392" />
        <path
           fill="#e6e7e8"
           d="m 874.08,363.552 c 0,2.75 2.25,5 5,5 h 23.84 c 2.75,0 5,-2.25 5,-5 v -30.104 c 0,-2.75 -2.25,-5 -5,-5 h -23.84 c -2.75,0 -5,2.25 -5,5 z"
           id="path1394" />
        <linearGradient
           id="b"
           gradientUnits="userSpaceOnUse"
           x1="908.01727"
           y1="365.51721"
           x2="873.98273"
           y2="331.48279">
          <stop
             offset="0"
             style="stop-color:#fff"
             id="stop1396" />
          <stop
             offset=".5"
             style="stop-color:#fff;stop-opacity:0"
             id="stop1398" />
          <stop
             offset=".5047"
             style="stop-color:#020202;stop-opacity:0"
             id="stop1400" />
          <stop
             offset="1"
             style="stop-color:#000"
             id="stop1402" />
        </linearGradient>
        <path
           opacity="0.1"
           fill="url(#b)"
           d="m 874.08,363.552 c 0,2.75 2.25,5 5,5 h 23.84 c 2.75,0 5,-2.25 5,-5 v -30.104 c 0,-2.75 -2.25,-5 -5,-5 h -23.84 c -2.75,0 -5,2.25 -5,5 z"
           style="fill:url(#b)"
           id="path1405" />
      </g>
      <g
         transform="matrix(0.26458,0,0,0.26458,-228.9334,-71.7709)"
         id="g1471">
        <linearGradient
           id="e"
           gradientUnits="userSpaceOnUse"
           x1="920.43481"
           y1="326.43481"
           x2="969.56519"
           y2="375.56519">
          <stop
             offset="0"
             style="stop-color:#fff"
             id="stop1447" />
          <stop
             offset=".5"
             style="stop-color:#fff;stop-opacity:0"
             id="stop1449" />
          <stop
             offset=".5047"
             style="stop-color:#020202;stop-opacity:0"
             id="stop1451" />
          <stop
             offset="1"
             style="stop-color:#000"
             id="stop1453" />
        </linearGradient>
        <linearGradient
           id="f"
           gradientUnits="userSpaceOnUse"
           x1="962.01727"
           y1="365.51721"
           x2="927.98273"
           y2="331.48279">
          <stop
             offset="0"
             style="stop-color:#fff"
             id="stop1460" />
          <stop
             offset=".5"
             style="stop-color:#fff;stop-opacity:0"
             id="stop1462" />
          <stop
             offset=".5047"
             style="stop-color:#020202;stop-opacity:0"
             id="stop1464" />
          <stop
             offset="1"
             style="stop-color:#000"
             id="stop1466" />
        </linearGradient>
      </g>
      <g
         id="g1507">
        <path
           fill="#414042"
           d="m 3.9135,20.6198 1.1162,-1.1163 v 0.925 H 8.058 v 0.3823 H 5.0297 v 0.925 z"
           id="path1505"
           sodipodi:nodetypes="cccccccc" />
      </g>
    </g>
  </g>
</svg>
