<?xml version="1.0" encoding="UTF-8" standalone="no"?>
<!-- Created with Inkscape (http://www.inkscape.org/) -->

<svg
   width="49.537186mm"
   height="52.264637mm"
   viewBox="0 0 49.537186 52.264637"
   version="1.1"
   id="svg5"
   sodipodi:docname="asteroid3.svg"
   inkscape:version="1.1 (c68e22c387, 2021-05-23)"
   xmlns:inkscape="http://www.inkscape.org/namespaces/inkscape"
   xmlns:sodipodi="http://sodipodi.sourceforge.net/DTD/sodipodi-0.dtd"
   xmlns:xlink="http://www.w3.org/1999/xlink"
   xmlns="http://www.w3.org/2000/svg"
   xmlns:svg="http://www.w3.org/2000/svg">
  <sodipodi:namedview
     id="namedview7"
     pagecolor="#505050"
     bordercolor="#ffffff"
     borderopacity="1"
     inkscape:pageshadow="0"
     inkscape:pageopacity="0"
     inkscape:pagecheckerboard="1"
     inkscape:document-units="mm"
     showgrid="false"
     inkscape:zoom="0.77771465"
     inkscape:cx="201.23062"
     inkscape:cy="-199.9448"
     inkscape:window-width="2560"
     inkscape:window-height="1387"
     inkscape:window-x="2552"
     inkscape:window-y="-8"
     inkscape:window-maximized="1"
     inkscape:current-layer="g855" />
  <defs
     id="defs2">
    <rect
       id="SVGID_1_"
       width="1920"
       height="1080"
       x="0"
       y="0" />
    <rect
       id="SVGID_3_"
       x="98"
       y="96"
       width="257.00101"
       height="261.60001" />
    <rect
       id="SVGID_5_"
       x="98"
       y="96"
       width="257"
       height="261.60001" />
    <rect
       id="SVGID_7_"
       x="35"
       y="118"
       width="110"
       height="230" />
    <rect
       id="SVGID_9_"
       x="1602"
       y="46"
       width="270"
       height="242.66701" />
    <rect
       id="SVGID_11_"
       x="1458"
       y="91"
       width="208"
       height="237.66701" />
    <rect
       id="SVGID_13_"
       x="634"
       y="127"
       width="159"
       height="153" />
    <rect
       id="SVGID_15_"
       x="634"
       y="127"
       width="159"
       height="153" />
    <rect
       id="SVGID_17_"
       x="499"
       y="106"
       width="172.231"
       height="200.60001" />
    <rect
       id="SVGID_19_"
       x="499"
       y="106"
       width="172.231"
       height="200.60001" />
    <rect
       id="SVGID_21_"
       x="821"
       y="48"
       width="230.27299"
       height="238.379" />
    <rect
       id="SVGID_23_"
       width="1920"
       height="1080"
       x="0"
       y="0" />
    <rect
       id="SVGID_25_"
       x="388.35001"
       y="322"
       width="155.653"
       height="186.69" />
    <rect
       id="SVGID_27_"
       x="388.35001"
       y="322"
       width="155.653"
       height="186.69" />
    <rect
       id="SVGID_29_"
       x="1044.51"
       y="725.5"
       width="186.22099"
       height="196.52901" />
    <rect
       id="SVGID_31_"
       x="1044.51"
       y="725.5"
       width="186.22099"
       height="196.52901" />
    <rect
       id="SVGID_33_"
       x="776.99799"
       y="756.99902"
       width="165.00301"
       height="161.75101" />
    <rect
       id="SVGID_35_"
       x="776.99799"
       y="756.99902"
       width="165.00301"
       height="161.75101" />
    <rect
       id="SVGID_37_"
       x="990.30902"
       y="311.51199"
       width="192.01199"
       height="233.53799" />
    <rect
       id="SVGID_39_"
       x="990.30902"
       y="311.51199"
       width="192.01199"
       height="233.53799" />
    <rect
       id="SVGID_41_"
       x="406.168"
       y="755"
       width="232.836"
       height="180.27299" />
    <rect
       id="SVGID_43_"
       x="406.168"
       y="755"
       width="232.836"
       height="180.27299" />
    <rect
       id="SVGID_45_"
       x="643.5"
       y="331.01999"
       width="259.41"
       height="205.48" />
    <rect
       id="SVGID_47_"
       x="643.5"
       y="331.01999"
       width="259.41"
       height="205.48" />
  </defs>
  <g
     inkscape:label="Layer 1"
     inkscape:groupmode="layer"
     id="layer1"
     transform="translate(-74.847997,-226.22455)">
    <g
       id="g857"
       transform="matrix(0.26458333,0,0,0.26458333,-201.37896,34.400844)">
	<defs
   id="defs10">
		<rect
   id="rect888"
   width="1920"
   height="1080"
   x="0"
   y="0" />

	</defs>

	<clipPath
   id="SVGID_2_">
		<use
   xlink:href="#SVGID_1_"
   overflow="visible"
   id="use12"
   x="0"
   y="0"
   width="100%"
   height="100%" />

	</clipPath>

	
	
	
	
	
	
	
	<g
   clip-path="url(#SVGID_2_)"
   id="g855">
		<defs
   id="defs124">
			<rect
   id="rect967"
   width="1920"
   height="1080"
   x="0"
   y="0" />

		</defs>

		<clipPath
   id="SVGID_24_">
			<use
   xlink:href="#SVGID_23_"
   overflow="visible"
   id="use126"
   x="0"
   y="0"
   width="100%"
   height="100%" />

		</clipPath>

		
		
		
		
		
		
		
		
			
		
		
		
		
		
		
		
		
		
		
		
		
		
		
		
		
		
		
		
		
		
		
		
		
		
		
		
		
		
		
		
		
		
		
		
		
			
		
			
		
			
		
		
		
		
		<g
   clip-path="url(#SVGID_24_)"
   id="g321">
			<defs
   id="defs282">
				<rect
   id="rect1052"
   x="1044.51"
   y="725.5"
   width="186.22099"
   height="196.52901" />

			</defs>

			<clipPath
   id="SVGID_30_">
				<use
   xlink:href="#SVGID_29_"
   overflow="visible"
   id="use284"
   x="0"
   y="0"
   width="100%"
   height="100%" />

			</clipPath>

			<g
   clip-path="url(#SVGID_30_)"
   id="g319">
				<defs
   id="defs288">
					<rect
   id="rect1057"
   x="1044.51"
   y="725.5"
   width="186.22099"
   height="196.52901" />

				</defs>

				<clipPath
   id="SVGID_32_">
					<use
   xlink:href="#SVGID_31_"
   overflow="visible"
   id="use290"
   x="0"
   y="0"
   width="100%"
   height="100%" />

				</clipPath>

				<path
   clip-path="url(#SVGID_32_)"
   fill="#989898"
   d="m 1111.77,851.65 c 0.021,-0.08 0.04,-0.16 0.07,-0.24 0.11,-0.351 0.25,-0.71 0.561,-0.891 0.3,-0.18 0.68,-0.14 1.02,-0.079 5.62,0.84 11.24,1.68 16.85,2.52 2.461,0.36 5.15,0.69 7.271,-0.6 2.64,-1.601 3.39,-5.021 3.83,-8.07 0.18,-1.24 0.34,-2.521 -0.03,-3.71 -0.439,-1.37 -1.52,-2.41 -2.56,-3.39 -1.96,-1.86 -3.931,-3.71 -5.891,-5.57 -1.47,-1.38 -2.97,-2.79 -4.779,-3.66 -1.82,-0.88 -4.03,-1.15 -5.83,-0.24 -1.021,0.521 -1.83,1.38 -2.83,1.92 -1.79,0.971 -4,0.851 -5.811,1.771 -1.38,0.689 -2.399,1.92 -3.39,3.12 -3.08,3.76 -6.29,7.83 -6.74,12.67 l -0.01,0.3 c 1.6,3.2 4.46,5.79 7.53,7.64 0.139,-1.191 0.379,-2.361 0.739,-3.491 m 118.73,1.85 c 1.48,10.59 -4.32,22.9 -11.44,30.89 -2.229,2.5 -4.63,4.811 -7.13,7.04 -9.569,-1.14 -22.779,-2.84 -31.75,-5.93 -4.37,-1.51 -8.63,-3.47 -13.199,-4.13 -4.58,-0.66 -9.69,0.229 -12.811,3.63 -1.36,1.49 -2.26,3.34 -3.53,4.91 -1.89,2.32 -4.52,3.899 -7.1,5.42 -0.5,0.3 -1,0.59 -1.521,0.89 l -0.1,-0.18 c -5.47,0.28 -10.86,-3.69 -12.22,-8.99 -0.24,-0.91 -0.38,-1.88 -0.94,-2.64 -0.899,-1.2 -2.56,-1.48 -3.89,-2.19 -2.09,-1.12 -3.33,-3.3 -4.65,-5.26 -8.689,-12.9 -28.239,-20.57 -43.43,-16.81 l -0.05,-0.21 c -5.221,-3.5 -8.391,-9.45 -9.82,-15.57 -1.429,-6.12 -1.31,-12.48 -1.18,-18.771 0.069,-3.189 0.14,-6.38 0.199,-9.56 l 0.301,0.01 c 6.09,0.88 12.26,1.23 18.42,1.05 8.649,-0.26 17.31,-1.569 25.939,-0.8 7.28,0.66 14.4,2.79 21.7,2.9 9.12,0.13 18.63,-2.851 27.12,0.46 4.34,1.7 8.01,4.93 12.5,6.18 6.79,1.891 13.85,-1.08 20.46,-3.52 6.61,-2.431 18.17,-1.59 24.12,2.18 l 0.35,0.08 c -0.92,3.46 0.57,7.1 2.181,10.32 3.201,6.371 7.181,12.911 11.471,18.601"
   id="path293" />

				<path
   clip-path="url(#SVGID_32_)"
   fill="#909090"
   d="m 1132.54,725.65 c 1.26,5.189 10.87,14.949 15.41,17.52 4.59,2.58 9.67,4.26 14.09,7.11 4.58,2.95 8.43,7.14 13.51,9.109 7.25,2.801 17.14,-0.359 24.61,-2.779 0.12,-0.04 0.229,-0.07 0.34,-0.11 3.51,4.56 9.57,9.96 12.96,14.61 1.521,2.1 2.65,4.449 3.76,6.779 2.24,4.721 4.47,9.489 5.72,14.57 1.25,5.07 1.48,10.521 -0.26,15.44 l -0.25,-0.051 c -0.56,3.131 -1.46,8.66 -2.939,11.54 l -0.051,-0.02 c -2.289,-7.41 -4.609,-14.88 -8.369,-21.66 -3.75,-6.79 -9.101,-12.93 -16.09,-16.29 -1.74,-0.84 -3.73,-1.51 -5.58,-0.93 -1.54,0.49 -2.681,1.75 -3.882,2.85 -6.158,5.67 -15.568,7.539 -23.419,4.641 -4.479,-1.65 -8.319,-4.65 -12.069,-7.602 -11.681,-9.188 -23.5,-18.519 -32.521,-30.319 -0.87,-1.14 -1.77,-2.34 -3.08,-2.909 -1.01,-0.431 -2.149,-0.431 -3.24,-0.431 -2.63,0.011 -5.25,0.021 -7.88,0.03 -0.75,0 -1.55,0.02 -2.189,0.41 -0.852,0.53 -1.2,1.58 -1.49,2.55 -2.12,7.19 -4.54,14.39 -8.56,20.73 -4.021,6.329 -9.82,11.79 -16.971,14.09 -2.64,0.849 -5.79,1.52 -7.029,4.01 -0.57,1.14 -0.601,2.46 -0.631,3.74 -0.159,7.92 -0.329,15.84 -0.5,23.76 -0.06,3.18 -0.13,6.37 -0.199,9.56 -0.13,6.29 -0.25,12.65 1.18,18.771 1.43,6.121 4.599,12.07 9.82,15.57 l 0.05,0.21 c -0.43,0.109 -0.86,0.22 -1.29,0.35 l -0.33,0.1 c -0.86,8.301 -5.41,20.721 -9.67,27.9 l -0.37,0.25 c -4.13,-6.1 -8.07,-12.33 -11.6,-18.78 2.72,-2.45 5.229,-5.13 7.5,-8 1.39,-1.76 2.729,-3.7 2.97,-5.93 0.28,-2.72 -1.14,-5.32 -2.71,-7.55 -1.43,-2.04 -3.14,-4.03 -5.45,-4.971 -2.3,-0.939 -9.939,-1.1 -11.33,0.971 -0.04,-2.69 0.38,-5.34 1.41,-7.88 1.51,-3.71 4.24,-6.841 5.73,-10.561 1.819,-4.55 1.6,-9.84 -0.53,-14.24 l 0.569,-0.1 c 2.65,-9.04 -0.35,-18.67 -3.449,-27.57 l 0.109,-0.04 c -0.529,-1.64 -0.869,-4.34 -0.25,-5.77 l 0.9,0.11 c 0.62,-4.591 1.9,-9.471 5.91,-11.53 2.87,-1.47 6.3,-1 9.51,-1.33 7.04,-0.73 13.16,-5.48 17.21,-11.28 3.88,-5.53 6.38,-12.45 8.56,-18.899 l 0.311,0.1 c 4.55,-1.46 9.939,-0.7 14.56,-1.94 1.841,-0.489 3.53,-4.46 5.341,-5.069 1.89,-0.63 3.89,-0.851 5.88,-1.061 4.83,-0.529 11.39,-1.399 16.22,-1.93 0.01,0.051 0.017,0.101 0.038,0.151"
   id="path295" />

				<path
   clip-path="url(#SVGID_32_)"
   fill="#9d9d9d"
   d="m 1098.37,778.74 c -1.34,2.64 -2.33,9.25 -2.99,11.91 -0.68,2.739 -0.52,5.819 1.08,8.159 2.719,3.99 8.33,4.45 13.16,4.44 0.519,0 1.07,-0.01 1.519,-0.28 0.441,-0.27 0.701,-0.739 0.92,-1.201 2.37,-4.898 2.722,-10.908 0.211,-15.738 -2.52,-4.83 -8.109,-8.09 -13.479,-7.19 z m 4.59,-25.13 -0.01,0.04 c -2.55,2.739 -2,7.71 1.08,9.819 0.39,0.261 0.84,0.49 1.29,0.41 0.439,-0.07 0.64,-0.861 1.068,-0.76 15.822,3.9 5.092,-7.399 -3.428,-9.509 m 116.48,65.76 0.05,0.02 c -0.09,0.181 -0.182,0.341 -0.271,0.49 -0.88,1.47 -1.87,2.92 -2.34,4.57 -0.01,0.04 -0.02,0.09 -0.03,0.13 l -0.35,-0.08 c -5.95,-3.77 -17.51,-4.61 -24.12,-2.18 -6.61,2.439 -13.67,5.41 -20.46,3.52 -4.491,-1.25 -8.16,-4.479 -12.5,-6.18 -8.491,-3.311 -18,-0.33 -27.12,-0.46 -7.3,-0.11 -14.42,-2.24 -21.7,-2.9 -8.63,-0.77 -17.291,0.54 -25.939,0.8 -6.16,0.181 -12.33,-0.17 -18.42,-1.05 l -0.3,-0.01 c 0.17,-7.92 0.34,-15.84 0.5,-23.76 0.029,-1.28 0.06,-2.601 0.63,-3.74 1.238,-2.49 4.39,-3.16 7.029,-4.01 7.15,-2.3 12.95,-7.762 16.971,-14.09 4.02,-6.341 6.439,-13.54 8.56,-20.73 0.29,-0.97 0.64,-2.02 1.49,-2.55 0.64,-0.392 1.438,-0.41 2.188,-0.41 2.632,-0.01 5.25,-0.02 7.882,-0.03 1.09,0 2.229,0 3.238,0.431 1.312,0.569 2.21,1.77 3.081,2.909 9.021,11.801 20.84,21.131 32.521,30.32 3.75,2.95 7.59,5.95 12.069,7.601 7.851,2.899 17.261,1.029 23.42,-4.641 1.2,-1.1 2.341,-2.359 3.881,-2.85 1.85,-0.58 3.84,0.09 5.58,0.93 6.989,3.36 12.34,9.5 16.09,16.29 3.76,6.78 6.08,14.25 8.37,21.66 m -67.49,-14.08 c 3.14,-4.37 3.3,-10.82 -0.021,-15.06 -3.29,-4.212 -9.889,-5.54 -14.329,-2.57 l -0.1,-0.16 c -3.76,1.34 -5.861,7 -6.571,10.93 -0.729,4 -0.818,8.83 2.421,11.28 1.25,0.95 2.829,1.37 4.391,1.55 5.349,0.62 11.068,-1.59 14.209,-5.97"
   id="path297" />

				<path
   clip-path="url(#SVGID_32_)"
   fill="#909090"
   d="m 1211.93,891.43 c -5.479,4.88 -11.39,9.33 -16.819,14.28 -3.521,3.21 -7.159,6.82 -11.87,7.56 -2.871,0.45 -6.021,-0.199 -8.561,1.2 -1.39,0.771 -2.399,2.061 -3.689,2.971 -2,1.42 -4.51,1.869 -6.94,2.14 -15.17,1.71 -30.76,-1.879 -45.66,1.4 -3.5,0.77 -7.359,1.869 -10.47,0.09 -2.189,-1.25 -3.43,-3.641 -5.09,-5.54 -1.08,-1.24 -2.311,-2.24 -3.66,-3.09 6.49,-0.54 13.6,-2.57 20.58,-5.301 7.951,-3.109 15.74,-7.12 22.27,-10.92 0.521,-0.3 1.021,-0.59 1.521,-0.89 2.579,-1.521 5.21,-3.1 7.1,-5.42 1.271,-1.57 2.17,-3.42 3.53,-4.91 3.12,-3.4 8.23,-4.29 12.811,-3.63 4.569,0.66 8.829,2.62 13.199,4.13 8.968,3.09 22.178,4.79 31.748,5.93"
   id="path299" />

				<path
   clip-path="url(#SVGID_32_)"
   fill="#9d9d9d"
   d="m 1182.56,734.69 c 8.131,4.89 9.58,17.069 17.601,21.92 -7.47,2.42 -17.36,5.58 -24.61,2.779 -5.08,-1.971 -8.93,-6.159 -13.511,-9.109 -4.419,-2.851 -9.5,-4.53 -14.089,-7.111 -4.54,-2.569 -14.15,-12.329 -15.411,-17.519 12.691,1.109 25.391,5.109 38.081,6.17 4.119,0.34 8.399,0.74 11.939,2.87"
   id="path301" />

				<path
   clip-path="url(#SVGID_32_)"
   fill="#b9b9b9"
   d="m 1137.6,787.66 c 4.439,-2.97 11.04,-1.641 14.33,2.57 3.32,4.24 3.16,10.689 0.021,15.06 -3.141,4.38 -8.86,6.59 -14.21,5.97 -1.561,-0.18 -3.141,-0.6 -4.391,-1.55 -3.239,-2.45 -3.149,-7.279 -2.42,-11.279 0.71,-3.931 2.811,-9.591 6.57,-10.931 z"
   id="path303" />

				<path
   clip-path="url(#SVGID_32_)"
   fill="#989898"
   d="m 1141.92,896.04 0.1,0.18 c -6.529,3.799 -14.319,7.811 -22.27,10.92 l -0.25,-0.64 c -0.96,-0.05 -5.5,-1.89 -5.309,-2.83 0.179,-0.939 0.668,-1.87 0.448,-2.8 -0.18,-0.75 -0.79,-1.311 -1.359,-1.82 -3.641,-3.229 -7.351,-6.51 -11.811,-8.45 -8.11,-3.52 -17.489,-2.13 -25.989,0.311 -1.351,0.39 -7.011,1.18 -6.98,2.59 l -0.07,0.05 c -1.109,-1.59 -2.21,-3.189 -3.3,-4.8 l 0.37,-0.25 c 4.26,-7.18 8.81,-19.6 9.67,-27.9 l 0.33,-0.1 c 0.43,-0.13 0.859,-0.24 1.29,-0.35 15.19,-3.761 34.74,3.909 43.43,16.81 1.32,1.96 2.561,4.14 4.65,5.26 1.33,0.71 2.989,0.99 3.89,2.19 0.561,0.76 0.7,1.729 0.94,2.64 1.36,5.299 6.75,9.269 12.22,8.989"
   id="path305" />

				<path
   clip-path="url(#SVGID_32_)"
   fill="#909090"
   d="m 1111.77,851.65 c -0.359,1.13 -0.6,2.3 -0.739,3.489 -3.071,-1.85 -5.931,-4.439 -7.53,-7.64 l 0.01,-0.3 c 0.449,-4.84 3.66,-8.91 6.74,-12.67 0.99,-1.2 2.01,-2.431 3.39,-3.12 1.811,-0.92 4.021,-0.8 5.811,-1.771 1,-0.54 1.81,-1.399 2.83,-1.92 1.8,-0.91 4.011,-0.64 5.83,0.24 1.81,0.87 3.31,2.28 4.779,3.66 1.96,1.86 3.931,3.71 5.891,5.57 1.04,0.979 2.12,2.02 2.56,3.39 0.369,1.189 0.21,2.47 0.03,3.71 -0.44,3.05 -1.19,6.47 -3.829,8.07 -2.121,1.29 -4.811,0.96 -7.271,0.6 -5.609,-0.84 -11.229,-1.68 -16.85,-2.52 -0.34,-0.061 -0.72,-0.101 -1.02,0.079 -0.311,0.181 -0.45,0.54 -0.561,0.891 -0.031,0.082 -0.05,0.162 -0.071,0.242"
   id="path307" />

				<path
   clip-path="url(#SVGID_32_)"
   fill="#909090"
   d="m 1119.5,906.5 0.25,0.64 c -6.98,2.73 -14.09,4.761 -20.58,5.301 -5.39,-3.421 -12.53,-4.29 -18.52,-7.11 l 0.399,-0.83 c 2.13,0.79 4.41,1.32 6.431,0.4 0.81,-0.37 1.51,-0.96 2.359,-1.25 1.7,-0.58 3.521,0.17 5.21,0.79 6.451,2.359 17.721,3.449 24.451,2.059"
   id="path309" />

				<path
   clip-path="url(#SVGID_32_)"
   fill="#909090"
   d="m 1081.05,904.5 -0.399,0.83 c -1.201,-0.561 -2.36,-1.2 -3.44,-1.96 -3.6,-2.51 -6.229,-6.15 -8.74,-9.76 -0.01,-0.021 -0.029,-0.04 -0.04,-0.061 l 0.07,-0.05 c -0.03,-1.41 5.63,-2.2 6.98,-2.59 8.5,-2.44 17.88,-3.83 25.989,-0.311 4.46,1.94 8.17,5.221 11.81,8.45 0.57,0.51 1.181,1.07 1.36,1.82 0.221,0.93 -0.27,1.86 -0.449,2.8 -0.19,0.94 4.35,2.78 5.31,2.83 -6.73,1.39 -18,0.3 -24.45,-2.06 -1.689,-0.62 -3.51,-1.37 -5.21,-0.79 -0.85,0.29 -1.55,0.88 -2.359,1.25 -2.022,0.922 -4.302,0.392 -6.432,-0.398"
   id="path311" />

				<path
   clip-path="url(#SVGID_32_)"
   fill="#b9b9b9"
   d="m 1112.27,786.03 c 2.511,4.83 2.16,10.84 -0.21,15.739 -0.22,0.461 -0.479,0.931 -0.92,1.2 -0.449,0.271 -1,0.28 -1.52,0.28 -4.829,0.01 -10.44,-0.449 -13.161,-4.44 -1.599,-2.34 -1.759,-5.42 -1.079,-8.159 0.661,-2.66 1.65,-9.271 2.99,-11.91 l 0.421,0.1 c 5.369,-0.9 10.959,2.36 13.479,7.19"
   id="path313" />

				<path
   clip-path="url(#SVGID_32_)"
   fill="#909090"
   d="m 1102.96,753.61 c 8.521,2.109 19.25,13.409 3.43,9.51 -0.43,-0.101 -0.63,0.689 -1.069,0.761 -0.45,0.079 -0.9,-0.15 -1.29,-0.411 -3.08,-2.109 -3.63,-7.08 -1.08,-9.819 z"
   id="path315" />

				<path
   clip-path="url(#SVGID_32_)"
   fill="#909090"
   d="m 1061.29,848.49 c 1.57,2.229 2.99,4.83 2.71,7.55 -0.24,2.229 -1.58,4.17 -2.97,5.929 -2.271,2.871 -4.78,5.551 -7.5,8 -1.44,-2.608 -2.8,-5.269 -4.091,-7.959 -2.609,-5.47 -4.869,-11.58 -4.93,-17.52 1.391,-2.07 9.03,-1.91 11.33,-0.971 2.311,0.941 4.021,2.931 5.451,4.971"
   id="path317" />

			</g>

		</g>

		<path
   clip-path="url(#SVGID_24_)"
   fill="none"
   stroke="#000000"
   stroke-miterlimit="10"
   d="m 1050.23,810.19 c 0.329,0.52 0.63,1.06 0.89,1.619 2.13,4.4 2.35,9.69 0.53,14.24 -1.49,3.72 -4.221,6.851 -5.73,10.561 -1.03,2.54 -1.45,5.189 -1.41,7.88 0.061,5.939 2.32,12.05 4.931,17.52 1.29,2.69 2.649,5.351 4.09,7.96 3.529,6.449 7.47,12.681 11.599,18.78 1.091,1.61 2.191,3.21 3.301,4.8 0.011,0.021 0.029,0.04 0.04,0.061 2.511,3.609 5.141,7.25 8.739,9.76 1.081,0.76 2.241,1.399 3.441,1.96 5.989,2.82 13.13,3.689 18.52,7.11 1.35,0.85 2.58,1.85 3.66,3.09 1.66,1.899 2.9,4.29 5.09,5.54 3.11,1.779 6.97,0.68 10.47,-0.09 14.9,-3.28 30.489,0.31 45.66,-1.4 2.431,-0.271 4.94,-0.72 6.94,-2.14 1.29,-0.91 2.3,-2.2 3.689,-2.971 2.54,-1.399 5.69,-0.75 8.561,-1.2 4.71,-0.739 8.35,-4.351 11.87,-7.56 5.43,-4.95 11.34,-9.4 16.819,-14.28 2.5,-2.229 4.9,-4.54 7.13,-7.04 7.12,-7.989 12.921,-20.3 11.44,-30.89"
   id="path323" />

		<path
   clip-path="url(#SVGID_24_)"
   fill="none"
   stroke="#000000"
   stroke-miterlimit="10"
   d="m 1230.5,853.5 c -4.29,-5.69 -8.27,-12.23 -11.47,-18.6 -1.61,-3.221 -3.101,-6.86 -2.181,-10.32 0.011,-0.04 0.021,-0.09 0.03,-0.13 0.47,-1.65 1.46,-3.101 2.34,-4.57 0.09,-0.149 0.181,-0.31 0.271,-0.49 1.479,-2.88 2.38,-8.409 2.939,-11.54 0.03,-0.119 0.051,-0.239 0.07,-0.35"
   id="path325" />

		<path
   clip-path="url(#SVGID_24_)"
   fill="none"
   stroke="#000000"
   stroke-miterlimit="10"
   d="m 1222.68,807.9 c 1.74,-4.92 1.511,-10.37 0.261,-15.44 -1.25,-5.081 -3.48,-9.85 -5.721,-14.57 -1.109,-2.33 -2.239,-4.68 -3.76,-6.779 -3.39,-4.65 -9.45,-10.051 -12.96,-14.61"
   id="path327" />

		<path
   clip-path="url(#SVGID_24_)"
   fill="none"
   stroke="#000000"
   stroke-miterlimit="10"
   d="m 1200.8,756.97 c -0.22,-0.12 -0.43,-0.239 -0.64,-0.359 -8.021,-4.851 -9.47,-17.03 -17.601,-21.92 -3.54,-2.131 -7.819,-2.53 -11.939,-2.87 -12.69,-1.061 -25.39,-5.061 -38.08,-6.17 -0.13,-0.021 -0.261,-0.03 -0.39,-0.04"
   id="path329" />

		<path
   clip-path="url(#SVGID_24_)"
   fill="none"
   stroke="#000000"
   stroke-miterlimit="10"
   d="m 1132.5,725.5 c -4.83,0.53 -11.39,1.4 -16.22,1.93 -1.99,0.21 -3.99,0.431 -5.88,1.061 -1.811,0.609 -3.5,4.58 -5.341,5.069 -4.62,1.24 -10.01,0.48 -14.56,1.94"
   id="path331" />

		<path
   clip-path="url(#SVGID_24_)"
   fill="none"
   stroke="#000000"
   stroke-miterlimit="10"
   d="m 1090.5,734.5 c -0.1,0.3 -0.2,0.6 -0.311,0.9 -2.18,6.449 -4.68,13.369 -8.56,18.899 -4.05,5.8 -10.17,10.55 -17.21,11.28 -3.21,0.33 -6.64,-0.14 -9.51,1.33 -4.01,2.06 -5.29,6.939 -5.91,11.53 -0.07,0.529 -0.13,1.06 -0.19,1.579"
   id="path333" />

		<path
   clip-path="url(#SVGID_24_)"
   fill="none"
   stroke="#000000"
   stroke-miterlimit="10"
   d="m 1048.24,784.14 c 3.1,8.9 6.1,18.53 3.45,27.57"
   id="path335" />

		<path
   clip-path="url(#SVGID_24_)"
   fill="none"
   stroke="#000000"
   stroke-miterlimit="10"
   d="m 1048.5,784.5 c -0.05,-0.12 -0.1,-0.26 -0.15,-0.4 -0.529,-1.64 -0.869,-4.34 -0.25,-5.77"
   id="path337" />

		
		
		
		
		
		
		
		
		
		
		
		
		
		
		
		
		
		
		
		
		
		
		
		
		
		
		
		
		
		
		
		
		
		
		
		
		
		
		
		
		
		
			
		
		
		
		
		
		
		
		
		
		
		
		
		
		
		
		
			
		
		
		
		
		
		
		
		
		
		
		<path
   clip-path="url(#SVGID_24_)"
   fill="#b9b9b9"
   d="m 1132,841.5 c 0,2.485 -3.582,4.5 -8,4.5 -4.418,0 -8,-2.015 -8,-4.5 0,-2.485 3.582,-4.5 8,-4.5 4.418,0 8,2.015 8,4.5"
   id="path613" />

		<path
   clip-path="url(#SVGID_24_)"
   fill="#b9b9b9"
   d="m 1207,809 c 0,3.313 -23.678,10 -35,10 -11.322,0 -6,-6.687 -6,-10 0,-3.313 9.178,-6 20.5,-6 11.322,0 20.5,2.688 20.5,6"
   id="path615" />

		<path
   clip-path="url(#SVGID_24_)"
   fill="#989898"
   d="m 1201,842 c 0,0.553 -32.335,8 -42,8 -9.665,0 7,-7.447 7,-8 0,-0.553 7.835,-1 17.5,-1 9.665,0 17.5,0.447 17.5,1"
   id="path617" />

		<path
   clip-path="url(#SVGID_24_)"
   fill="#989898"
   d="m 1094,841.5 c 0,2.485 -6.268,4.5 -14,4.5 -7.732,0 -14,-2.015 -14,-4.5 0,-2.485 21.268,-15.5 29,-15.5 7.732,0 -1,13.015 -1,15.5"
   id="path619" />

		<path
   clip-path="url(#SVGID_24_)"
   fill="#989898"
   d="m 1221,870.5 c 0,3.037 -62.85,7.5 -75,7.5 -12.15,0 19,-7.963 19,-11 0,-3.037 21.85,-2 34,-2 12.15,0 22,2.463 22,5.5"
   id="path621" />

		
		
		
		
		
		
		
		
		<path
   clip-path="url(#SVGID_24_)"
   fill="#b9b9b9"
   d="m 1186,896 c 0.939,0.579 3.121,6 -14,6 -17.121,0 -31,0.896 -31,2 0,1.104 -9.121,6 8,6 17.121,0 24,-22 37,-14"
   id="path639" />

		
		
		
		
		
		
		
		
		
		
		
		
		
		
		
		
		
		
		
		
		
			
		
		
		
		
		
		
		
		
		
		
		
		
		
		
		
		
		
		
		
		
		
		
		
		
		
		
		
		
		
		
			
		
		
		
		
		
		
		
		
		
		
		
		
		
		
		
			
		
			
		
			
		
		<path
   clip-path="url(#SVGID_24_)"
   d="m 0,1.5 c 1.93,0 1.934,-3 0,-3 -1.93,0 -1.934,3 0,3"
   id="path853" />

	</g>

</g>
  </g>
</svg>
