<?xml version="1.0" encoding="UTF-8" standalone="no"?>
<!-- Created with Inkscape (http://www.inkscape.org/) -->

<svg
   width="43.920879mm"
   height="43.061649mm"
   viewBox="0 0 43.920879 43.061649"
   version="1.1"
   id="svg5"
   sodipodi:docname="asteroid2.svg"
   inkscape:version="1.1 (c68e22c387, 2021-05-23)"
   xmlns:inkscape="http://www.inkscape.org/namespaces/inkscape"
   xmlns:sodipodi="http://sodipodi.sourceforge.net/DTD/sodipodi-0.dtd"
   xmlns:xlink="http://www.w3.org/1999/xlink"
   xmlns="http://www.w3.org/2000/svg"
   xmlns:svg="http://www.w3.org/2000/svg">
  <sodipodi:namedview
     id="namedview7"
     pagecolor="#505050"
     bordercolor="#ffffff"
     borderopacity="1"
     inkscape:pageshadow="0"
     inkscape:pageopacity="0"
     inkscape:pagecheckerboard="1"
     inkscape:document-units="mm"
     showgrid="false"
     inkscape:zoom="0.77771465"
     inkscape:cx="408.24742"
     inkscape:cy="-293.80956"
     inkscape:window-width="2560"
     inkscape:window-height="1387"
     inkscape:window-x="2552"
     inkscape:window-y="-8"
     inkscape:window-maximized="1"
     inkscape:current-layer="g855" />
  <defs
     id="defs2">
    <rect
       id="SVGID_1_"
       width="1920"
       height="1080"
       x="0"
       y="0" />
    <rect
       id="SVGID_3_"
       x="98"
       y="96"
       width="257.00101"
       height="261.60001" />
    <rect
       id="SVGID_5_"
       x="98"
       y="96"
       width="257"
       height="261.60001" />
    <rect
       id="SVGID_7_"
       x="35"
       y="118"
       width="110"
       height="230" />
    <rect
       id="SVGID_9_"
       x="1602"
       y="46"
       width="270"
       height="242.66701" />
    <rect
       id="SVGID_11_"
       x="1458"
       y="91"
       width="208"
       height="237.66701" />
    <rect
       id="SVGID_13_"
       x="634"
       y="127"
       width="159"
       height="153" />
    <rect
       id="SVGID_15_"
       x="634"
       y="127"
       width="159"
       height="153" />
    <rect
       id="SVGID_17_"
       x="499"
       y="106"
       width="172.231"
       height="200.60001" />
    <rect
       id="SVGID_19_"
       x="499"
       y="106"
       width="172.231"
       height="200.60001" />
    <rect
       id="SVGID_21_"
       x="821"
       y="48"
       width="230.27299"
       height="238.379" />
    <rect
       id="SVGID_23_"
       width="1920"
       height="1080"
       x="0"
       y="0" />
    <rect
       id="SVGID_25_"
       x="388.35001"
       y="322"
       width="155.653"
       height="186.69" />
    <rect
       id="SVGID_27_"
       x="388.35001"
       y="322"
       width="155.653"
       height="186.69" />
    <rect
       id="SVGID_29_"
       x="1044.51"
       y="725.5"
       width="186.22099"
       height="196.52901" />
    <rect
       id="SVGID_31_"
       x="1044.51"
       y="725.5"
       width="186.22099"
       height="196.52901" />
    <rect
       id="SVGID_33_"
       x="776.99799"
       y="756.99902"
       width="165.00301"
       height="161.75101" />
    <rect
       id="SVGID_35_"
       x="776.99799"
       y="756.99902"
       width="165.00301"
       height="161.75101" />
    <rect
       id="SVGID_37_"
       x="990.30902"
       y="311.51199"
       width="192.01199"
       height="233.53799" />
    <rect
       id="SVGID_39_"
       x="990.30902"
       y="311.51199"
       width="192.01199"
       height="233.53799" />
    <rect
       id="SVGID_41_"
       x="406.168"
       y="755"
       width="232.836"
       height="180.27299" />
    <rect
       id="SVGID_43_"
       x="406.168"
       y="755"
       width="232.836"
       height="180.27299" />
    <rect
       id="SVGID_45_"
       x="643.5"
       y="331.01999"
       width="259.41"
       height="205.48" />
    <rect
       id="SVGID_47_"
       x="643.5"
       y="331.01999"
       width="259.41"
       height="205.48" />
  </defs>
  <g
     inkscape:label="Layer 1"
     inkscape:groupmode="layer"
     id="layer1"
     transform="translate(-4.0694212,-234.5573)">
    <g
       id="g857"
       transform="matrix(0.26458333,0,0,0.26458333,-201.37896,34.400844)">
	<defs
   id="defs10">
		<rect
   id="rect888"
   width="1920"
   height="1080"
   x="0"
   y="0" />

	</defs>

	<clipPath
   id="SVGID_2_">
		<use
   xlink:href="#SVGID_1_"
   overflow="visible"
   id="use12"
   x="0"
   y="0"
   width="100%"
   height="100%" />

	</clipPath>

	
	
	
	
	
	
	
	<g
   clip-path="url(#SVGID_2_)"
   id="g855">
		<defs
   id="defs124">
			<rect
   id="rect967"
   width="1920"
   height="1080"
   x="0"
   y="0" />

		</defs>

		<clipPath
   id="SVGID_24_">
			<use
   xlink:href="#SVGID_23_"
   overflow="visible"
   id="use126"
   x="0"
   y="0"
   width="100%"
   height="100%" />

		</clipPath>

		
		
		
		
		
		
		
		
			
		
		
		
		
		
		
		
		
		
		
		
		
		
		
		
		
		
		
		
		
		
		
		
		
		
		
		
		
		
		
		
		
		
		
		
		
			
		
			
		
			
		
		
		
		
		
		
		
		
		
		
		
		
		
		<g
   clip-path="url(#SVGID_24_)"
   id="g375">
			<defs
   id="defs340">
				<rect
   id="rect1085"
   x="776.99799"
   y="756.99902"
   width="165.00301"
   height="161.75101" />

			</defs>

			<clipPath
   id="SVGID_34_">
				<use
   xlink:href="#SVGID_33_"
   overflow="visible"
   id="use342"
   x="0"
   y="0"
   width="100%"
   height="100%" />

			</clipPath>

			<g
   clip-path="url(#SVGID_34_)"
   id="g373">
				<defs
   id="defs346">
					<rect
   id="rect1090"
   x="776.99799"
   y="756.99902"
   width="165.00301"
   height="161.75101" />

				</defs>

				<clipPath
   id="SVGID_36_">
					<use
   xlink:href="#SVGID_35_"
   overflow="visible"
   id="use348"
   x="0"
   y="0"
   width="100%"
   height="100%" />

				</clipPath>

				<path
   clip-path="url(#SVGID_36_)"
   fill="#afafaf"
   d="m 867.854,865.269 c 0.311,1.53 0.594,6.803 0.906,7.991 -2.226,1.545 4.262,5.08 7.138,5.659 2.867,0.572 5.876,-0.958 7.347,-2.978 1.471,-2.028 1.754,-4.435 2.009,-6.759 -4.97,-2.696 -11.044,-4.1 -17.07,-3.951 z m 64.025,36.452 c -4.48,1.597 -9.27,1.544 -11.251,-1.724 l -0.066,-0.282 c -5.847,0.847 -10.421,4.404 -15.428,6.981 -4.989,2.563 -10.601,4.114 -16.429,4.761 -12.873,1.426 -26.783,-1.582 -37.204,-7.917 -3.329,-2.021 -6.724,-4.456 -10.921,-4.575 -2.338,-0.066 -4.63,0.616 -6.969,0.527 -6.799,-0.245 -10.308,-6.238 -13.448,-10.992 l 0.029,-0.015 c -0.142,-6.015 -1.67,-12.024 -4.49,-17.669 -0.49,-1.003 -1.027,-1.99 -1.603,-2.963 -3.178,-5.37 -7.676,-10.903 -6.253,-16.688 0.632,-2.533 2.368,-4.851 3.094,-7.375 0.679,-2.348 0.453,-4.776 0.198,-7.168 v -0.021 c -1.264,-11.987 -3.046,-23.945 -5.328,-35.851 -0.397,-2.058 -0.878,-4.113 -1.698,-6.09 l 0.519,-0.127 c 6.95,-3.839 12.835,-6.187 20.625,-8.853 2.942,-1.01 6.054,-1.946 9.261,-1.864 5.554,0.134 10.213,3.23 14.07,6.38 5.328,4.353 8.545,8.846 12.618,13.978 -1.508,3.498 -2.669,7.004 -3.102,10.354 -0.849,6.558 -0.245,14.104 6.167,18.33 4.896,3.223 11.78,3.572 17.711,5.414 7.809,2.429 14.09,7.717 16.645,14.007 0.859,2.117 1.434,4.486 3.574,5.935 1.292,0.876 2.981,1.277 4.641,1.597 5.884,1.144 5.856,3.416 11.901,3.053 l 0.292,-0.164 c 0.462,0.506 0.962,1.011 1.472,1.501 5.083,4.909 11.59,8.867 16.258,14.029 4.668,5.162 7.233,12.284 3.32,17.817 -1.679,2.376 -4.857,4.485 -8.205,5.674 m -77.228,-32.546 c 2.678,-3.558 1.575,-8.467 -2.103,-11.415 -3.678,-2.955 -9.478,-3.966 -14.58,-2.993 l -0.33,-0.074 c -0.745,2.852 -2.226,7.115 -1.848,10.012 0.377,2.904 2.055,5.845 5.205,7.383 4.461,2.175 10.968,0.638 13.656,-2.913 m -0.641,-57.559 c 0.141,-0.171 0.123,-0.387 0.094,-0.587 -0.17,-1.277 -0.575,-2.533 -1.207,-3.722 -0.123,-0.229 -0.264,-0.46 -0.519,-0.608 -0.226,-0.142 -0.518,-0.186 -0.801,-0.223 -2.16,-0.275 -4.376,-0.016 -6.479,0.453 -0.83,0.178 -1.67,0.4 -2.348,0.816 -0.878,0.521 -1.434,1.314 -1.84,2.117 -0.622,1.255 -0.952,2.592 -0.952,3.936 l 0.255,0.179 c 1.744,-1.158 4.159,-1.426 6.441,-1.493 2.273,-0.066 4.611,0.03 6.762,-0.571 0.226,-0.059 0.462,-0.142 0.594,-0.297"
   id="path351" />

				<path
   clip-path="url(#SVGID_36_)"
   fill="#909090"
   d="m 920.628,899.997 c 1.98,3.268 6.771,3.32 11.251,1.724 -1.764,6.32 -9.921,11.297 -17.372,14.021 -4.422,1.612 -9.1,3.119 -13.966,3.001 -4.735,-0.119 -10.214,-3.714 -11.836,-7.286 5.828,-0.646 11.44,-2.198 16.428,-4.761 5.008,-2.577 9.582,-6.135 15.429,-6.981 z"
   id="path353" />

				<path
   clip-path="url(#SVGID_36_)"
   fill="#9d9d9d"
   d="m 869.561,788.116 c 0.047,-0.089 0.095,-0.178 0.142,-0.267 16.117,6.922 26.962,22.132 31.498,36.14 4.338,13.398 7.432,27.688 17.834,38.709 l -0.293,0.164 c -6.045,0.363 -6.016,-1.909 -11.901,-3.053 -1.66,-0.319 -3.348,-0.721 -4.64,-1.597 -2.141,-1.448 -2.716,-3.817 -3.575,-5.935 -2.555,-6.29 -8.836,-11.578 -16.645,-14.007 -5.931,-1.842 -12.816,-2.191 -17.711,-5.414 -6.412,-4.227 -7.016,-11.772 -6.167,-18.33 0.434,-3.35 1.594,-6.855 3.103,-10.354 2.395,-5.561 5.676,-11.116 8.355,-16.056"
   id="path355" />

				<path
   clip-path="url(#SVGID_36_)"
   fill="#9d9d9d"
   d="m 885.253,869.183 c -0.254,2.324 -0.538,4.73 -2.009,6.759 -1.471,2.02 -4.479,3.55 -7.346,2.978 -2.876,-0.579 -9.365,-4.114 -7.139,-5.659 -0.312,-1.188 -0.594,-6.461 -0.905,-7.991 l 0.33,-0.037 c 6.026,-0.15 12.099,1.253 17.069,3.95"
   id="path357" />

				<path
   clip-path="url(#SVGID_36_)"
   fill="#909090"
   d="m 811.846,784.314 c -0.095,0.676 -1.236,-1.04 -2.113,-1.174 -0.764,-0.111 -1.537,-0.06 -2.311,0.022 l 0.038,0.23 c -0.745,0.616 -1.442,1.923 -1.15,2.747 0.311,0.899 0.924,1.932 2.103,2.051 0.877,0.081 1.726,-0.364 2.282,-0.906 0.829,-0.816 1.121,-2.777 1.151,-2.97 m 57.715,3.802 c -2.678,4.939 -5.96,10.495 -8.355,16.058 -4.074,-5.132 -7.291,-9.625 -12.619,-13.978 -3.857,-3.149 -8.516,-6.246 -14.07,-6.38 -3.206,-0.082 -6.319,0.854 -9.261,1.864 -7.79,2.666 -13.674,5.014 -20.625,8.853 l -0.519,0.127 c -0.537,-1.314 -1.216,-2.593 -2.122,-3.796 -3.602,-4.805 -11.779,-8.867 -19.531,-10.078 9.148,-7.538 21.276,-16.228 31.706,-22.853 1.264,0.06 2.5,0.126 3.669,0.208 8.261,0.683 15.966,2.384 23.784,4.59 2.358,0.668 4.763,1.44 6.46,2.889 1.915,1.627 2.66,3.877 3.631,5.957 3.225,6.937 9.675,12.915 17.852,16.539"
   id="path359" />

				<path
   clip-path="url(#SVGID_36_)"
   fill="#9d9d9d"
   d="m 852.548,857.76 c 3.678,2.948 4.781,7.857 2.103,11.415 -2.688,3.551 -9.195,5.088 -13.656,2.912 -3.15,-1.538 -4.828,-4.479 -5.205,-7.383 -0.378,-2.896 1.103,-7.16 1.848,-10.012 l 0.33,0.074 c 5.102,-0.972 10.902,0.038 14.58,2.994"
   id="path361" />

				<path
   clip-path="url(#SVGID_36_)"
   fill="#9d9d9d"
   d="m 854.104,811.029 c 0.028,0.2 0.047,0.416 -0.094,0.587 -0.133,0.155 -0.368,0.237 -0.594,0.297 -2.151,0.602 -4.49,0.505 -6.762,0.571 -2.282,0.067 -4.697,0.335 -6.442,1.493 l -0.254,-0.179 c 0,-1.344 0.33,-2.681 0.952,-3.936 0.406,-0.803 0.962,-1.597 1.84,-2.117 0.678,-0.416 1.518,-0.639 2.348,-0.816 2.103,-0.469 4.319,-0.729 6.479,-0.453 0.282,0.037 0.575,0.081 0.801,0.223 0.255,0.148 0.396,0.379 0.519,0.608 0.632,1.189 1.037,2.445 1.207,3.722"
   id="path363" />

				<path
   clip-path="url(#SVGID_36_)"
   fill="#909090"
   d="m 820.191,888.485 -0.028,0.015 c -0.01,-0.007 -0.01,-0.022 -0.019,-0.029 -6.281,-9.544 -16.834,-17.306 -29.358,-21.576 -2.961,-1.017 -6.12,-1.886 -8.422,-3.669 -2.414,-1.871 -3.583,-4.53 -4.253,-7.151 -2.838,-11.022 2.188,-23.091 12.76,-30.651 1.245,-0.899 2.64,-1.82 3.018,-3.12 0.339,-1.172 -0.236,-2.384 -0.84,-3.49 -3.3,-6.009 -10.175,-14.23 -15.768,-19.08 l 0.226,-0.29 c -0.867,-6.327 -0.622,-12.744 0.698,-19.02 h 0.019 c 1.377,0.015 2.801,0.141 4.235,0.363 7.752,1.211 15.928,5.273 19.53,10.078 0.906,1.203 1.585,2.481 2.122,3.796 0.821,1.976 1.302,4.032 1.698,6.09 2.282,11.905 4.065,23.863 5.328,35.851 v 0.021 l -1.32,0.082 c -3.159,-0.46 -6.318,1.248 -7.95,3.476 -1.632,2.236 -2.047,4.888 -2.358,7.465 -0.226,1.774 -0.415,3.564 -0.066,5.325 0.359,1.812 1.283,3.513 2.188,5.191 2.047,3.804 10.421,9.454 14.071,12.655 2.82,5.644 4.347,11.653 4.489,17.668"
   id="path365" />

				<path
   clip-path="url(#SVGID_36_)"
   fill="#afafaf"
   d="m 814.099,867.854 c 0.575,0.973 1.113,1.96 1.603,2.963 -3.65,-3.201 -12.024,-8.853 -14.071,-12.655 -0.905,-1.679 -1.829,-3.38 -2.187,-5.191 -0.349,-1.761 -0.161,-3.551 0.066,-5.325 0.311,-2.577 0.726,-5.229 2.357,-7.465 1.632,-2.228 4.791,-3.936 7.95,-3.476 l 1.321,-0.082 c 0.254,2.392 0.481,4.82 -0.199,7.168 -0.726,2.524 -2.461,4.842 -3.093,7.375 -1.424,5.784 3.075,11.317 6.253,16.688"
   id="path367" />

				<path
   clip-path="url(#SVGID_36_)"
   fill="#afafaf"
   d="m 809.732,783.141 c 0.877,0.134 2.018,1.85 2.113,1.174 -0.029,0.192 -0.321,2.153 -1.151,2.971 -0.556,0.542 -1.405,0.987 -2.282,0.906 -1.179,-0.119 -1.792,-1.151 -2.103,-2.051 -0.292,-0.824 0.405,-2.131 1.151,-2.747 l -0.039,-0.231 c 0.774,-0.082 1.547,-0.134 2.311,-0.022"
   id="path369" />

				<path
   clip-path="url(#SVGID_36_)"
   fill="#afafaf"
   d="m 792.776,757.057 c 6.394,0.424 14.476,0.55 21.389,0.877 -10.431,6.625 -22.558,15.314 -31.706,22.852 -1.434,-0.222 -2.858,-0.348 -4.235,-0.363 h -0.019 c 1.519,-7.204 4.433,-14.229 8.676,-20.721 0.623,-0.951 1.349,-1.953 2.584,-2.406 1.019,-0.38 2.188,-0.314 3.311,-0.239"
   id="path371" />

			</g>

		</g>

		<path
   clip-path="url(#SVGID_24_)"
   fill="none"
   stroke="#000000"
   stroke-miterlimit="10"
   d="m 777.282,799.732 c 5.592,4.85 12.467,13.071 15.768,19.08 0.604,1.106 1.179,2.316 0.839,3.49 -0.377,1.3 -1.773,2.221 -3.018,3.12 -10.571,7.561 -15.598,19.629 -12.759,30.651 0.67,2.621 1.839,5.28 4.253,7.151 2.301,1.783 5.46,2.652 8.421,3.669 12.524,4.271 23.078,12.032 29.358,21.576 0.01,0.007 0.01,0.022 0.019,0.029 3.14,4.753 6.649,10.747 13.448,10.992 2.339,0.089 4.631,-0.594 6.969,-0.527 4.197,0.119 7.592,2.555 10.921,4.575 10.421,6.335 24.331,9.343 37.204,7.917 5.828,-0.646 11.44,-2.198 16.429,-4.761 5.007,-2.577 9.581,-6.135 15.428,-6.981 0.141,-0.022 0.283,-0.045 0.425,-0.06"
   id="path377" />

		<path
   clip-path="url(#SVGID_24_)"
   fill="none"
   stroke="#000000"
   stroke-miterlimit="10"
   d="m 888.563,911.138 c 0.038,0.104 0.085,0.216 0.142,0.319 1.622,3.572 7.101,7.167 11.835,7.286 4.866,0.118 9.544,-1.389 13.967,-3.001 7.45,-2.726 15.608,-7.701 17.371,-14.021 0.029,-0.082 0.047,-0.156 0.066,-0.238"
   id="path379" />

		<path
   clip-path="url(#SVGID_24_)"
   fill="none"
   stroke="#000000"
   stroke-miterlimit="10"
   d="m 920.628,899.997 c 1.98,3.268 6.771,3.32 11.251,1.724 3.348,-1.188 6.526,-3.298 8.205,-5.675 3.913,-5.533 1.348,-12.655 -3.32,-17.817 -4.668,-5.162 -11.176,-9.12 -16.259,-14.029 -0.509,-0.49 -1.009,-0.995 -1.471,-1.501 -10.402,-11.021 -13.495,-25.311 -17.833,-38.709 -4.536,-14.008 -15.382,-29.218 -31.499,-36.14"
   id="path381" />

		<path
   clip-path="url(#SVGID_24_)"
   fill="none"
   stroke="#000000"
   stroke-miterlimit="10"
   d="m 869.636,788.154 c -0.028,-0.016 -0.047,-0.021 -0.076,-0.038 -8.176,-3.624 -14.627,-9.603 -17.852,-16.539 -0.971,-2.08 -1.716,-4.33 -3.631,-5.957 -1.697,-1.448 -4.102,-2.221 -6.46,-2.889 -7.817,-2.206 -15.523,-3.907 -23.784,-4.59"
   id="path383" />

		<path
   clip-path="url(#SVGID_24_)"
   fill="none"
   stroke="#000000"
   stroke-miterlimit="10"
   d="m 817.833,758.142 c -1.169,-0.082 -2.405,-0.148 -3.668,-0.208 -6.913,-0.327 -14.995,-0.453 -21.389,-0.877 -1.123,-0.074 -2.292,-0.141 -3.311,0.238 -1.235,0.453 -1.961,1.455 -2.584,2.406 -4.243,6.491 -7.157,13.517 -8.676,20.721 -1.32,6.276 -1.565,12.693 -0.698,19.021"
   id="path385" />

		
		
		
		
		
		
		
		
		
		
		
		
		
		
		
		
		
		
		
		
		
		
		
		
		
		
		
		
		
		
		
		
		
		
		
		
			
		
		
		
		
		
		
		
		
		
		
		
		
		
		
		
		
			
		
		
		
		
		
		
		
		
		
		
		
		
		
		
		
		<path
   clip-path="url(#SVGID_24_)"
   fill="#b9b9b9"
   d="m 854.142,842.438 c 0,1.641 -4.011,2.971 -8.959,2.971 -4.948,0 -8.959,-1.33 -8.959,-2.971 0,-1.641 4.011,-2.971 8.959,-2.971 4.947,0 8.959,1.33 8.959,2.971"
   id="path623" />

		<path
   clip-path="url(#SVGID_24_)"
   fill="#b9b9b9"
   d="m 927.701,879.944 c -0.231,17.932 -6.933,30.598 -14.617,6.312 -1.952,-6.168 -14.618,-2.825 -14.618,-6.312 0,-3.487 6.545,-6.313 14.618,-6.313 8.073,0 14.662,2.827 14.617,6.313"
   id="path625" />

		<path
   clip-path="url(#SVGID_24_)"
   fill="#b9b9b9"
   d="m 832.451,883.286 c 0,15.792 -7.136,-26.737 -8.959,-26.737 -1.823,0 -3.301,-12.802 -3.301,-28.594 0,-15.792 1.478,-28.594 3.301,-28.594 1.823,0 8.959,68.133 8.959,83.925"
   id="path627" />

		<path
   clip-path="url(#SVGID_24_)"
   fill="#b9b9b9"
   d="m 888.092,897.026 c 0,2.666 -10.767,4.827 -24.048,4.827 -13.282,0 -24.049,-2.161 -24.049,-4.827 0,-2.666 15.011,-10.026 28.292,-10.026 13.282,0 19.805,7.36 19.805,10.026"
   id="path629" />

		<path
   clip-path="url(#SVGID_24_)"
   fill="#b9b9b9"
   d="m 804.159,797.505 c 0,4.717 3.16,24.138 -2.83,24.138 -5.989,0 -18.861,-19.421 -18.861,-24.138 0,-4.718 4.856,-8.542 10.846,-8.542 5.989,0 10.845,3.824 10.845,8.542"
   id="path631" />

		<path
   clip-path="url(#SVGID_24_)"
   fill="#b9b9b9"
   d="m 894.693,818.672 c 0,6.973 -4.011,12.625 -8.959,12.625 -4.948,0 -8.959,-5.652 -8.959,-12.625 0,-6.974 4.011,-12.626 8.959,-12.626 4.948,0 8.959,5.652 8.959,12.626"
   id="path633" />

		<path
   clip-path="url(#SVGID_24_)"
   fill="#b9b9b9"
   d="m 794.729,850.979 c 0,4.718 -2.322,8.541 -5.187,8.541 -2.865,0 -5.187,-3.823 -5.187,-8.541 0,-4.717 14.111,-17.453 16.975,-17.453 2.864,-10e-4 -6.601,12.736 -6.601,17.453"
   id="path635" />

		<path
   clip-path="url(#SVGID_24_)"
   fill="#b9b9b9"
   d="m 804.159,779.309 c 0,4.307 11.021,-0.743 14.146,-0.743 3.125,0 14.146,-9.062 14.146,-13.368 0,-4.308 -11.021,-2.229 -14.146,-2.229 -3.125,0 -14.146,12.032 -14.146,16.34"
   id="path637" />

		
		
		
		
		
		
		
		
		
		
		
		
		
		
		
		
		
		
		
		
		
		
			
		
		
		
		
		
		
		
		
		
		
		
		
		
		
		
		
		
		
		
		
		
		
		
		
		
		
		
		
		
		
			
		
		
		
		
		
		
		
		
		
		
		
		
		
		
		
			
		
			
		
			
		
		<path
   clip-path="url(#SVGID_24_)"
   d="m 0,1.5 c 1.93,0 1.934,-3 0,-3 -1.93,0 -1.934,3 0,3"
   id="path853" />

	</g>

</g>
  </g>
</svg>
