<?xml version="1.0" encoding="UTF-8" standalone="no"?>
<!-- Created with Inkscape (http://www.inkscape.org/) -->

<svg
   width="61.869076mm"
   height="47.961914mm"
   viewBox="0 0 61.869076 47.961914"
   version="1.1"
   id="svg5"
   sodipodi:docname="asteroid1.svg"
   inkscape:version="1.1 (c68e22c387, 2021-05-23)"
   xmlns:inkscape="http://www.inkscape.org/namespaces/inkscape"
   xmlns:sodipodi="http://sodipodi.sourceforge.net/DTD/sodipodi-0.dtd"
   xmlns:xlink="http://www.w3.org/1999/xlink"
   xmlns="http://www.w3.org/2000/svg"
   xmlns:svg="http://www.w3.org/2000/svg">
  <sodipodi:namedview
     id="namedview7"
     pagecolor="#505050"
     bordercolor="#ffffff"
     borderopacity="1"
     inkscape:pageshadow="0"
     inkscape:pageopacity="0"
     inkscape:pagecheckerboard="1"
     inkscape:document-units="mm"
     showgrid="false"
     inkscape:zoom="0.77771465"
     inkscape:cx="782.42065"
     inkscape:cy="17.358552"
     inkscape:window-width="2560"
     inkscape:window-height="1387"
     inkscape:window-x="2552"
     inkscape:window-y="-8"
     inkscape:window-maximized="1"
     inkscape:current-layer="g855" />
  <defs
     id="defs2">
    <rect
       id="SVGID_1_"
       width="1920"
       height="1080"
       x="0"
       y="0" />
    <rect
       id="SVGID_3_"
       x="98"
       y="96"
       width="257.00101"
       height="261.60001" />
    <rect
       id="SVGID_5_"
       x="98"
       y="96"
       width="257"
       height="261.60001" />
    <rect
       id="SVGID_7_"
       x="35"
       y="118"
       width="110"
       height="230" />
    <rect
       id="SVGID_9_"
       x="1602"
       y="46"
       width="270"
       height="242.66701" />
    <rect
       id="SVGID_11_"
       x="1458"
       y="91"
       width="208"
       height="237.66701" />
    <rect
       id="SVGID_13_"
       x="634"
       y="127"
       width="159"
       height="153" />
    <rect
       id="SVGID_15_"
       x="634"
       y="127"
       width="159"
       height="153" />
    <rect
       id="SVGID_17_"
       x="499"
       y="106"
       width="172.231"
       height="200.60001" />
    <rect
       id="SVGID_19_"
       x="499"
       y="106"
       width="172.231"
       height="200.60001" />
    <rect
       id="SVGID_21_"
       x="821"
       y="48"
       width="230.27299"
       height="238.379" />
    <rect
       id="SVGID_23_"
       width="1920"
       height="1080"
       x="0"
       y="0" />
    <rect
       id="SVGID_25_"
       x="388.35001"
       y="322"
       width="155.653"
       height="186.69" />
    <rect
       id="SVGID_27_"
       x="388.35001"
       y="322"
       width="155.653"
       height="186.69" />
    <rect
       id="SVGID_29_"
       x="1044.51"
       y="725.5"
       width="186.22099"
       height="196.52901" />
    <rect
       id="SVGID_31_"
       x="1044.51"
       y="725.5"
       width="186.22099"
       height="196.52901" />
    <rect
       id="SVGID_33_"
       x="776.99799"
       y="756.99902"
       width="165.00301"
       height="161.75101" />
    <rect
       id="SVGID_35_"
       x="776.99799"
       y="756.99902"
       width="165.00301"
       height="161.75101" />
    <rect
       id="SVGID_37_"
       x="990.30902"
       y="311.51199"
       width="192.01199"
       height="233.53799" />
    <rect
       id="SVGID_39_"
       x="990.30902"
       y="311.51199"
       width="192.01199"
       height="233.53799" />
    <rect
       id="SVGID_41_"
       x="406.168"
       y="755"
       width="232.836"
       height="180.27299" />
    <rect
       id="SVGID_43_"
       x="406.168"
       y="755"
       width="232.836"
       height="180.27299" />
    <rect
       id="SVGID_45_"
       x="643.5"
       y="331.01999"
       width="259.41"
       height="205.48" />
    <rect
       id="SVGID_47_"
       x="643.5"
       y="331.01999"
       width="259.41"
       height="205.48" />
  </defs>
  <g
     inkscape:label="Layer 1"
     inkscape:groupmode="layer"
     id="layer1"
     transform="translate(94.04598,-234.029)">
    <g
       id="g857"
       transform="matrix(0.26458333,0,0,0.26458333,-201.37896,34.400844)">
	<defs
   id="defs10">
		<rect
   id="rect888"
   width="1920"
   height="1080"
   x="0"
   y="0" />

	</defs>

	<clipPath
   id="SVGID_2_">
		<use
   xlink:href="#SVGID_1_"
   overflow="visible"
   id="use12"
   x="0"
   y="0"
   width="100%"
   height="100%" />

	</clipPath>

	
	
	
	
	
	
	
	<g
   clip-path="url(#SVGID_2_)"
   id="g855">
		<defs
   id="defs124">
			<rect
   id="rect967"
   width="1920"
   height="1080"
   x="0"
   y="0" />

		</defs>

		<clipPath
   id="SVGID_24_">
			<use
   xlink:href="#SVGID_23_"
   overflow="visible"
   id="use126"
   x="0"
   y="0"
   width="100%"
   height="100%" />

		</clipPath>

		
		
		
		
		
		
		
		
			
		
		
		
		
		
		
		
		
		
		
		
		
		
		
		
		
		
		
		
		
		
		
		
		
		
		
		
		
		
		
		
		
		
		
		
		
			
		
			
		
			
		
		
		
		
		
		
		
		
		
		
		
		
		
		
		
		
		
		
		
		
		
		
		
		
		
		
		
		
		
		
		
		
		
		
		
		
		
		
		
		
		
		
		
		
		
		
		
		
		
		
		
		
		
		
		
			
		
		
		
		
		
		
		
		
		
		
		
		
		
		
		
		
			
		
		
		<g
   clip-path="url(#SVGID_24_)"
   id="g597">
			<defs
   id="defs564">
				<rect
   id="rect1205"
   x="406.168"
   y="755"
   width="232.836"
   height="180.27299" />

			</defs>

			<clipPath
   id="SVGID_42_">
				<use
   xlink:href="#SVGID_41_"
   overflow="visible"
   id="use566"
   x="0"
   y="0"
   width="100%"
   height="100%" />

			</clipPath>

			<g
   clip-path="url(#SVGID_42_)"
   id="g595">
				<defs
   id="defs570">
					<rect
   id="rect1210"
   x="406.168"
   y="755"
   width="232.836"
   height="180.27299" />

				</defs>

				<clipPath
   id="SVGID_44_">
					<use
   xlink:href="#SVGID_43_"
   overflow="visible"
   id="use572"
   x="0"
   y="0"
   width="100%"
   height="100%" />

				</clipPath>

				<path
   clip-path="url(#SVGID_44_)"
   fill="#989898"
   d="m 630.15,834.1 c -4.92,3.881 -30.53,-22.17 -37.26,-21.1 -22.02,3.5 -44.48,-0.64 -66.52,-4.01 -6.42,-0.98 -13.04,-1.88 -19.35,-0.42 -6.55,1.52 -12.17,5.46 -17.24,9.699 -17.14,14.33 -30,32.811 -47.22,47.07 -9.89,8.19 -21.14,14.91 -33.22,19.811 l -2.47,-0.391 c 1.4,-8.13 4.7,-16.069 8.36,-23.609 5.3,-10.96 11.48,-21.71 14.11,-33.5 2.57,-11.53 1.19,-24.58 -6.87,-33.48 l 2.32,-0.46 c 3.25,-11.69 10.95,-22.21 21.35,-29.19 10.4,-6.971 23.43,-10.34 36.12,-9.35 4.74,0.37 9.39,1.33 14.06,2.17 39.1,7.07 79.39,6.49 118.93,2.12 2,-0.22 4.07,-0.44 5.99,0.13 1.92,0.57 3.65,2.18 3.62,4.09 l 1.41,0.82 c 6.09,11.97 11.9,24.47 12.65,37.75 0.63,11.19 -2.37,22.11 -6.43,32.74 z m -96.73,-35.92 0.08,0.32 c -0.07,2.83 3.49,6.31 4.65,8.92 3.18,-1.439 8.04,3.42 8.35,0.08 0.06,-0.68 3.88,-4.68 4,-4 2.08,11.33 41.7,12.03 39,4 -0.91,-2.69 -51.19,-10.78 -56.08,-9.32 m 92.53,4.55 c 0.08,-6 -2.94,-11.98 -7.93,-15.671 -1.44,-1.069 -3.24,-1.979 -5.01,-1.6 -2.05,0.45 -3.25,2.41 -4.21,4.19 l 0.85,0.92 c -2.72,3.08 -4.41,6.96 -4.95,10.949 -0.66,4.91 0.36,9.961 2.5,14.471 0.68,1.43 1.56,2.89 3.01,3.63 2.34,1.189 5.25,0.08 7.38,-1.41 5.09,-3.569 8.28,-9.469 8.36,-15.479 m -38.38,-20.84 c 0.69,-2.81 -0.16,-6.14 -2.72,-7.689 -2.14,-1.3 -5.13,-1.04 -7.14,0.43 -2.01,1.48 -3.03,4 -2.82,6.4 l 0.3,0.979 c -0.34,2.23 -0.23,4.53 0.33,6.73 0.26,0.979 0.65,2.01 1.53,2.58 1.9,1.229 4.36,-0.45 5.88,-2.07 2.02,-2.16 3.95,-4.55 4.64,-7.36 m -105.24,-0.57 c 0.32,-3.15 -0.69,-6.551 -3.24,-8.58 -1.03,-0.811 -2.35,-1.4 -3.68,-1.25 -1.5,0.18 -2.71,1.24 -3.68,2.34 -0.8,0.91 -1.51,1.88 -2.12,2.91 l -1.54,-0.55 c -3.95,4.689 -5.2,11.3 -3.22,17 0.63,1.829 1.82,3.75 3.81,4.17 1.3,0.27 2.66,-0.19 3.82,-0.82 2.69,-1.5 4.65,-3.94 6.29,-6.46 1.75,-2.69 3.24,-5.62 3.56,-8.76"
   id="path575" />

				<path
   clip-path="url(#SVGID_44_)"
   fill="#afafaf"
   d="m 427.77,890.49 2.42,0.899 c -1.79,1.011 -2.91,3.061 -3.53,5.03 -0.99,3.21 -1.23,6.6 -0.94,9.93 0.19,2.15 0.6,4.32 1.7,6.2 1.09,1.88 2.95,3.45 5.18,3.83 2.42,0.41 4.93,-0.63 6.7,-2.25 1.77,-1.62 2.92,-3.75 3.9,-5.89 1.29,-2.811 2.35,-5.771 2.48,-8.84 0.13,-3.061 -0.77,-6.261 -2.98,-8.49 -2.87,-2.891 -7.68,-3.68 -11.58,-2.271 -1.22,0.442 -2.35,1.072 -3.35,1.852 m 24.98,34.48 c -0.84,-0.17 -1.64,-0.42 -2.4,-0.779 l -0.19,0.38 c -11.41,-1.92 -22.16,6.189 -33.74,6.66 -1.75,-6.011 -5.07,-13.761 -6.77,-19.721 -1.47,-5.14 -2.95,-10.31 -3.36,-15.62 -0.29,-3.739 -0.05,-7.46 0.58,-11.13 l 2.47,0.391 c 12.08,-4.9 23.33,-11.62 33.22,-19.811 17.22,-14.26 30.08,-32.74 47.22,-47.07 5.07,-4.239 10.69,-8.18 17.24,-9.699 6.31,-1.46 12.93,-0.561 19.35,0.42 22.04,3.37 44.5,7.51 66.52,4.01 6.73,-1.07 32.34,24.98 37.26,21.1 l 2.34,0.891 c -1.74,4.58 -3.69,9.1 -5.62,13.569 -0.16,0.381 -0.33,0.761 -0.49,1.141 -9.23,2.41 -18.57,4.37 -28,5.88 -8.98,1.439 -19.17,2.18 -26.23,-3.28 -4.12,-3.189 -6.47,-8.04 -10.45,-11.38 -7.28,-6.14 -19.03,-5.82 -27.18,-0.75 -8.15,5.061 -13,13.93 -14.94,22.99 -1.24,5.83 -1.44,11.83 -2.83,17.62 -2.82,11.729 -10.57,22.12 -20.56,29.529 -9.98,7.41 -22.1,11.971 -34.53,14.32 -2.9,0.539 -6.08,0.919 -8.91,0.339 m 15.11,-59.89 2.75,1.15 c -3.44,4.359 -3.05,11.039 0.88,15.01 1.53,1.55 4.04,2.72 5.97,1.64 1.1,-0.61 1.7,-1.79 2.12,-2.93 1.27,-3.45 1.49,-7.24 0.62,-10.8 -0.49,-2.04 -1.42,-4.101 -3.21,-5.311 -2.58,-1.76 -6.42,-1.17 -8.74,0.87 -0.13,0.121 -0.26,0.241 -0.39,0.371"
   id="path577" />

				<path
   clip-path="url(#SVGID_44_)"
   fill="#b9b9b9"
   d="m 609.65,790.57 -0.85,-0.92 c 0.96,-1.78 2.16,-3.74 4.21,-4.19 1.77,-0.38 3.57,0.53 5.01,1.6 4.99,3.69 8.01,9.671 7.93,15.671 -0.08,6.01 -3.27,11.909 -8.36,15.479 -2.13,1.49 -5.04,2.6 -7.38,1.41 -1.45,-0.74 -2.33,-2.2 -3.01,-3.63 -2.14,-4.51 -3.16,-9.561 -2.5,-14.471 0.54,-3.989 2.23,-7.869 4.95,-10.949"
   id="path579" />

				<path
   clip-path="url(#SVGID_44_)"
   fill="#9d9d9d"
   d="m 618.19,863.75 c 4.05,8.95 5.9,18.8 5.35,28.53 -0.23,4.18 -1.31,8.93 -5.18,10.938 v 0.102 c -14.33,-0.15 -28.65,-0.311 -42.98,-0.471 -3.81,-0.04 -7.71,-0.069 -11.35,1.04 -14.43,4.42 -18.14,23.92 -32.11,29.521 -4.83,1.939 -10.25,1.91 -15.49,1.84 -11.9,-0.14 -23.8,-0.29 -35.71,-0.43 -4.98,-0.061 -10.04,-0.13 -14.81,-1.49 -5.13,-1.46 -9.78,-4.42 -13.16,-8.361 2.83,0.581 6.01,0.201 8.91,-0.339 12.43,-2.35 24.55,-6.911 34.53,-14.32 9.99,-7.409 17.74,-17.8 20.56,-29.529 1.39,-5.79 1.59,-11.79 2.83,-17.62 1.94,-9.061 6.79,-17.93 14.94,-22.99 8.15,-5.07 19.9,-5.39 27.18,0.75 3.98,3.34 6.33,8.19 10.45,11.38 7.06,5.46 17.25,4.72 26.23,3.28 9.43,-1.51 18.77,-3.47 28,-5.88 -2.17,4.979 -4.49,9.99 -8.19,14.04 0.01,-10e-4 0,0.009 0,0.009 m -55.09,19.49 c -2.02,3.479 -3.62,7.189 -4.74,11.01 -0.35,1.18 -0.64,2.48 -0.08,3.58 1.09,2.15 4.41,1.939 6.74,1.05 5.9,-2.229 10.8,-6.74 13.35,-12.25 0.42,-0.911 0.78,-1.89 0.66,-2.88 -0.24,-1.86 -2.21,-3.17 -4.18,-3.39 -1.96,-0.23 -3.91,0.38 -5.79,0.979 -1.99,0.641 -3.98,1.261 -5.96,1.901"
   id="path581" />

				<path
   clip-path="url(#SVGID_44_)"
   fill="#b9b9b9"
   d="m 589.5,807.5 c 2.7,8.03 -36.92,7.33 -39,-4 -0.12,-0.68 -3.94,3.32 -4,4 -0.31,3.34 -5.17,-1.52 -8.35,-0.08 -1.16,-2.61 -4.72,-6.09 -4.65,-8.92 l -0.08,-0.32 c 4.89,-1.46 55.17,6.63 56.08,9.32"
   id="path583" />

				<path
   clip-path="url(#SVGID_44_)"
   fill="#b9b9b9"
   d="m 584.85,774.2 c 2.56,1.55 3.41,4.88 2.72,7.689 -0.69,2.811 -2.62,5.2 -4.64,7.36 -1.52,1.62 -3.98,3.3 -5.88,2.07 -0.88,-0.57 -1.27,-1.6 -1.53,-2.58 -0.56,-2.2 -0.67,-4.5 -0.33,-6.73 l -0.3,-0.979 c -0.21,-2.4 0.81,-4.92 2.82,-6.4 2.01,-1.47 5,-1.73 7.14,-0.43"
   id="path585" />

				<path
   clip-path="url(#SVGID_44_)"
   fill="#b9b9b9"
   d="m 579.03,883.75 c 0.12,0.99 -0.24,1.97 -0.66,2.88 -2.55,5.51 -7.45,10.021 -13.35,12.25 -2.33,0.89 -5.65,1.101 -6.74,-1.05 -0.56,-1.1 -0.27,-2.4 0.08,-3.58 1.12,-3.82 2.72,-7.53 4.74,-11.01 1.98,-0.641 3.97,-1.26 5.96,-1.9 1.88,-0.6 3.83,-1.21 5.79,-0.979 1.97,0.219 3.94,1.529 4.18,3.389"
   id="path587" />

				<path
   clip-path="url(#SVGID_44_)"
   fill="#b9b9b9"
   d="m 469.61,776.74 c 0.61,-1.03 1.32,-2 2.12,-2.91 0.97,-1.1 2.18,-2.16 3.68,-2.34 1.33,-0.15 2.65,0.439 3.68,1.25 2.55,2.029 3.56,5.43 3.24,8.58 -0.32,3.14 -1.81,6.069 -3.56,8.76 -1.64,2.52 -3.6,4.96 -6.29,6.46 -1.16,0.63 -2.52,1.09 -3.82,0.82 -1.99,-0.42 -3.18,-2.341 -3.81,-4.17 -1.98,-5.7 -0.73,-12.311 3.22,-17 z"
   id="path589" />

				<path
   clip-path="url(#SVGID_44_)"
   fill="#b9b9b9"
   d="m 480.2,869.15 c 0.87,3.56 0.65,7.35 -0.62,10.8 -0.42,1.14 -1.02,2.319 -2.12,2.93 -1.93,1.08 -4.44,-0.09 -5.97,-1.64 -3.93,-3.971 -4.32,-10.65 -0.88,-15.01 l -2.75,-1.15 c 0.13,-0.13 0.26,-0.25 0.39,-0.37 2.32,-2.04 6.16,-2.63 8.74,-0.87 1.79,1.21 2.72,3.27 3.21,5.31"
   id="path591" />

				<path
   clip-path="url(#SVGID_44_)"
   fill="#b9b9b9"
   d="m 430.19,891.39 -2.42,-0.899 c 1,-0.78 2.13,-1.41 3.35,-1.851 3.9,-1.409 8.71,-0.62 11.58,2.271 2.21,2.229 3.11,5.43 2.98,8.49 -0.13,3.069 -1.19,6.029 -2.48,8.84 -0.98,2.14 -2.13,4.27 -3.9,5.89 -1.77,1.62 -4.28,2.66 -6.7,2.25 -2.23,-0.38 -4.09,-1.95 -5.18,-3.83 -1.1,-1.88 -1.51,-4.05 -1.7,-6.2 -0.29,-3.33 -0.05,-6.72 0.94,-9.93 0.62,-1.971 1.74,-4.021 3.53,-5.031"
   id="path593" />

			</g>

		</g>

		<path
   clip-path="url(#SVGID_24_)"
   fill="none"
   stroke="#000000"
   stroke-miterlimit="10"
   d="m 421.91,793.57 c 0.19,0.199 0.38,0.399 0.56,0.6 8.06,8.9 9.44,21.95 6.87,33.48 -2.63,11.79 -8.81,22.54 -14.11,33.5 -3.66,7.54 -6.96,15.479 -8.36,23.609 -0.63,3.67 -0.87,7.391 -0.58,11.13 0.41,5.311 1.89,10.48 3.36,15.62 1.7,5.96 5.02,13.71 6.77,19.721 0.03,0.09 0.05,0.18 0.08,0.27"
   id="path599" />

		<path
   clip-path="url(#SVGID_24_)"
   fill="none"
   stroke="#000000"
   stroke-miterlimit="10"
   d="m 415.94,931.25 c 0.16,0 0.32,-0.01 0.48,-0.02 11.58,-0.471 22.33,-8.58 33.74,-6.66"
   id="path601" />

		<path
   clip-path="url(#SVGID_24_)"
   fill="none"
   stroke="#000000"
   stroke-miterlimit="10"
   d="m 451.8,923.79 c 0.31,0.4 0.62,0.8 0.95,1.18 3.38,3.94 8.03,6.9 13.16,8.36 4.77,1.36 9.83,1.43 14.81,1.49 11.91,0.14 23.81,0.29 35.71,0.43 5.24,0.07 10.66,0.1 15.49,-1.84 13.97,-5.601 17.68,-25.101 32.11,-29.521 3.64,-1.109 7.54,-1.08 11.35,-1.04 14.33,0.16 28.65,0.32 42.98,0.471 h 0.43"
   id="path603" />

		<path
   clip-path="url(#SVGID_24_)"
   fill="none"
   stroke="#000000"
   stroke-miterlimit="10"
   d="m 618.19,863.74 c -0.24,-0.53 -0.49,-1.061 -0.74,-1.58"
   id="path605" />

		<path
   clip-path="url(#SVGID_24_)"
   fill="none"
   stroke="#000000"
   stroke-miterlimit="10"
   d="m 618.36,903.22 c 3.87,-2.01 4.95,-6.76 5.18,-10.939 0.55,-9.73 -1.3,-19.581 -5.35,-28.53"
   id="path607" />

		<path
   clip-path="url(#SVGID_24_)"
   fill="none"
   stroke="#000000"
   stroke-miterlimit="10"
   d="m 617.74,864.24 c 0.15,-0.16 0.31,-0.33 0.45,-0.49 0,0 0.01,-0.01 0,-0.01 3.7,-4.05 6.02,-9.061 8.19,-14.04 0.16,-0.38 0.33,-0.76 0.49,-1.141 1.93,-4.47 3.88,-8.989 5.62,-13.569 4.06,-10.63 7.06,-21.55 6.43,-32.74 -0.75,-13.281 -6.56,-25.781 -12.65,-37.75"
   id="path609" />

		<path
   clip-path="url(#SVGID_24_)"
   fill="none"
   stroke="#000000"
   stroke-miterlimit="10"
   d="m 424.79,793.71 c 3.25,-11.69 10.95,-22.21 21.35,-29.19 10.4,-6.97 23.43,-10.34 36.12,-9.35 4.74,0.37 9.39,1.33 14.06,2.17 39.1,7.07 79.39,6.49 118.93,2.12 2,-0.22 4.07,-0.44 5.99,0.13 1.92,0.57 3.65,2.18 3.62,4.09"
   id="path611" />

		
		
		
		
		
		
		
		
		
		
		
		
		
		
		<path
   clip-path="url(#SVGID_24_)"
   fill="#b9b9b9"
   d="m 454.5,843.5 c 29.629,-36.791 23.195,-38.746 -12,-7 -4.921,4.438 -12,3.134 -12,7 0,3.866 -8.627,23 -2,23 6.627,0 23.575,-19.989 26,-23"
   id="path641" />

		<path
   clip-path="url(#SVGID_24_)"
   fill="#989898"
   d="m 516.5,857.5 c 2.732,0.485 -7.386,41.023 -15,40 -7.663,-1.029 -1,-47.687 -1,-51 0,-3.313 27.825,-14.882 35,-12 5.211,2.094 -30.202,21.011 -19,23"
   id="path643" />

		<path
   clip-path="url(#SVGID_24_)"
   fill="#b9b9b9"
   d="m 519.5,895 c -29.847,23.876 -35.984,55.178 8,21.5 11.69,-8.951 22.501,-73.399 8,-71 -11.715,1.938 -3.582,28 -8,28 -4.418,0 1.272,14.082 -8,21.5"
   id="path645" />

		<path
   clip-path="url(#SVGID_24_)"
   fill="#b9b9b9"
   d="m 618.5,877 c 0,8.008 5.008,20.5 -3,20.5 -8.008,0 -11.442,-26.352 -19,-29 -47.32,-16.581 -36.786,-12.572 7.5,-6 7.921,1.176 14.5,6.492 14.5,14.5"
   id="path647" />

		
		
		
		
		
		
		
		
		
		
		
		
		
		
		
		
		
			
		
		
		
		
		
		
		
		
		
		
		
		
		
		
		
		
		
		
		
		
		
		
		
		
		
		
		
		
		
		
			
		
		
		
		
		
		
		
		
		
		
		
		
		
		
		
			
		
			
		
			
		
		<path
   clip-path="url(#SVGID_24_)"
   d="m 0,1.5 c 1.93,0 1.934,-3 0,-3 -1.93,0 -1.934,3 0,3"
   id="path853" />

	</g>

</g>
  </g>
</svg>
