<svg xmlns="http://www.w3.org/2000/svg" viewBox="0 0 182.74 182.9"><defs><style>.cls-1{fill:#c69c6d;stroke:#000;stroke-miterlimit:10;stroke-width:15px;}</style></defs><g id="图层_2" data-name="图层 2"><g id="Push_wave_Shock_wave_icon_" data-name="Push wave/Shock wave (icon)"><path class="cls-1" d="M175,7.51,7.51,7.77l.26,167.62,167.46-.26Z"/><path d="M37,72.14a19.88,19.88,0,0,1,1.15-4l-.76,1.79a22.64,22.64,0,0,1,1.46-2.86c.26-.43.54-.86.83-1.27l.45-.62c.51-.74-1.06,1.28-.47.61a39.19,39.19,0,0,1,4.67-4.62c1.24-1-1.26.93,0,0,.42-.31.84-.6,1.27-.9,1-.66,2-1.29,3-1.88A56.8,56.8,0,0,1,55,55.25L53.16,56a80.79,80.79,0,0,1,20.18-5.21l-2,.27a174,174,0,0,1,21-1.34,152.37,152.37,0,0,1,21.88,1.18l-2-.27a86.82,86.82,0,0,1,22,5.8l-1.79-.75a54.55,54.55,0,0,1,9.25,4.9c.33.22.65.46,1,.69,1.23.87-1.39-1.15-.24-.19.62.51,1.22,1,1.8,1.59s1.12,1.13,1.64,1.73c.17.21.34.41.5.62-.71-1-.91-1.19-.57-.72s.53.77.78,1.16c2.08,3.32,6.78,4.94,10.26,2.69,3.32-2.14,4.92-6.71,2.69-10.26-5.83-9.25-16.18-14.36-26.21-17.8-9.7-3.32-20.08-4.71-30.3-5.2a185.27,185.27,0,0,0-28.75.81c-10.39,1.15-20.47,3.34-29.91,8-9.77,4.79-19.82,13.2-21.81,24.48a8.12,8.12,0,0,0,.76,5.78,7.63,7.63,0,0,0,4.48,3.45c3.65.83,8.5-1.11,9.23-5.24Z"/><path d="M62.74,129.46a33.74,33.74,0,0,0,2.41-5.21L64.4,126c.27-.65.55-1.29.87-1.92.15-.27.32-.53.46-.8q.48-.69-.15.15c-.44.55-.47.61-.07.17.23-.19,1.16-1,.12-.17s-.08.12.19,0a20.68,20.68,0,0,1,2-1l-1.79.76a85,85,0,0,1,21.24-5.76l-2,.27a83.25,83.25,0,0,1,21.85,0l-2-.27a39.69,39.69,0,0,1,9.6,2.11l-1.79-.75a29,29,0,0,1,4.64,3c1.16.82,2.35,1.58,3.51,2.39l.84.59c1.1.79-1.49-1.22-.44-.34.52.44,1,.88,1.52,1.36.24.25.46.51.7.76.91,1-1-1.48-.32-.42a16.35,16.35,0,0,1,1.22,2.21l-.76-1.79c.14.36.27.71.39,1.08,1.23,3.72,5.24,6.53,9.23,5.24,3.71-1.2,6.55-5.24,5.24-9.23a21,21,0,0,0-5.59-8.93,54.41,54.41,0,0,0-6.69-5c-1.11-.74-2.17-1.55-3.26-2.31a22.32,22.32,0,0,0-5.27-2.61c-3.4-1.22-7.21-1.6-10.77-2.06A88.57,88.57,0,0,0,69,106.21a57.25,57.25,0,0,0-10.77,4.27,15.93,15.93,0,0,0-5.27,5A30.69,30.69,0,0,0,50.39,121l.76-1.79a18.5,18.5,0,0,1-1.37,2.7,7.58,7.58,0,0,0,2.69,10.27,7.67,7.67,0,0,0,10.27-2.7Z"/><path d="M139,150.76a110.28,110.28,0,0,1,10.55,11,1.5,1.5,0,0,0,2.12,0,1.54,1.54,0,0,0,0-2.12,109.21,109.21,0,0,0-10.55-11,1.54,1.54,0,0,0-2.12,0,1.52,1.52,0,0,0,0,2.12Z"/><path d="M149.4,147.85c-5,3.09-7.64,8.42-10,13.59a1.55,1.55,0,0,0,.54,2.05A1.5,1.5,0,0,0,142,163c2.13-4.64,4.4-9.72,8.92-12.51,1.64-1,.14-3.6-1.51-2.59Z"/><path d="M156.8,149.51a5.84,5.84,0,0,1,3.44.6A3,3,0,0,1,162,152a2.12,2.12,0,0,1-1.2,1.89,8.41,8.41,0,0,1-3.43.87l.76,2.79a2.72,2.72,0,0,1,1.73.14,12.1,12.1,0,0,1,2,.65c.95.43,2.32,1.42,1.9,2.65s-1.93,1.54-3,1.62a17.53,17.53,0,0,1-5.21-.42c-1.88-.42-2.69,2.47-.8,2.89a18.4,18.4,0,0,0,7.53.33c2.24-.45,4.34-2.09,4.56-4.49s-1.49-4.24-3.44-5.17-4.64-1.78-6.79-.79c-1.32.61-.71,3,.75,2.8a11,11,0,0,0,5.25-1.48,5,5,0,0,0,2.36-4.45c-.35-3.76-4.82-5.68-8.15-5.34a1.54,1.54,0,0,0-1.5,1.5,1.5,1.5,0,0,0,1.5,1.5Z"/></g></g></svg>