<?xml version="1.0" encoding="UTF-8" standalone="no"?>
<!-- Created with Inkscape (http://www.inkscape.org/) -->

<svg
   width="69.250793mm"
   height="51.06802mm"
   viewBox="0 0 69.250794 51.06802"
   version="1.1"
   id="svg5"
   inkscape:version="1.1 (c68e22c387, 2021-05-23)"
   sodipodi:docname="ship.svg"
   xmlns:inkscape="http://www.inkscape.org/namespaces/inkscape"
   xmlns:sodipodi="http://sodipodi.sourceforge.net/DTD/sodipodi-0.dtd"
   xmlns:xlink="http://www.w3.org/1999/xlink"
   xmlns="http://www.w3.org/2000/svg"
   xmlns:svg="http://www.w3.org/2000/svg">
  <sodipodi:namedview
     id="namedview7"
     pagecolor="#505050"
     bordercolor="#ffffff"
     borderopacity="1"
     inkscape:pageshadow="0"
     inkscape:pageopacity="0"
     inkscape:pagecheckerboard="1"
     inkscape:document-units="mm"
     showgrid="false"
     inkscape:zoom="0.19442866"
     inkscape:cx="-871.78505"
     inkscape:cy="462.89471"
     inkscape:window-width="1278"
     inkscape:window-height="1378"
     inkscape:window-x="3833"
     inkscape:window-y="0"
     inkscape:window-maximized="0"
     inkscape:current-layer="g857" />
  <defs
     id="defs2">
    <rect
       id="SVGID_1_"
       width="1920"
       height="1080"
       x="0"
       y="0" />
    <rect
       id="SVGID_3_"
       x="98"
       y="96"
       width="257.00101"
       height="261.60001" />
    <rect
       id="SVGID_5_"
       x="98"
       y="96"
       width="257"
       height="261.60001" />
    <rect
       id="SVGID_7_"
       x="35"
       y="118"
       width="110"
       height="230" />
    <rect
       id="SVGID_9_"
       x="1602"
       y="46"
       width="270"
       height="242.66701" />
    <rect
       id="SVGID_11_"
       x="1458"
       y="91"
       width="208"
       height="237.66701" />
    <rect
       id="SVGID_13_"
       x="634"
       y="127"
       width="159"
       height="153" />
    <rect
       id="SVGID_15_"
       x="634"
       y="127"
       width="159"
       height="153" />
    <rect
       id="SVGID_17_"
       x="499"
       y="106"
       width="172.231"
       height="200.60001" />
    <rect
       id="SVGID_19_"
       x="499"
       y="106"
       width="172.231"
       height="200.60001" />
    <rect
       id="SVGID_21_"
       x="821"
       y="48"
       width="230.27299"
       height="238.379" />
    <rect
       id="SVGID_23_"
       width="1920"
       height="1080"
       x="0"
       y="0" />
    <rect
       id="SVGID_25_"
       x="388.35001"
       y="322"
       width="155.653"
       height="186.69" />
    <rect
       id="SVGID_27_"
       x="388.35001"
       y="322"
       width="155.653"
       height="186.69" />
    <rect
       id="SVGID_29_"
       x="1044.51"
       y="725.5"
       width="186.22099"
       height="196.52901" />
    <rect
       id="SVGID_31_"
       x="1044.51"
       y="725.5"
       width="186.22099"
       height="196.52901" />
    <rect
       id="SVGID_33_"
       x="776.99799"
       y="756.99902"
       width="165.00301"
       height="161.75101" />
    <rect
       id="SVGID_35_"
       x="776.99799"
       y="756.99902"
       width="165.00301"
       height="161.75101" />
    <rect
       id="SVGID_37_"
       x="990.30902"
       y="311.51199"
       width="192.01199"
       height="233.53799" />
    <rect
       id="SVGID_39_"
       x="990.30902"
       y="311.51199"
       width="192.01199"
       height="233.53799" />
    <rect
       id="SVGID_41_"
       x="406.168"
       y="755"
       width="232.836"
       height="180.27299" />
    <rect
       id="SVGID_43_"
       x="406.168"
       y="755"
       width="232.836"
       height="180.27299" />
    <rect
       id="SVGID_45_"
       x="643.5"
       y="331.01999"
       width="259.41"
       height="205.48" />
    <rect
       id="SVGID_47_"
       x="643.5"
       y="331.01999"
       width="259.41"
       height="205.48" />
    <rect
       id="rect888"
       width="1920"
       height="1080"
       x="0"
       y="0" />
    <rect
       id="rect967"
       width="1920"
       height="1080"
       x="0"
       y="0" />
    <rect
       id="rect1113"
       x="990.30902"
       y="311.51199"
       width="192.01199"
       height="233.53799" />
    <rect
       id="rect1118"
       x="990.30902"
       y="311.51199"
       width="192.01199"
       height="233.53799" />
  </defs>
  <g
     inkscape:label="Layer 1"
     inkscape:groupmode="layer"
     id="layer1"
     transform="translate(-189.84393,-107.26299)">
    <g
       id="g857"
       transform="matrix(0.26458333,0,0,0.26458333,-62.920625,23.061501)">
      <defs
         id="defs10">
        <rect
           id="rect267"
           width="1920"
           height="1080"
           x="0"
           y="0" />
      </defs>
      <clipPath
         id="SVGID_2_">
        <use
           xlink:href="#SVGID_1_"
           overflow="visible"
           id="use12"
           x="0"
           y="0"
           width="100%"
           height="100%" />
      </clipPath>
      <g
         clip-path="url(#SVGID_2_)"
         id="g855"
         transform="rotate(90,1086.3159,414.75)">
        <defs
           id="defs124">
          <rect
             id="rect272"
             width="1920"
             height="1080"
             x="0"
             y="0" />
        </defs>
        <clipPath
           id="SVGID_24_">
          <use
             xlink:href="#SVGID_23_"
             overflow="visible"
             id="use126"
             x="0"
             y="0"
             width="100%"
             height="100%" />
        </clipPath>
        <g
           clip-path="url(#SVGID_24_)"
           id="g455">
          <defs
             id="defs388">
            <rect
               id="rect277"
               x="990.30902"
               y="311.51199"
               width="192.01199"
               height="233.53799" />
          </defs>
          <clipPath
             id="SVGID_38_">
            <use
               xlink:href="#SVGID_37_"
               overflow="visible"
               id="use390"
               x="0"
               y="0"
               width="100%"
               height="100%" />
          </clipPath>
          <g
             clip-path="url(#SVGID_38_)"
             id="g453">
            <defs
               id="defs394">
              <rect
                 id="rect282"
                 x="990.30902"
                 y="311.51199"
                 width="192.01199"
                 height="233.53799" />
            </defs>
            <clipPath
               id="SVGID_40_">
              <use
                 xlink:href="#SVGID_39_"
                 overflow="visible"
                 id="use396"
                 x="0"
                 y="0"
                 width="100%"
                 height="100%" />
            </clipPath>
            <path
               clip-path="url(#SVGID_40_)"
               fill="#ae2c6d"
               d="m 1175.5,476.49 c 0.71,0.01 1.38,0.01 2,0.01 5.08,10.97 5.43,20.54 4.28,32.58 -1.141,12.01 -5.57,24.21 -10.24,35.34 h -0.01 l -0.2,-0.09 h -24.1 c -0.87,-1.63 -1.65,-3.3 -2.36,-5.01 h 22.11 c 4.52,-5 5.989,-13 7.35,-19.59 2.16,-10.48 4.33,-21.31 2.22,-31.8 -0.819,-4.06 -2.34,-8.1 -5.189,-11.1 l 0.01,-0.41 c 1.469,0.03 2.859,0.06 4.129,0.07"
               id="path399" />
            <path
               clip-path="url(#SVGID_40_)"
               fill="#e54696"
               d="m 1141.26,478.24 c -0.58,-0.91 -1.2,-1.8 -1.859,-2.66 l 0.1,-0.08 c 0.98,0.11 4.42,0.1 5.98,0.19 l 0.01,-0.19 h 0.01 c 0.449,0.05 15.12,0.7 25.87,0.92 l -0.01,0.41 c 2.85,3 4.37,7.04 5.189,11.1 2.11,10.49 -0.06,21.32 -2.22,31.8 -1.36,6.59 -2.83,14.59 -7.35,19.59 h -22.11 c -1.55,-3.74 -2.74,-7.63 -3.811,-11.53 -1.1,-4.01 -2.069,-8.07 -2.8,-12.17 -0.17,0.01 -0.43,-0.05 -0.76,-0.18 0.49,-6.42 1.38,-13.99 1.86,-20.4 0.1,-1.42 0.21,-2.84 0.37,-4.25 0.421,-3.61 0.481,-8.88 1.531,-12.55"
               id="path401" />
            <path
               clip-path="url(#SVGID_40_)"
               fill="#71e4bf"
               d="m 1158.14,455.15 c 3.2,-0.25 6.521,1.2 8.96,3.38 4.16,3.72 9.21,12.44 8.4,17.96 -1.27,-0.01 -2.66,-0.04 -4.131,-0.07 -10.75,-0.22 -25.419,-0.87 -25.869,-0.92 0.84,-3.67 2.06,-8.27 3.32,-11.82 1.26,-3.54 3.689,-6.94 7.26,-8.12 0.68,-0.22 1.36,-0.36 2.06,-0.41"
               id="path403" />
            <path
               clip-path="url(#SVGID_40_)"
               fill="#5aaae7"
               d="m 1146.5,425.5 c 0.67,4.88 0.92,7.55 0.439,10.84 l -0.659,-0.1 h -27.811 l -0.3,0.01 c -0.12,-2.9 -0.2,-5.9 -0.46,-8.47 -0.08,-0.76 -0.15,-1.521 -0.24,-2.28 h 0.03 28.5 l 0.33,-0.24 c 0.051,0.08 0.11,0.16 0.171,0.24"
               id="path405" />
            <path
               clip-path="url(#SVGID_40_)"
               fill="#1e81ce"
               d="m 1146.28,436.24 0.66,0.1 c -0.261,1.74 -0.722,3.66 -1.44,6.16 h -0.5 c -10.44,0 -15.22,-0.17 -25.67,-0.17 l -0.34,0.2 c -0.17,-0.37 -0.34,-0.71 -0.53,-1.01 l 0.04,-0.02 c -0.16,-1.63 -0.25,-3.42 -0.33,-5.25 l 0.299,-0.01 z"
               id="path407" />
            <path
               clip-path="url(#SVGID_40_)"
               fill="#ebe5dd"
               d="m 1113.54,411.7 c -1.31,-2.1 -3.03,-3.93 -5.16,-5.15 l 0.95,-0.22 V 395.5 365.88 h 0.37 c 27.68,13.56 23.17,40.85 36.63,59.38 l -0.33,0.24 h -28.5 -0.03 c -0.359,-3.38 -0.859,-6.76 -2.04,-9.94 -0.491,-1.33 -1.12,-2.64 -1.89,-3.86"
               id="path409" />
            <path
               clip-path="url(#SVGID_40_)"
               fill="#ae2c6d"
               d="m 1141.26,478.24 c -1.05,3.67 -1.109,8.94 -1.529,12.55 -0.16,1.41 -0.271,2.83 -0.37,4.25 -0.48,6.41 -1.37,13.98 -1.86,20.4 -2.54,-0.97 -9.24,-5.59 -12.96,-8.05 -1.78,-1.18 -3.771,-2.33 -5.89,-2.12 l -0.061,-0.01 c 0.41,-3.33 0.8,-6.67 1.21,-10 1.351,-11.2 2.71,-22.47 2.141,-33.73 l 0.56,-0.03 c 0.44,0.21 0.51,0.24 0.51,0.23 0.04,0.02 0.15,0.08 0.48,0.25 6.22,3.29 11.689,7.979 15.91,13.6 0.659,0.86 1.279,1.75 1.859,2.66"
               id="path411" />
            <path
               clip-path="url(#SVGID_40_)"
               fill="#e54696"
               d="m 1121.5,459.35 h 0.31 c 0.051,0.73 0.101,1.45 0.13,2.18 0.57,11.26 -0.789,22.53 -2.14,33.729 -0.41,3.33 -0.8,6.67 -1.21,10 0,0.04 -0.01,0.07 -0.01,0.11 l 0.04,0.29 c -1.07,4.81 -2.8,9.48 -5.12,13.84 -1.29,-0.48 -4.72,-0.49 -6,0 -3.89,0 -7.91,0.08 -11.99,0.2 -5.63,0.15 -11.37,0.38 -17.02,0.55 -4.771,0.14 -9.471,0.25 -13.99,0.25 l -0.09,-0.45 c -1.24,0.23 -2.66,-0.41 -3.91,-0.55 l -0.28,0.11 c -1.899,-4.79 -4.01,-9.49 -6.35,-14.08 l -0.15,0.08 c -0.06,0.01 -0.13,0.03 -0.189,0.04 l -0.03,-0.15 c -0.77,-8.08 -2.44,-16.97 -3.21,-25.05 -0.65,-6.85 -2.32,-12.55 0.21,-18.95 -0.02,-0.52 -0.02,-1.07 0,-1.65 0.08,-5.62 1.32,-13.52 3,-18.35 8.08,-0.03 16.51,-0.18 25.01,-0.37 1.99,-0.04 3.99,-0.09 5.99,-0.13 2.34,-0.05 4.68,-0.1 7.01,-0.15 8.86,-0.19 17.63,-0.35 25.99,-0.35 0.34,0.2 0.66,0.56 0.96,1.02 0.19,0.3 0.36,0.64 0.53,1.01 0.949,2.13 1.5,5.229 1.47,6.71 -0.071,3.531 1.079,6.581 1.039,10.111 m -19,18.15 c 0,-11.6 -7.39,-21 -16.5,-21 -9.11,0 -16.5,9.4 -16.5,21 0,11.6 7.39,21 16.5,21 9.11,0 16.5,-9.4 16.5,-21"
               id="path413" />
            <path
               clip-path="url(#SVGID_40_)"
               fill="#9da1a4"
               d="m 1118.5,441.5 -0.04,0.02 c -0.3,-0.46 -0.62,-0.82 -0.96,-1.02 -8.36,0 -17.13,0.16 -25.99,0.35 l -0.01,-0.35 c -0.34,-1.91 -0.51,-3.93 -0.52,-6 h 0.02 l 20.43,-0.28 c 2.75,-5.55 3.98,-11.59 3.07,-17.72 -0.17,-1.14 -0.79,-4.02 -0.96,-4.8 0.77,1.22 1.399,2.53 1.89,3.86 1.181,3.18 1.681,6.56 2.04,9.94 0.09,0.76 0.16,1.52 0.24,2.28 0.26,2.57 0.34,5.57 0.46,8.47 0.08,1.83 0.17,3.62 0.33,5.25"
               id="path415" />
            <path
               clip-path="url(#SVGID_40_)"
               fill="#a9baca"
               d="m 1114.5,416.5 c 0.91,6.13 -0.32,12.17 -3.07,17.72 L 1091,434.5 h -0.02 c -0.041,-3.65 0.43,-7.46 1.359,-11.15 1.391,-5.55 3.82,-10.82 7.141,-14.82 1.18,-1.42 2.609,-2.84 4.439,-3.12 1.29,-0.2 2.6,0.19 3.77,0.77 0.23,0.12 0.461,0.24 0.69,0.37 2.13,1.22 3.851,3.05 5.16,5.15 0.171,0.78 0.791,3.66 0.961,4.8"
               id="path417" />
            <path
               clip-path="url(#SVGID_40_)"
               fill="#ebe5dd"
               d="m 1073.5,349.46 v 0.04 c 0.03,12.09 0.5,25.83 0.5,37.83 l 0.18,0.34 c -3.83,2.08 -10.42,5.71 -13.51,8.67 0.27,-9.61 0.79,-19.78 0.83,-28.84 v -1 c -0.02,-5.97 -0.16,-13.09 -0.17,-19 h 0.17 c 2.34,-8.99 7.91,-19.77 13.24,-27.38 3.35,-4.78 8.47,-9.63 14.17,-8.42 3.37,0.72 5.93,3.41 8.04,6.14 7.33,9.45 11.22,18.77 12.55,30.66 v 15.83 h -0.17 v 1.55 29.62 h -0.83 c -2.83,-1.67 -9.7,-4.98 -11,-8 h -0.5 c 0,-12.84 -0.5,-26.17 -0.5,-39 -1.83,-3.82 -5.8,-6.59 -10.04,-6.61 -0.64,0 -1.28,0.05 -1.91,0.15 -3.29,0.5 -6.36,2.23 -9.27,3.93 -0.94,0.53 -1.71,2.4 -1.78,3.49"
               id="path419" />
            <path
               clip-path="url(#SVGID_40_)"
               fill="#999999"
               d="m 1097,387.5 h 0.5 c 1.3,3.02 8.17,6.33 11,8 h 0.83 v 10.83 l -0.95,0.22 c -0.229,-0.13 -0.46,-0.25 -0.69,-0.37 -1.17,-0.58 -2.479,-0.97 -3.77,-0.77 -1.83,0.28 -3.26,1.7 -4.439,3.12 -3.32,4 -5.75,9.27 -7.141,14.82 l -0.05,-0.01 c -0.98,-7.51 -2.9,-14.9 -5.7,-21.94 -0.16,-0.42 -0.35,-0.86 -0.689,-1.15 -0.341,-0.29 -0.78,-0.39 -1.221,-0.34 l -0.06,-0.36 v -57.04 l -0.07,-0.47 c 0.63,-0.1 1.271,-0.15 1.91,-0.15 4.24,0.02 8.21,2.79 10.04,6.61 0,12.83 0.5,26.16 0.5,39"
               id="path421" />
            <path
               clip-path="url(#SVGID_40_)"
               fill="#e4d422"
               d="m 1106.67,543.33 -0.17,0.17 c -13.44,0 -27.72,-0.5 -41.17,-0.5 0,-2.42 1.35,-4.82 3.18,-7.22 h 35.26 l 0.131,-0.08 c 1.589,2.63 2.769,5.21 2.769,7.63"
               id="path423" />
            <path
               clip-path="url(#SVGID_40_)"
               fill="#ffd422"
               d="m 1103.9,535.7 -0.131,0.08 h -35.26 c 3.9,-5.08 9.99,-10.14 9.99,-15.28 l -0.01,-0.25 c 5.649,-0.17 11.389,-0.4 17.02,-0.55 0.12,4.97 5.12,10.6 8.391,16"
               id="path425" />
            <path
               clip-path="url(#SVGID_40_)"
               fill="#71e4bf"
               d="m 1086,456.5 c 9.11,0 16.5,9.4 16.5,21 0,11.6 -7.39,21 -16.5,21 -9.11,0 -16.5,-9.4 -16.5,-21 0,-11.6 7.39,-21 16.5,-21"
               id="path427" />
            <path
               clip-path="url(#SVGID_40_)"
               fill="#a6001e"
               d="m 1092.29,423.34 0.05,0.01 c -0.93,3.69 -1.4,7.5 -1.359,11.15 0.01,2.07 0.18,4.09 0.52,6 l 0.01,0.35 c -2.33,0.05 -4.67,0.1 -7.01,0.15 v -41 l -0.01,-0.05 c 0.06,-0.02 0.13,-0.03 0.189,-0.04 0.44,-0.05 0.88,0.05 1.221,0.34 0.34,0.29 0.529,0.73 0.689,1.15 2.8,7.04 4.72,14.43 5.7,21.94"
               id="path429" />
            <path
               clip-path="url(#SVGID_40_)"
               fill="#cccccc"
               d="m 1074.18,387.67 -0.18,-0.34 c 0,-12 -0.47,-25.74 -0.5,-37.83 v -0.04 c 0.07,-1.09 0.84,-2.96 1.78,-3.49 2.91,-1.7 5.979,-3.43 9.27,-3.93 l 0.069,0.47 v 57.04 l 0.061,0.36 c -0.061,0.01 -0.13,0.02 -0.189,0.04 -0.44,0.09 -0.871,0.32 -1.181,0.64 -0.67,0.69 -0.94,1.67 -1.18,2.6 -1.49,5.95 -4.17,14.2 -4.63,20.31 l -0.21,0.08 c -0.6,-1.43 -1.35,-2.81 -2.1,-4.17 -0.86,-1.57 -1.73,-3.13 -2.591,-4.7 -0.31,-0.56 -0.609,-1.12 -0.939,-1.67 -0.99,-1.71 -2.101,-3.36 -3.61,-4.62 -2,-1.68 -4.88,-2.55 -7.26,-1.49 l -0.4,-0.27 c 0.04,-0.05 0.07,-0.11 0.11,-0.16 0,-3.26 0.07,-6.67 0.17,-10.16 3.09,-2.96 9.68,-6.59 13.51,-8.67"
               id="path431" />
            <path
               clip-path="url(#SVGID_40_)"
               fill="#f40e34"
               d="m 1084.5,400 v 41 c -2,0.04 -4,0.09 -5.99,0.13 l -0.01,-0.63 c 0.189,-4.42 0.72,-11.5 -0.73,-15.68 -0.14,-0.42 -0.3,-0.83 -0.479,-1.24 l 0.21,-0.08 c 0.46,-6.11 3.14,-14.36 4.63,-20.31 0.24,-0.93 0.51,-1.91 1.18,-2.6 0.311,-0.32 0.74,-0.55 1.181,-0.64 z"
               id="path433" />
            <path
               clip-path="url(#SVGID_40_)"
               fill="#9da1a4"
               d="m 1077.77,424.82 c 1.45,4.18 0.921,11.26 0.73,15.68 l 0.01,0.63 c -8.5,0.19 -16.93,0.34 -25.01,0.37 h -2 v 0.17 h -1 v -0.17 c 0.01,-1.86 0.11,-3.79 0.3,-5.76 0,-0.08 0.01,-0.17 0.03,-0.26 l 0.17,0.02 22.01,0.24 c 1.63,-3.36 2.79,-7.8 2.37,-11.51 -0.45,-3.87 -2.57,-7.45 -3.72,-11.19 0.33,0.55 0.631,1.11 0.939,1.67 0.859,1.57 1.73,3.13 2.591,4.7 0.75,1.36 1.5,2.74 2.101,4.17 0.179,0.41 0.339,0.82 0.479,1.24"
               id="path435" />
            <path
               clip-path="url(#SVGID_40_)"
               fill="#a9baca"
               d="m 1052.49,425.5 c 1.62,-6.88 4.25,-13.56 7.898,-18.84 l 0.401,0.27 c 2.38,-1.06 5.26,-0.19 7.26,1.49 1.51,1.26 2.62,2.91 3.61,4.62 1.149,3.74 3.27,7.32 3.72,11.19 0.42,3.71 -0.741,8.15 -2.37,11.51 L 1051,435.5 l -0.17,-0.02 c 0.309,-3.28 0.86,-6.65 1.66,-9.98"
               id="path437" />
            <path
               clip-path="url(#SVGID_40_)"
               fill="#ebe5dd"
               d="m 1060.67,396.34 c -0.1,3.49 -0.17,6.9 -0.17,10.16 -0.04,0.05 -0.07,0.11 -0.11,0.16 -3.649,5.28 -6.28,11.96 -7.899,18.84 h -26.99 c 8.5,-10.6 8.23,-21.37 16.03,-36.64 5.06,-9.92 13.989,-16.8 19.97,-22.36 v 1 c -0.041,9.06 -0.56,19.23 -0.831,28.84"
               id="path439" />
            <path
               clip-path="url(#SVGID_40_)"
               fill="#ae2c6d"
               d="m 1053.5,505.5 0.03,0.15 c -3.94,0.82 -7.79,2.11 -11.431,3.81 -1.989,0.93 -4,2.06 -5.359,3.76 -0.96,-12.38 -3.92,-24.62 -8.721,-36.09 v -0.63 h 0.48 l 0.28,-0.18 c 0.3,0.3 0.659,0.47 1.08,0.39 0.34,-0.06 0.62,-0.28 0.88,-0.49 2.41,-1.94 4.81,-3.88 7.21,-5.82 4.189,-3.38 8.39,-6.77 12.229,-10.55 h 0.32 c -0.02,0.58 -0.02,1.13 0,1.65 -2.53,6.4 -0.86,12.1 -0.21,18.95 0.772,8.08 2.442,16.97 3.212,25.05"
               id="path441" />
            <path
               clip-path="url(#SVGID_40_)"
               fill="#5aaae7"
               d="m 1025.5,425.5 h 26.99 c -0.801,3.33 -1.351,6.7 -1.66,9.98 -0.021,0.09 -0.03,0.18 -0.03,0.26 h -0.03 -25.27 z"
               id="path443" />
            <path
               clip-path="url(#SVGID_40_)"
               fill="#1e81ce"
               d="m 1050.77,435.74 h 0.03 c -0.189,1.97 -0.29,3.9 -0.3,5.76 v 0.17 c -10.67,-0.01 -14.02,-0.17 -25,-0.17 v -5.76 z"
               id="path445" />
            <path
               clip-path="url(#SVGID_40_)"
               fill="#ae2c6d"
               d="m 1036.74,513.22 c 0.05,0.56 0.09,1.11 0.12,1.67 l -0.53,0.04 c -0.111,10.5 -6.39,20.93 -11.58,30.12 -7.79,-0.41 -18.281,-0.71 -26.07,-0.55 -1.189,-2.61 -2.26,-5.29 -3.189,-8 h 0.01 28.69 c 1.97,-3.43 2.31,-7.55 2.619,-11.5 1.24,-16.13 2.46,-32.51 -0.88,-48.34 v -0.16 h 2.09 v 0.63 c 4.8,11.47 7.76,23.71 8.72,36.09"
               id="path447" />
            <path
               clip-path="url(#SVGID_40_)"
               fill="#71e4bf"
               d="m 1012.5,455.32 c 2.21,0.37 4.46,0.8 6.34,2 2.5,1.59 4.021,4.32 5.18,7.04 1.37,3.2 2.841,6.72 3.48,10.14 l 0.43,0.18 c 0.16,0.58 0.45,1.23 0.851,1.64 l -0.28,0.18 h -0.48 -2.09 -30.431 l -0.561,-0.18 c 0.07,-0.24 0.15,-0.47 0.23,-0.71 v -0.28 h 2.4 c 1.069,-2.37 1.93,-5.83 2.68,-8.27 1.28,-4.13 4.42,-7.37 7.45,-10.45 0.52,-0.52 1.05,-1.06 1.739,-1.32 0.86,-0.33 1.82,-0.18 2.73,-0.03 0.112,0.02 0.222,0.04 0.332,0.06"
               id="path449" />
            <path
               clip-path="url(#SVGID_40_)"
               fill="#e54696"
               d="m 1025.93,476.66 c 3.34,15.83 2.12,32.21 0.88,48.34 -0.31,3.95 -0.649,8.07 -2.619,11.5 H 995.5 995.49 c -6.681,-19.29 -6.94,-40.79 -0.55,-60.18 l 0.56,0.18 h 30.43 z"
               id="path451" />
          </g>
        </g>
        <path
           clip-path="url(#SVGID_24_)"
           fill="none"
           stroke="#000000"
           stroke-miterlimit="10"
           d="m 998.5,544.5 h 0.18 c 7.79,-0.16 18.28,0.14 26.07,0.55 0.09,0 0.17,0.011 0.25,0.011"
           id="path457" />
        <path
           clip-path="url(#SVGID_24_)"
           fill="none"
           stroke="#000000"
           stroke-miterlimit="10"
           d="m 1024.5,545.5 c 0.08,-0.15 0.17,-0.3 0.25,-0.45 5.189,-9.19 11.47,-19.62 11.58,-30.12"
           id="path459" />
        <path
           clip-path="url(#SVGID_24_)"
           fill="none"
           stroke="#000000"
           stroke-miterlimit="10"
           d="m 1036.22,513.94 c 0.16,-0.25 0.33,-0.49 0.521,-0.72 1.359,-1.7 3.37,-2.83 5.359,-3.76 3.641,-1.7 7.49,-2.99 11.431,-3.81 0.06,-0.01 0.13,-0.03 0.189,-0.04"
           id="path461" />
        <path
           clip-path="url(#SVGID_24_)"
           fill="none"
           stroke="#000000"
           stroke-miterlimit="10"
           d="m 1053.75,505.29 c 0.04,0.08 0.08,0.16 0.12,0.24 2.34,4.59 4.45,9.29 6.35,14.08 0.011,0.03 0.021,0.06 0.03,0.09"
           id="path463" />
        <path
           clip-path="url(#SVGID_24_)"
           fill="none"
           stroke="#000000"
           stroke-miterlimit="10"
           d="m 1060.5,519.5 c 1.25,0.14 2.67,0.78 3.91,0.55 0.09,-0.01 0.18,-0.03 0.26,-0.05"
           id="path465" />
        <path
           clip-path="url(#SVGID_24_)"
           fill="none"
           stroke="#000000"
           stroke-miterlimit="10"
           d="m 1078.5,520.5 c 0,5.14 -6.09,10.2 -9.99,15.28 -1.83,2.4 -3.18,4.8 -3.18,7.22"
           id="path467" />
        <path
           clip-path="url(#SVGID_24_)"
           fill="none"
           stroke="#000000"
           stroke-miterlimit="10"
           d="m 1065.33,543 c 13.45,0 27.729,0.5 41.17,0.5"
           id="path469" />
        <path
           clip-path="url(#SVGID_24_)"
           fill="none"
           stroke="#000000"
           stroke-miterlimit="10"
           d="m 1106.67,543.33 c 0,-2.42 -1.18,-5 -2.77,-7.63 -3.271,-5.4 -8.271,-11.03 -8.391,-16 -0.01,-0.07 -0.01,-0.13 -0.01,-0.2"
           id="path471" />
        <path
           clip-path="url(#SVGID_24_)"
           fill="none"
           stroke="#000000"
           stroke-miterlimit="10"
           d="m 1107.5,519.5 c 1.28,-0.49 4.71,-0.48 6,0"
           id="path473" />
        <path
           clip-path="url(#SVGID_24_)"
           fill="none"
           stroke="#000000"
           stroke-miterlimit="10"
           d="m 1113.26,519.96 c 0.08,-0.15 0.16,-0.3 0.24,-0.46 2.32,-4.36 4.05,-9.03 5.12,-13.84"
           id="path475" />
        <path
           clip-path="url(#SVGID_24_)"
           fill="none"
           stroke="#000000"
           stroke-miterlimit="10"
           d="m 1118.65,505.27 c 2.119,-0.21 4.109,0.94 5.89,2.12 3.72,2.46 10.42,7.08 12.96,8.05 0.33,0.13 0.59,0.19 0.76,0.18 0.119,-0.01 0.2,-0.05 0.24,-0.12"
           id="path477" />
        <path
           clip-path="url(#SVGID_24_)"
           fill="none"
           stroke="#000000"
           stroke-miterlimit="10"
           d="m 1138.26,515.62 c 0.73,4.1 1.7,8.16 2.8,12.17 1.07,3.9 2.261,7.79 3.811,11.53 0.71,1.71 1.49,3.38 2.36,5.01 0.01,0.02 0.02,0.03 0.029,0.05"
           id="path479" />
        <polyline
           clip-path="url(#SVGID_24_)"
           fill="none"
           stroke="#000000"
           stroke-miterlimit="10"
           points="1147,544.33 1147.23,544.33     1171.33,544.33   "
           id="polyline481" />
        <path
           clip-path="url(#SVGID_24_)"
           fill="none"
           stroke="#000000"
           stroke-miterlimit="10"
           d="m 1171.5,544.5 c 0.01,-0.03 0.02,-0.05 0.03,-0.08 h 0.01 c 4.67,-11.13 9.1,-23.33 10.24,-35.34 1.149,-12.04 0.8,-21.61 -4.28,-32.58"
           id="path483" />
        <path
           clip-path="url(#SVGID_24_)"
           fill="none"
           stroke="#000000"
           stroke-miterlimit="10"
           d="m 1175.5,476.5 v -0.01 c 0.81,-5.52 -4.24,-14.24 -8.4,-17.96 -2.439,-2.18 -5.76,-3.63 -8.96,-3.38 -0.7,0.05 -1.38,0.19 -2.06,0.41 -3.57,1.18 -6,4.58 -7.26,8.12 -1.261,3.55 -2.48,8.15 -3.32,11.82"
           id="path485" />
        <path
           clip-path="url(#SVGID_24_)"
           fill="none"
           stroke="#000000"
           stroke-miterlimit="10"
           d="m 1145.99,475.73 c -0.13,-0.02 -0.3,-0.03 -0.51,-0.04 -1.561,-0.09 -5,-0.08 -5.98,-0.19"
           id="path487" />
        <path
           clip-path="url(#SVGID_24_)"
           fill="none"
           stroke="#000000"
           stroke-miterlimit="10"
           d="m 1123,461.72 0.01,0.01 c 0.04,0.02 0.15,0.08 0.48,0.25 6.22,3.29 11.689,7.98 15.91,13.6 0.659,0.86 1.279,1.75 1.859,2.66 0.11,0.16 0.221,0.32 0.32,0.48"
           id="path489" />
        <path
           clip-path="url(#SVGID_24_)"
           fill="none"
           stroke="#000000"
           stroke-miterlimit="10"
           d="m 1122.5,461.5 c 0.439,0.21 0.51,0.24 0.51,0.23"
           id="path491" />
        <path
           clip-path="url(#SVGID_24_)"
           fill="none"
           stroke="#000000"
           stroke-miterlimit="10"
           d="m 1121.5,459.5 v -0.15 c 0.04,-3.53 -1.11,-6.58 -1.04,-10.11 0.03,-1.48 -0.521,-4.58 -1.47,-6.71 -0.17,-0.37 -0.34,-0.71 -0.53,-1.01 -0.3,-0.46 -0.62,-0.82 -0.96,-1.02"
           id="path493" />
        <path
           clip-path="url(#SVGID_24_)"
           fill="none"
           stroke="#000000"
           stroke-miterlimit="10"
           d="m 1119.33,442.33 c 10.45,0 15.229,0.17 25.67,0.17"
           id="path495" />
        <path
           clip-path="url(#SVGID_24_)"
           fill="none"
           stroke="#000000"
           stroke-miterlimit="10"
           d="m 1145.5,442.5 c 0.72,-2.5 1.18,-4.42 1.439,-6.16 0.48,-3.29 0.23,-5.96 -0.439,-10.84"
           id="path497" />
        <path
           clip-path="url(#SVGID_24_)"
           fill="none"
           stroke="#000000"
           stroke-miterlimit="10"
           d="m 1109.7,365.88 c 27.68,13.56 23.17,40.85 36.63,59.38 0.05,0.08 0.11,0.16 0.17,0.24"
           id="path499" />
        <polyline
           clip-path="url(#SVGID_24_)"
           fill="none"
           stroke="#000000"
           stroke-miterlimit="10"
           points="1109.5,364.5 1109.5,364.33     1109.5,348.5   "
           id="polyline501" />
        <path
           clip-path="url(#SVGID_24_)"
           fill="none"
           stroke="#000000"
           stroke-miterlimit="10"
           d="m 1061.5,347.5 c 2.34,-8.99 7.91,-19.77 13.24,-27.38 3.35,-4.78 8.47,-9.63 14.17,-8.42 3.37,0.72 5.93,3.41 8.04,6.14 7.33,9.45 11.22,18.77 12.55,30.66"
           id="path503" />
        <path
           clip-path="url(#SVGID_24_)"
           fill="none"
           stroke="#000000"
           stroke-miterlimit="10"
           d="m 1086.5,311.5 c 0,-8.22 0.17,-19.28 0.17,-27.5"
           id="path505" />
        <path
           clip-path="url(#SVGID_24_)"
           fill="none"
           stroke="#000000"
           stroke-miterlimit="10"
           d="m 1061.33,347 v 0.5 c 0.01,5.91 0.15,13.03 0.17,19"
           id="path507" />
        <path
           clip-path="url(#SVGID_24_)"
           fill="none"
           stroke="#000000"
           stroke-miterlimit="10"
           d="m 1061.5,366.5 c -5.98,5.56 -14.91,12.44 -19.97,22.36 -7.8,15.27 -7.53,26.04 -16.03,36.64"
           id="path509" />
        <polyline
           clip-path="url(#SVGID_24_)"
           fill="none"
           stroke="#000000"
           stroke-miterlimit="10"
           points="1025.5,425.5 1025.5,435.74     1025.5,441.5   "
           id="polyline511" />
        <path
           clip-path="url(#SVGID_24_)"
           fill="none"
           stroke="#000000"
           stroke-miterlimit="10"
           d="m 1025,441.5 h 0.5 c 10.98,0 14.33,0.16 25,0.17 h 1 0.17"
           id="path513" />
        <path
           clip-path="url(#SVGID_24_)"
           fill="none"
           stroke="#000000"
           stroke-miterlimit="10"
           d="m 1053.5,441.5 c -1.68,4.83 -2.92,12.73 -3,18.35 -0.02,0.58 -0.02,1.13 0,1.65"
           id="path515" />
        <path
           clip-path="url(#SVGID_24_)"
           fill="none"
           stroke="#000000"
           stroke-miterlimit="10"
           d="m 1050.18,459.85 c -3.84,3.78 -8.04,7.17 -12.229,10.55 -2.401,1.94 -4.801,3.88 -7.211,5.82 -0.26,0.21 -0.539,0.43 -0.88,0.49 -0.42,0.08 -0.78,-0.09 -1.08,-0.39 -0.4,-0.41 -0.69,-1.06 -0.851,-1.64"
           id="path517" />
        <path
           clip-path="url(#SVGID_24_)"
           fill="none"
           stroke="#000000"
           stroke-miterlimit="10"
           d="m 1027.5,474.5 c -0.64,-3.42 -2.11,-6.94 -3.48,-10.14 -1.159,-2.72 -2.68,-5.45 -5.18,-7.04 -1.88,-1.2 -4.13,-1.63 -6.34,-2 -0.11,-0.02 -0.22,-0.04 -0.33,-0.06 -0.91,-0.15 -1.87,-0.3 -2.73,0.03 -0.689,0.26 -1.22,0.8 -1.739,1.32 -3.03,3.08 -6.17,6.32 -7.45,10.45 -0.75,2.44 -1.61,5.9 -2.68,8.27 -0.021,0.06 -0.04,0.12 -0.07,0.17"
           id="path519" />
        <polyline
           clip-path="url(#SVGID_24_)"
           fill="none"
           stroke="#000000"
           stroke-miterlimit="10"
           points="998.33,475.33 997.57,475.33     995.17,475.33 995,475.33   "
           id="polyline521" />
        <path
           clip-path="url(#SVGID_24_)"
           fill="none"
           stroke="#000000"
           stroke-miterlimit="10"
           d="m 995.17,475.61 c -0.08,0.24 -0.16,0.47 -0.229,0.71 -6.392,19.39 -6.132,40.89 0.549,60.18 0.93,2.71 2,5.39 3.189,8 0.021,0.04 0.03,0.07 0.051,0.11"
           id="path523" />
        <ellipse
           clip-path="url(#SVGID_24_)"
           fill="none"
           stroke="#000000"
           stroke-miterlimit="10"
           cx="1086"
           cy="477.5"
           rx="16.5"
           ry="21"
           id="ellipse525" />
        <path
           clip-path="url(#SVGID_24_)"
           fill="none"
           stroke="#000000"
           stroke-miterlimit="10"
           d="m 1050.5,461.5 c -2.53,6.4 -0.86,12.1 -0.21,18.95 0.77,8.08 2.44,16.97 3.21,25.05"
           id="path527" />
        <path
           clip-path="url(#SVGID_24_)"
           fill="none"
           stroke="#000000"
           stroke-miterlimit="10"
           d="m 1118.58,505.37 c 0,-0.04 0.01,-0.07 0.01,-0.11 0.41,-3.33 0.8,-6.67 1.21,-10 1.351,-11.2 2.71,-22.47 2.141,-33.73 -0.03,-0.73 -0.08,-1.45 -0.132,-2.18"
           id="path529" />
        <path
           clip-path="url(#SVGID_24_)"
           fill="none"
           stroke="#000000"
           stroke-miterlimit="10"
           d="m 1028.02,477.13 c 4.801,11.47 7.761,23.71 8.721,36.09 0.051,0.56 0.09,1.11 0.12,1.67 0.02,0.26 0.04,0.521 0.05,0.78"
           id="path531" />
        <path
           clip-path="url(#SVGID_24_)"
           fill="none"
           stroke="#000000"
           stroke-miterlimit="10"
           d="m 1141.5,477.5 c -0.08,0.24 -0.16,0.49 -0.24,0.74 -1.05,3.67 -1.109,8.94 -1.529,12.55 -0.16,1.41 -0.271,2.83 -0.37,4.25 -0.48,6.41 -1.37,13.98 -1.86,20.4 v 0.06"
           id="path533" />
        <path
           clip-path="url(#SVGID_24_)"
           fill="none"
           stroke="#000000"
           stroke-miterlimit="10"
           d="m 1064.5,520.5 c 4.52,0 9.22,-0.11 13.99,-0.25 5.649,-0.17 11.39,-0.4 17.02,-0.55 4.08,-0.12 8.101,-0.2 11.99,-0.2"
           id="path535" />
        <path
           clip-path="url(#SVGID_24_)"
           fill="none"
           stroke="#000000"
           stroke-miterlimit="10"
           d="m 1061.5,366.5 v 1 c -0.04,9.06 -0.561,19.23 -0.83,28.84 -0.1,3.49 -0.17,6.9 -0.17,10.16"
           id="path537" />
        <path
           clip-path="url(#SVGID_24_)"
           fill="none"
           stroke="#000000"
           stroke-miterlimit="10"
           d="m 1060.5,406.5 c -0.04,0.05 -0.07,0.11 -0.11,0.16 -3.649,5.28 -6.279,11.96 -7.899,18.84 -0.801,3.33 -1.351,6.7 -1.66,9.98 -0.021,0.09 -0.03,0.18 -0.03,0.26 -0.189,1.97 -0.29,3.9 -0.3,5.76"
           id="path539" />
        <path
           clip-path="url(#SVGID_24_)"
           fill="none"
           stroke="#000000"
           stroke-miterlimit="10"
           d="m 1060.79,406.93 c 2.38,-1.06 5.26,-0.19 7.26,1.49 1.51,1.26 2.62,2.91 3.61,4.62 0.33,0.55 0.63,1.11 0.939,1.67 0.86,1.57 1.73,3.13 2.59,4.7 0.75,1.36 1.5,2.74 2.101,4.17 0.18,0.41 0.34,0.82 0.479,1.24 1.451,4.18 0.921,11.26 0.731,15.68"
           id="path541" />
        <path
           clip-path="url(#SVGID_24_)"
           fill="none"
           stroke="#000000"
           stroke-miterlimit="10"
           d="m 1118.5,441.5 c -0.16,-1.63 -0.25,-3.42 -0.33,-5.25 -0.12,-2.9 -0.2,-5.9 -0.46,-8.47 -0.08,-0.76 -0.15,-1.521 -0.24,-2.28 -0.359,-3.38 -0.859,-6.76 -2.04,-9.94 -0.49,-1.33 -1.12,-2.64 -1.89,-3.86 -1.31,-2.1 -3.03,-3.93 -5.16,-5.15 -0.229,-0.13 -0.46,-0.25 -0.69,-0.37 -1.17,-0.58 -2.479,-0.97 -3.77,-0.77 -1.83,0.28 -3.26,1.7 -4.439,3.12 -3.32,4 -5.75,9.27 -7.141,14.82 -0.93,3.69 -1.4,7.5 -1.359,11.15 0.01,2.07 0.18,4.09 0.52,6"
           id="path543" />
        <path
           clip-path="url(#SVGID_24_)"
           fill="none"
           stroke="#000000"
           stroke-miterlimit="10"
           d="m 1077.5,423.5 c 0.46,-6.11 3.14,-14.36 4.63,-20.31 0.24,-0.93 0.51,-1.91 1.18,-2.6 0.311,-0.32 0.74,-0.55 1.181,-0.64 0.06,-0.02 0.13,-0.03 0.189,-0.04 0.44,-0.05 0.88,0.05 1.221,0.34 0.34,0.29 0.529,0.73 0.689,1.15 2.8,7.04 4.72,14.43 5.7,21.94"
           id="path545" />
        <path
           clip-path="url(#SVGID_24_)"
           fill="none"
           stroke="#000000"
           stroke-miterlimit="10"
           d="m 1051.5,441.5 h 2 c 8.08,-0.03 16.51,-0.18 25.01,-0.37 1.99,-0.04 3.99,-0.09 5.99,-0.13 2.34,-0.05 4.68,-0.1 7.01,-0.15 8.86,-0.19 17.63,-0.35 25.99,-0.35"
           id="path547" />
        <polyline
           clip-path="url(#SVGID_24_)"
           fill="none"
           stroke="#000000"
           stroke-miterlimit="10"
           points="1109.33,364.33     1109.33,365.88 1109.33,395.5 1109.33,406.33   "
           id="polyline549" />
        <polyline
           clip-path="url(#SVGID_24_)"
           fill="none"
           stroke="#000000"
           stroke-miterlimit="10"
           points="995.5,476.5 1025.93,476.5     1028.02,476.5 1028.5,476.5   "
           id="polyline551" />
        <path
           clip-path="url(#SVGID_24_)"
           fill="none"
           stroke="#000000"
           stroke-miterlimit="10"
           d="m 1145.49,475.5 h 0.01 c 0.45,0.05 15.12,0.7 25.87,0.92 1.47,0.03 2.86,0.06 4.13,0.07 0.71,0.01 1.38,0.01 2,0.01"
           id="path553" />
        <polyline
           clip-path="url(#SVGID_24_)"
           fill="none"
           stroke="#000000"
           stroke-miterlimit="10"
           points="1025,425.5 1025.5,425.5     1052.49,425.5 1052.5,425.5   "
           id="polyline555" />
        <line
           clip-path="url(#SVGID_24_)"
           fill="none"
           stroke="#000000"
           stroke-miterlimit="10"
           x1="1117.5"
           y1="425.5"
           x2="1146"
           y2="425.5"
           id="line557" />
        <path
           clip-path="url(#SVGID_24_)"
           fill="none"
           stroke="#000000"
           stroke-miterlimit="10"
           d="m 1012.5,455.5 v -0.18 c -0.01,-7.04 -0.64,-15.6 -0.64,-22.61"
           id="path559" />
        <polyline
           clip-path="url(#SVGID_24_)"
           fill="none"
           stroke="#000000"
           stroke-miterlimit="10"
           points="1158.14,455.44     1158.14,455.15 1158.14,431.19   "
           id="polyline561" />
      </g>
    </g>
  </g>
</svg>
