<?xml version="1.0" encoding="UTF-8" standalone="no"?>
<!-- Created with Inkscape (http://www.inkscape.org/) -->

<svg
   width="88.630127mm"
   height="13.620749mm"
   viewBox="0 0 88.630127 13.620749"
   version="1.1"
   id="svg5"
   inkscape:export-filename="C:\Users\u1330167\Desktop\bitmap.png"
   inkscape:export-xdpi="96"
   inkscape:export-ydpi="96"
   sodipodi:docname="space.svg"
   inkscape:version="1.1 (c68e22c387, 2021-05-23)"
   xmlns:inkscape="http://www.inkscape.org/namespaces/inkscape"
   xmlns:sodipodi="http://sodipodi.sourceforge.net/DTD/sodipodi-0.dtd"
   xmlns="http://www.w3.org/2000/svg"
   xmlns:svg="http://www.w3.org/2000/svg">
  <sodipodi:namedview
     id="namedview7"
     pagecolor="#505050"
     bordercolor="#ffffff"
     borderopacity="1"
     inkscape:pageshadow="0"
     inkscape:pageopacity="0"
     inkscape:pagecheckerboard="1"
     inkscape:document-units="mm"
     showgrid="false"
     inkscape:zoom="0.74118967"
     inkscape:cx="-74.879618"
     inkscape:cy="-53.292701"
     inkscape:window-width="1920"
     inkscape:window-height="1017"
     inkscape:window-x="1912"
     inkscape:window-y="-8"
     inkscape:window-maximized="1"
     inkscape:current-layer="layer1" />
  <defs
     id="defs2" />
  <g
     inkscape:label="Layer 1"
     inkscape:groupmode="layer"
     id="layer1"
     transform="translate(-85.244914,-142.78434)">
    <g
       id="g5253"
       transform="matrix(0.26458333,0,0,0.26458333,24.189665,56.725962)">
      <g
         id="ANSI"
         inkscape:export-filename="C:\Users\u1330167\Desktop\ANSI.png"
         inkscape:export-xdpi="300"
         inkscape:export-ydpi="300">
	
	
	
	
	
	
	
	
	
	
	
	
	
	
	
	
	
	
	
	
	
	
	
	
	
	
	
	
	
	
	
	
	<g
   id="g1066">
		<path
   fill="#e6e7e8"
   d="m 234.76,376.74 c -2.2,0 -4,-1.8 -4,-4 v -43.48 c 0,-2.2 1.8,-4 4,-4 h 326.98 c 2.2,0 4,1.8 4,4 v 43.48 c 0,2.2 -1.8,4 -4,4 z"
   id="path1036" />

		<path
   opacity="0.1"
   d="m 234.76,376.74 c -2.2,0 -4,-1.8 -4,-4 v -43.48 c 0,-2.2 1.8,-4 4,-4 h 326.98 c 2.2,0 4,1.8 4,4 v 43.48 c 0,2.2 -1.8,4 -4,4 z"
   id="path1038" />

		<path
   opacity="0.1"
   d="m 234.76,376.74 c -2.2,0 -4,-1.8 -4,-4 v -43.48 c 0,-2.2 1.8,-4 4,-4 h 326.98 c 2.2,0 4,1.8 4,4 v 43.48 c 0,2.2 -1.8,4 -4,4 z"
   id="path1040" />

		<linearGradient
   id="SVGID_65_"
   gradientUnits="userSpaceOnUse"
   x1="302.80981"
   y1="255.5598"
   x2="493.69019"
   y2="446.44019">
			<stop
   offset="0"
   style="stop-color:#FFFFFF"
   id="stop1042" />

			<stop
   offset="0.1938"
   style="stop-color:#FFFFFF;stop-opacity:0"
   id="stop1044" />

			<stop
   offset="0.7967"
   style="stop-color:#020202;stop-opacity:0"
   id="stop1046" />

			<stop
   offset="1"
   style="stop-color:#000000"
   id="stop1048" />

		</linearGradient>

		<path
   opacity="0.2"
   fill="url(#SVGID_65_)"
   d="m 234.76,376.74 c -2.2,0 -4,-1.8 -4,-4 v -43.48 c 0,-2.2 1.8,-4 4,-4 h 326.98 c 2.2,0 4,1.8 4,4 v 43.48 c 0,2.2 -1.8,4 -4,4 z"
   id="path1051"
   style="fill:url(#SVGID_65_)" />

		<path
   fill="#e6e7e8"
   d="m 239.58,363.552 c 0,2.75 2.25,5 5,5 h 307.34 c 2.75,0 5,-2.25 5,-5 v -30.104 c 0,-2.75 -2.25,-5 -5,-5 H 244.58 c -2.75,0 -5,2.25 -5,5 z"
   id="path1053" />

		<linearGradient
   id="SVGID_66_"
   gradientUnits="userSpaceOnUse"
   x1="486.14221"
   y1="436.39221"
   x2="310.35779"
   y2="260.60779">
			<stop
   offset="0"
   style="stop-color:#FFFFFF"
   id="stop1055" />

			<stop
   offset="0.2119"
   style="stop-color:#FFFFFF;stop-opacity:0"
   id="stop1057" />

			<stop
   offset="0.8078"
   style="stop-color:#020202;stop-opacity:0"
   id="stop1059" />

			<stop
   offset="1"
   style="stop-color:#000000"
   id="stop1061" />

		</linearGradient>

		<path
   opacity="0.1"
   fill="url(#SVGID_66_)"
   d="m 239.58,363.552 c 0,2.75 2.25,5 5,5 h 307.34 c 2.75,0 5,-2.25 5,-5 v -30.104 c 0,-2.75 -2.25,-5 -5,-5 H 244.58 c -2.75,0 -5,2.25 -5,5 z"
   id="path1064"
   style="fill:url(#SVGID_66_)" />

	</g>

	
	
	
	
	
	
	
	
	
	
	
	
	
	
	
	
	
	
	
	
	
	
	
	
	
	
	
	
	
	
	
	
	
	
	
	
	
	
	
	
	
	
	
	
	
	
	
	
	
	
	
	
	
	
</g>
    </g>
  </g>
</svg>
