<?xml version="1.0" encoding="UTF-8" standalone="no"?>
<!-- Created with Inkscape (http://www.inkscape.org/) -->

<svg
   width="42.195168mm"
   height="27.907866mm"
   viewBox="0 0 42.195168 27.907866"
   version="1.1"
   id="svg5"
   inkscape:version="1.1 (c68e22c387, 2021-05-23)"
   xmlns:inkscape="http://www.inkscape.org/namespaces/inkscape"
   xmlns:sodipodi="http://sodipodi.sourceforge.net/DTD/sodipodi-0.dtd"
   xmlns="http://www.w3.org/2000/svg"
   xmlns:svg="http://www.w3.org/2000/svg">
  <sodipodi:namedview
     id="namedview7"
     pagecolor="#505050"
     bordercolor="#ffffff"
     borderopacity="1"
     inkscape:pageshadow="0"
     inkscape:pageopacity="0"
     inkscape:pagecheckerboard="1"
     inkscape:document-units="mm"
     showgrid="false"
     inkscape:zoom="2.56"
     inkscape:cx="78.710938"
     inkscape:cy="92.578125"
     inkscape:window-width="1278"
     inkscape:window-height="1378"
     inkscape:window-x="5113"
     inkscape:window-y="0"
     inkscape:window-maximized="0"
     inkscape:current-layer="g139" />
  <defs
     id="defs2" />
  <g
     inkscape:label="Layer 1"
     inkscape:groupmode="layer"
     id="layer1"
     transform="translate(-90.490045,-194.59246)">
    <g
       id="g217"
       transform="matrix(0.99999879,0,0,0.99999879,90.490404,194.59303)">
      <g
         transform="matrix(0.26458,0,0,0.26458,-32.4802,-43.1959)"
         id="g39">
        <path
           fill="#e6e7e8"
           d="m 167.26,214.74 c -2.2,0 -4,-1.8 -4,-4 v -43.48 c 0,-2.2 1.8,-4 4,-4 h 43.48 c 2.2,0 4,1.8 4,4 v 43.48 c 0,2.2 -1.8,4 -4,4 z"
           id="path9" />
        <path
           opacity="0.1"
           d="m 167.26,214.74 c -2.2,0 -4,-1.8 -4,-4 v -43.48 c 0,-2.2 1.8,-4 4,-4 h 43.48 c 2.2,0 4,1.8 4,4 v 43.48 c 0,2.2 -1.8,4 -4,4 z"
           id="path11" />
        <path
           opacity="0.1"
           d="m 167.26,214.74 c -2.2,0 -4,-1.8 -4,-4 v -43.48 c 0,-2.2 1.8,-4 4,-4 h 43.48 c 2.2,0 4,1.8 4,4 v 43.48 c 0,2.2 -1.8,4 -4,4 z"
           id="path13" />
        <linearGradient
           id="a"
           gradientUnits="userSpaceOnUse"
           x1="164.4348"
           y1="164.4348"
           x2="213.5652"
           y2="213.5652">
          <stop
             offset="0"
             style="stop-color:#fff"
             id="stop15" />
          <stop
             offset=".5"
             style="stop-color:#fff;stop-opacity:0"
             id="stop17" />
          <stop
             offset=".5047"
             style="stop-color:#020202;stop-opacity:0"
             id="stop19" />
          <stop
             offset="1"
             style="stop-color:#000"
             id="stop21" />
        </linearGradient>
        <path
           opacity="0.2"
           fill="url(#a)"
           d="m 167.26,214.74 c -2.2,0 -4,-1.8 -4,-4 v -43.48 c 0,-2.2 1.8,-4 4,-4 h 43.48 c 2.2,0 4,1.8 4,4 v 43.48 c 0,2.2 -1.8,4 -4,4 z"
           style="fill:url(#a)"
           id="path24" />
        <path
           fill="#e6e7e8"
           d="m 172.08,201.552 c 0,2.75 2.25,5 5,5 h 23.84 c 2.75,0 5,-2.25 5,-5 v -30.104 c 0,-2.75 -2.25,-5 -5,-5 h -23.84 c -2.75,0 -5,2.25 -5,5 z"
           id="path26" />
        <linearGradient
           id="b"
           gradientUnits="userSpaceOnUse"
           x1="206.0172"
           y1="203.5173"
           x2="171.9828"
           y2="169.4827">
          <stop
             offset="0"
             style="stop-color:#fff"
             id="stop28" />
          <stop
             offset=".5"
             style="stop-color:#fff;stop-opacity:0"
             id="stop30" />
          <stop
             offset=".5047"
             style="stop-color:#020202;stop-opacity:0"
             id="stop32" />
          <stop
             offset="1"
             style="stop-color:#000"
             id="stop34" />
        </linearGradient>
        <path
           opacity="0.1"
           fill="url(#b)"
           d="m 172.08,201.552 c 0,2.75 2.25,5 5,5 h 23.84 c 2.75,0 5,-2.25 5,-5 v -30.104 c 0,-2.75 -2.25,-5 -5,-5 h -23.84 c -2.75,0 -5,2.25 -5,5 z"
           style="fill:url(#b)"
           id="path37" />
      </g>
      <g
         id="g139">
        <path
           fill="#414042"
           d="M 16.7936,5.7129 16.0173,2.8554 H 16.0078 L 15.222,5.7129 H 14.7505 L 13.879,2.3125 h 0.462 l 0.6667,2.8289 h 0.0095 l 0.762,-2.829 h 0.4906 l 0.7524,2.829 h 0.0096 l 0.6905,-2.829 h 0.4525 L 17.265,5.713 Z"
           id="path137"
           sodipodi:nodetypes="ccccccccccccccccc" />
      </g>
    </g>
  </g>
</svg>
