<?xml version="1.0" encoding="UTF-8" standalone="no"?>
<!-- Created with Inkscape (http://www.inkscape.org/) -->

<svg
   width="42.195168mm"
   height="27.907866mm"
   viewBox="0 0 42.195168 27.907866"
   version="1.1"
   id="svg5"
   inkscape:version="1.1 (c68e22c387, 2021-05-23)"
   xmlns:inkscape="http://www.inkscape.org/namespaces/inkscape"
   xmlns:sodipodi="http://sodipodi.sourceforge.net/DTD/sodipodi-0.dtd"
   xmlns="http://www.w3.org/2000/svg"
   xmlns:svg="http://www.w3.org/2000/svg">
  <sodipodi:namedview
     id="namedview7"
     pagecolor="#505050"
     bordercolor="#ffffff"
     borderopacity="1"
     inkscape:pageshadow="0"
     inkscape:pageopacity="0"
     inkscape:pagecheckerboard="1"
     inkscape:document-units="mm"
     showgrid="false"
     inkscape:zoom="2.56"
     inkscape:cx="78.710938"
     inkscape:cy="92.578125"
     inkscape:window-width="1278"
     inkscape:window-height="1378"
     inkscape:window-x="5113"
     inkscape:window-y="0"
     inkscape:window-maximized="0"
     inkscape:current-layer="g139" />
  <defs
     id="defs2" />
  <g
     inkscape:label="Layer 1"
     inkscape:groupmode="layer"
     id="layer1"
     transform="translate(-90.490045,-194.59246)">
    <g
       id="g217"
       transform="matrix(0.99999879,0,0,0.99999879,90.490404,194.59303)">
      <g
         transform="matrix(0.26458,0,0,0.26458,-32.4802,-43.1959)"
         id="g103">
        <path
           fill="#e6e7e8"
           d="m 180.76,268.74 c -2.2,0 -4,-1.8 -4,-4 v -43.48 c 0,-2.2 1.8,-4 4,-4 h 43.48 c 2.2,0 4,1.8 4,4 v 43.48 c 0,2.2 -1.8,4 -4,4 z"
           id="path73" />
        <path
           opacity="0.1"
           d="m 180.76,268.74 c -2.2,0 -4,-1.8 -4,-4 v -43.48 c 0,-2.2 1.8,-4 4,-4 h 43.48 c 2.2,0 4,1.8 4,4 v 43.48 c 0,2.2 -1.8,4 -4,4 z"
           id="path75" />
        <path
           opacity="0.1"
           d="m 180.76,268.74 c -2.2,0 -4,-1.8 -4,-4 v -43.48 c 0,-2.2 1.8,-4 4,-4 h 43.48 c 2.2,0 4,1.8 4,4 v 43.48 c 0,2.2 -1.8,4 -4,4 z"
           id="path77" />
        <linearGradient
           id="e"
           gradientUnits="userSpaceOnUse"
           x1="177.9348"
           y1="218.4348"
           x2="227.0652"
           y2="267.56519">
          <stop
             offset="0"
             style="stop-color:#fff"
             id="stop79" />
          <stop
             offset=".5"
             style="stop-color:#fff;stop-opacity:0"
             id="stop81" />
          <stop
             offset=".5047"
             style="stop-color:#020202;stop-opacity:0"
             id="stop83" />
          <stop
             offset="1"
             style="stop-color:#000"
             id="stop85" />
        </linearGradient>
        <path
           opacity="0.2"
           fill="url(#e)"
           d="m 180.76,268.74 c -2.2,0 -4,-1.8 -4,-4 v -43.48 c 0,-2.2 1.8,-4 4,-4 h 43.48 c 2.2,0 4,1.8 4,4 v 43.48 c 0,2.2 -1.8,4 -4,4 z"
           style="fill:url(#e)"
           id="path88" />
        <path
           fill="#e6e7e8"
           d="m 185.58,255.552 c 0,2.75 2.25,5 5,5 h 23.84 c 2.75,0 5,-2.25 5,-5 v -30.104 c 0,-2.75 -2.25,-5 -5,-5 h -23.84 c -2.75,0 -5,2.25 -5,5 z"
           id="path90" />
        <linearGradient
           id="f"
           gradientUnits="userSpaceOnUse"
           x1="219.5172"
           y1="257.51721"
           x2="185.4828"
           y2="223.4827">
          <stop
             offset="0"
             style="stop-color:#fff"
             id="stop92" />
          <stop
             offset=".5"
             style="stop-color:#fff;stop-opacity:0"
             id="stop94" />
          <stop
             offset=".5047"
             style="stop-color:#020202;stop-opacity:0"
             id="stop96" />
          <stop
             offset="1"
             style="stop-color:#000"
             id="stop98" />
        </linearGradient>
        <path
           opacity="0.1"
           fill="url(#f)"
           d="m 185.58,255.552 c 0,2.75 2.25,5 5,5 h 23.84 c 2.75,0 5,-2.25 5,-5 v -30.104 c 0,-2.75 -2.25,-5 -5,-5 h -23.84 c -2.75,0 -5,2.25 -5,5 z"
           style="fill:url(#f)"
           id="path101" />
      </g>
      <g
         id="g139">
        <path
           fill="#414042"
           d="M 19.4678,17.0643 C 19.317,16.9548 19.1241,16.9 18.8891,16.9 c -0.0952,0 -0.1889,0.0095 -0.281,0.0286 -0.092,0.019 -0.1738,0.0508 -0.2452,0.0952 -0.07124,0.04421 -0.130212,0.105629 -0.1715,0.1786 -0.0428,0.0746 -0.0643,0.1675 -0.0643,0.2786 0,0.1048 0.031,0.1897 0.0929,0.2548 0.062,0.0651 0.1445,0.1183 0.2477,0.1596 0.1031,0.0412 0.2198,0.0754 0.35,0.1024 0.1302,0.027 0.2627,0.0563 0.3977,0.088 0.1349,0.0318 0.2675,0.0691 0.3976,0.112 0.1302,0.0428 0.2469,0.1008 0.35,0.1738 0.102412,0.07213 0.187108,0.166568 0.2477,0.2762 0.062,0.1112 0.0929,0.2509 0.0929,0.4191 0,0.181 -0.0405,0.3358 -0.1214,0.4644 -0.07919,0.126779 -0.185806,0.234182 -0.312,0.3143 -0.127,0.081 -0.269,0.1397 -0.4262,0.1762 -0.15376,0.03613 -0.311153,0.05451 -0.4691,0.0548 -0.1905,0 -0.3707,-0.0238 -0.5406,-0.0715 -0.1698,-0.0476 -0.319,-0.1198 -0.4477,-0.2166 -0.1285,-0.0969 -0.2304,-0.2207 -0.3048,-0.3715 -0.0746,-0.1508 -0.1119,-0.3294 -0.1119,-0.5358 h 0.4286 c 0,0.1429 0.0278,0.2659 0.0834,0.369 0.053,0.100286 0.127843,0.187395 0.219,0.2549 0.0906,0.0667 0.1961,0.1159 0.3168,0.1476 0.1206,0.0318 0.2444,0.0476 0.3714,0.0476 0.1016,0 0.204,-0.0095 0.3072,-0.0285 0.1032,-0.019 0.196,-0.0516 0.2786,-0.0977 0.08137,-0.04492 0.150139,-0.109565 0.2,-0.188 0.0509,-0.0795 0.0763,-0.181 0.0763,-0.3049 0,-0.1175 -0.031,-0.2127 -0.093,-0.2857 -0.0618,-0.073 -0.1444,-0.1323 -0.2476,-0.1786 -0.1031,-0.046 -0.2198,-0.0834 -0.35,-0.112 -0.1302,-0.0285 -0.2627,-0.0579 -0.3977,-0.088 -0.133814,-0.02988 -0.266443,-0.06484 -0.3976,-0.1048 -0.1302,-0.0397 -0.2469,-0.0921 -0.35,-0.1572 -0.101435,-0.06327 -0.186343,-0.149794 -0.2477,-0.2524 -0.062,-0.1032 -0.0929,-0.2326 -0.0929,-0.3881 0,-0.1715 0.035,-0.32 0.1048,-0.4453 0.06786,-0.123224 0.163192,-0.229162 0.2786,-0.3096 0.1159,-0.081 0.2476,-0.1413 0.3953,-0.181 0.14832,-0.03977 0.301242,-0.05977 0.4548,-0.0595 0.1746,0 0.3363,0.0209 0.4858,0.062 0.1492,0.0412 0.2802,0.1063 0.3929,0.1952 0.1127,0.0889 0.2016,0.2008 0.2667,0.3357 0.065,0.135 0.1005,0.2961 0.1071,0.4834 h -0.4286 c -0.0254,-0.2445 -0.1135,-0.4215 -0.2643,-0.531 z"
           id="path137"
           sodipodi:nodetypes="sscccsccsccccsccccccccccccssccscccccccscccccscccs" />
      </g>
    </g>
  </g>
</svg>
