<?xml version="1.0" encoding="UTF-8" standalone="no"?>
<!-- Created with Inkscape (http://www.inkscape.org/) -->

<svg
   width="42.195168mm"
   height="27.907866mm"
   viewBox="0 0 42.195168 27.907866"
   version="1.1"
   id="svg5"
   inkscape:version="1.1 (c68e22c387, 2021-05-23)"
   xmlns:inkscape="http://www.inkscape.org/namespaces/inkscape"
   xmlns:sodipodi="http://sodipodi.sourceforge.net/DTD/sodipodi-0.dtd"
   xmlns="http://www.w3.org/2000/svg"
   xmlns:svg="http://www.w3.org/2000/svg">
  <sodipodi:namedview
     id="namedview7"
     pagecolor="#505050"
     bordercolor="#ffffff"
     borderopacity="1"
     inkscape:pageshadow="0"
     inkscape:pageopacity="0"
     inkscape:pagecheckerboard="1"
     inkscape:document-units="mm"
     showgrid="false"
     inkscape:zoom="2.56"
     inkscape:cx="78.710938"
     inkscape:cy="92.578125"
     inkscape:window-width="1278"
     inkscape:window-height="1378"
     inkscape:window-x="5113"
     inkscape:window-y="0"
     inkscape:window-maximized="0"
     inkscape:current-layer="g139" />
  <defs
     id="defs2" />
  <g
     inkscape:label="Layer 1"
     inkscape:groupmode="layer"
     id="layer1"
     transform="translate(-90.490045,-194.59246)">
    <g
       id="g217"
       transform="matrix(0.99999879,0,0,0.99999879,90.490404,194.59303)">
      <g
         transform="matrix(0.26458,0,0,0.26458,-32.4802,-43.1959)"
         id="g71">
        <path
           fill="#e6e7e8"
           d="m 126.76,268.74 c -2.2,0 -4,-1.8 -4,-4 v -43.48 c 0,-2.2 1.8,-4 4,-4 h 43.48 c 2.2,0 4,1.8 4,4 v 43.48 c 0,2.2 -1.8,4 -4,4 z"
           id="path41" />
        <path
           opacity="0.1"
           d="m 126.76,268.74 c -2.2,0 -4,-1.8 -4,-4 v -43.48 c 0,-2.2 1.8,-4 4,-4 h 43.48 c 2.2,0 4,1.8 4,4 v 43.48 c 0,2.2 -1.8,4 -4,4 z"
           id="path43" />
        <path
           opacity="0.1"
           d="m 126.76,268.74 c -2.2,0 -4,-1.8 -4,-4 v -43.48 c 0,-2.2 1.8,-4 4,-4 h 43.48 c 2.2,0 4,1.8 4,4 v 43.48 c 0,2.2 -1.8,4 -4,4 z"
           id="path45" />
        <linearGradient
           id="c"
           gradientUnits="userSpaceOnUse"
           x1="123.9348"
           y1="218.4348"
           x2="173.0652"
           y2="267.56519">
          <stop
             offset="0"
             style="stop-color:#fff"
             id="stop47" />
          <stop
             offset=".5"
             style="stop-color:#fff;stop-opacity:0"
             id="stop49" />
          <stop
             offset=".5047"
             style="stop-color:#020202;stop-opacity:0"
             id="stop51" />
          <stop
             offset="1"
             style="stop-color:#000"
             id="stop53" />
        </linearGradient>
        <path
           opacity="0.2"
           fill="url(#c)"
           d="m 126.76,268.74 c -2.2,0 -4,-1.8 -4,-4 v -43.48 c 0,-2.2 1.8,-4 4,-4 h 43.48 c 2.2,0 4,1.8 4,4 v 43.48 c 0,2.2 -1.8,4 -4,4 z"
           style="fill:url(#c)"
           id="path56" />
        <path
           fill="#e6e7e8"
           d="m 131.58,255.552 c 0,2.75 2.25,5 5,5 h 23.84 c 2.75,0 5,-2.25 5,-5 v -30.104 c 0,-2.75 -2.25,-5 -5,-5 h -23.84 c -2.75,0 -5,2.25 -5,5 z"
           id="path58" />
        <linearGradient
           id="d"
           gradientUnits="userSpaceOnUse"
           x1="165.5172"
           y1="257.51721"
           x2="131.4828"
           y2="223.4827">
          <stop
             offset="0"
             style="stop-color:#fff"
             id="stop60" />
          <stop
             offset=".5"
             style="stop-color:#fff;stop-opacity:0"
             id="stop62" />
          <stop
             offset=".5047"
             style="stop-color:#020202;stop-opacity:0"
             id="stop64" />
          <stop
             offset="1"
             style="stop-color:#000"
             id="stop66" />
        </linearGradient>
        <path
           opacity="0.1"
           fill="url(#d)"
           d="m 131.58,255.552 c 0,2.75 2.25,5 5,5 h 23.84 c 2.75,0 5,-2.25 5,-5 v -30.104 c 0,-2.75 -2.25,-5 -5,-5 h -23.84 c -2.75,0 -5,2.25 -5,5 z"
           style="fill:url(#d)"
           id="path69" />
      </g>
      <g
         id="g139">
        <path
           fill="#414042"
           d="m 4.9017,16.6 1.3287,3.4004 h -0.5 L 5.3589,18.9764 H 3.9206 l -0.381,1.024 H 3.0776 L 4.4016,16.6 Z M 5.216,18.5954 4.6493,17.0095 H 4.6397 l -0.5762,1.586 z"
           id="path137"
           sodipodi:nodetypes="cccccccccccccc" />
      </g>
    </g>
  </g>
</svg>
