<svg width="116.92" height="90.635" viewBox="0 0 61.87 47.96" xmlns:xlink="http://www.w3.org/1999/xlink" xmlns="http://www.w3.org/2000/svg">
  <defs>
    <path id="a" d="M0 0h1920v1080H0z"/>
    <path id="c" d="M0 0h1920v1080H0z"/>
    <path id="e" d="M406.17 755h232.84v180.27H406.17z"/>
    <path id="g" d="M406.17 755h232.84v180.27H406.17z"/>
  </defs>
  <g transform="matrix(.26458 0 0 .26458 -107.33 -199.63)">
    <clipPath id="b">
      <use xlink:href="#a" overflow="visible" width="100%" height="100%"/>
    </clipPath>
    <g clip-path="url(#b)">
      <clipPath id="d">
        <use xlink:href="#c" overflow="visible" width="100%" height="100%"/>
      </clipPath>
      <g clip-path="url(#d)">
        <clipPath id="f">
          <use xlink:href="#e" overflow="visible" width="100%" height="100%"/>
        </clipPath>
        <g clip-path="url(#f)">
          <clipPath id="h">
            <use xlink:href="#g" overflow="visible" width="100%" height="100%"/>
          </clipPath>
          <path clip-path="url(#h)" fill="#989898" d="M630.15 834.1c-4.92 3.88-30.53-22.17-37.26-21.1-22.02 3.5-44.48-.64-66.52-4.01-6.42-.98-13.04-1.88-19.35-.42-6.55 1.52-12.17 5.46-17.24 9.7-17.14 14.33-30 32.81-47.22 47.07a127.1 127.1 0 0 1-33.22 19.81l-2.47-.4c1.4-8.12 4.7-16.06 8.36-23.6 5.3-10.96 11.48-21.71 14.11-33.5 2.57-11.53 1.19-24.58-6.87-33.48l2.32-.46c3.25-11.69 10.95-22.21 21.35-29.19a57.59 57.59 0 0 1 36.12-9.35c4.74.37 9.39 1.33 14.06 2.17 39.1 7.07 79.39 6.49 118.93 2.12 2-.22 4.07-.44 5.99.13 1.92.57 3.65 2.18 3.62 4.09l1.41.82c6.09 11.97 11.9 24.47 12.65 37.75.63 11.19-2.37 22.11-6.43 32.74zm-96.73-35.92.08.32c-.07 2.83 3.49 6.31 4.65 8.92 3.18-1.44 8.04 3.42 8.35.08.06-.68 3.88-4.68 4-4 2.08 11.33 41.7 12.03 39 4-.91-2.69-51.19-10.78-56.08-9.32m92.53 4.55c.08-6-2.94-11.98-7.93-15.67-1.44-1.07-3.24-1.98-5.01-1.6-2.05.45-3.25 2.4-4.21 4.19l.85.92a20.83 20.83 0 0 0-4.95 10.95c-.66 4.9.36 9.96 2.5 14.47.68 1.43 1.56 2.89 3.01 3.63 2.34 1.19 5.25.08 7.38-1.41a19.57 19.57 0 0 0 8.36-15.48m-38.38-20.84c.69-2.81-.16-6.14-2.72-7.69a6.67 6.67 0 0 0-7.14.43 7.24 7.24 0 0 0-2.82 6.4l.3.98c-.34 2.23-.23 4.53.33 6.73.26.98.65 2.01 1.53 2.58 1.9 1.23 4.36-.45 5.88-2.07 2.02-2.16 3.95-4.55 4.64-7.36m-105.24-.57c.32-3.15-.69-6.55-3.24-8.58a5.2 5.2 0 0 0-3.68-1.25c-1.5.18-2.71 1.24-3.68 2.34-.8.91-1.51 1.88-2.12 2.91l-1.54-.55a17.72 17.72 0 0 0-3.22 17c.63 1.83 1.82 3.75 3.81 4.17 1.3.27 2.66-.19 3.82-.82 2.69-1.5 4.65-3.94 6.29-6.46 1.75-2.69 3.24-5.62 3.56-8.76"/>
          <path clip-path="url(#h)" fill="#afafaf" d="m427.77 890.49 2.42.9c-1.79 1.01-2.91 3.06-3.53 5.03a26.04 26.04 0 0 0-.94 9.93c.19 2.15.6 4.32 1.7 6.2a7.7 7.7 0 0 0 5.18 3.83c2.42.4 4.93-.63 6.7-2.25 1.77-1.62 2.92-3.75 3.9-5.9 1.29-2.8 2.35-5.76 2.48-8.83.13-3.06-.77-6.26-2.98-8.5-2.87-2.88-7.68-3.67-11.58-2.26a12.22 12.22 0 0 0-3.35 1.85m24.98 34.48c-.84-.17-1.64-.42-2.4-.78l-.19.38c-11.41-1.92-22.16 6.19-33.74 6.66-1.75-6.01-5.07-13.76-6.77-19.72-1.47-5.14-2.95-10.31-3.36-15.62-.29-3.74-.05-7.46.58-11.13l2.47.4a127.04 127.04 0 0 0 33.22-19.82c17.22-14.26 30.08-32.74 47.22-47.07 5.07-4.24 10.69-8.18 17.24-9.7 6.31-1.46 12.93-.56 19.35.42 22.04 3.37 44.5 7.51 66.52 4.01 6.73-1.07 32.34 24.98 37.26 21.1l2.34.9c-1.74 4.57-3.69 9.1-5.62 13.56l-.49 1.14a296.15 296.15 0 0 1-28 5.88c-8.98 1.44-19.17 2.18-26.23-3.28-4.12-3.19-6.47-8.04-10.45-11.38-7.28-6.14-19.03-5.82-27.18-.75-8.15 5.06-13 13.93-14.94 23-1.24 5.82-1.44 11.82-2.83 17.61-2.82 11.73-10.57 22.12-20.56 29.53-9.98 7.41-22.1 11.97-34.53 14.32-2.9.54-6.08.92-8.91.34m15.11-59.89 2.75 1.15a11.6 11.6 0 0 0 .88 15.01c1.53 1.55 4.04 2.72 5.97 1.64 1.1-.61 1.7-1.79 2.12-2.93a18.6 18.6 0 0 0 .62-10.8c-.49-2.04-1.42-4.1-3.21-5.31-2.58-1.76-6.42-1.17-8.74.87l-.39.37"/>
          <path clip-path="url(#h)" fill="#b9b9b9" d="m609.65 790.57-.85-.92c.96-1.78 2.16-3.74 4.21-4.19 1.77-.38 3.57.53 5.01 1.6a19.51 19.51 0 0 1 7.93 15.67 19.57 19.57 0 0 1-8.36 15.48c-2.13 1.49-5.04 2.6-7.38 1.41-1.45-.74-2.33-2.2-3.01-3.63a25.96 25.96 0 0 1-2.5-14.47 20.83 20.83 0 0 1 4.95-10.95"/>
          <path clip-path="url(#h)" fill="#9d9d9d" d="M618.19 863.75a61.08 61.08 0 0 1 5.35 28.53c-.23 4.18-1.31 8.93-5.18 10.94v.1l-42.98-.47c-3.81-.04-7.71-.07-11.35 1.04-14.43 4.42-18.14 23.92-32.11 29.52-4.83 1.94-10.25 1.91-15.49 1.84l-35.71-.43c-4.98-.06-10.04-.13-14.81-1.49a27.29 27.29 0 0 1-13.16-8.36c2.83.58 6.01.2 8.91-.34 12.43-2.35 24.55-6.91 34.53-14.32 9.99-7.4 17.74-17.8 20.56-29.53 1.39-5.79 1.59-11.79 2.83-17.62 1.94-9.06 6.79-17.93 14.94-22.99 8.15-5.07 19.9-5.39 27.18.75 3.98 3.34 6.33 8.2 10.45 11.38 7.06 5.46 17.25 4.72 26.23 3.28a296.15 296.15 0 0 0 28-5.88c-2.17 4.98-4.49 10-8.19 14.04v.01m-55.09 19.49a49.97 49.97 0 0 0-4.74 11.01c-.35 1.18-.64 2.48-.08 3.58 1.09 2.15 4.41 1.94 6.74 1.05a24.25 24.25 0 0 0 13.35-12.25c.42-.91.78-1.89.66-2.88-.24-1.86-2.21-3.17-4.18-3.39-1.96-.23-3.91.38-5.79.98l-5.96 1.9"/>
          <path clip-path="url(#h)" fill="#b9b9b9" d="M589.5 807.5c2.7 8.03-36.92 7.33-39-4-.12-.68-3.94 3.32-4 4-.31 3.34-5.17-1.52-8.35-.08-1.16-2.61-4.72-6.09-4.65-8.92l-.08-.32c4.89-1.46 55.17 6.63 56.08 9.32M584.85 774.2c2.56 1.55 3.41 4.88 2.72 7.69-.69 2.81-2.62 5.2-4.64 7.36-1.52 1.62-3.98 3.3-5.88 2.07-.88-.57-1.27-1.6-1.53-2.58-.56-2.2-.67-4.5-.33-6.73l-.3-.98a7.24 7.24 0 0 1 2.82-6.4 6.67 6.67 0 0 1 7.14-.43M579.03 883.75c.12.99-.24 1.97-.66 2.88a24.25 24.25 0 0 1-13.35 12.25c-2.33.89-5.65 1.1-6.74-1.05-.56-1.1-.27-2.4.08-3.58a50.01 50.01 0 0 1 4.74-11.01l5.96-1.9c1.88-.6 3.83-1.21 5.79-.98 1.97.22 3.94 1.53 4.18 3.39M469.61 776.74c.61-1.03 1.32-2 2.12-2.91.97-1.1 2.18-2.16 3.68-2.34a5.2 5.2 0 0 1 3.68 1.25c2.55 2.03 3.56 5.43 3.24 8.58-.32 3.14-1.81 6.07-3.56 8.76-1.64 2.52-3.6 4.96-6.29 6.46-1.16.63-2.52 1.09-3.82.82-1.99-.42-3.18-2.34-3.81-4.17a17.72 17.72 0 0 1 3.22-17zM480.2 869.15a18.6 18.6 0 0 1-.62 10.8c-.42 1.14-1.02 2.32-2.12 2.93-1.93 1.08-4.44-.09-5.97-1.64a11.6 11.6 0 0 1-.88-15.01l-2.75-1.15.39-.37c2.32-2.04 6.16-2.63 8.74-.87 1.79 1.21 2.72 3.27 3.21 5.31M430.19 891.39l-2.42-.9c1-.78 2.13-1.4 3.35-1.85 3.9-1.4 8.71-.62 11.58 2.27 2.21 2.23 3.11 5.43 2.98 8.5-.13 3.06-1.19 6.02-2.48 8.83-.98 2.14-2.13 4.27-3.9 5.9-1.77 1.61-4.28 2.65-6.7 2.24a7.7 7.7 0 0 1-5.18-3.83c-1.1-1.88-1.51-4.05-1.7-6.2-.29-3.33-.05-6.72.94-9.93.62-1.97 1.74-4.02 3.53-5.03"/>
        </g>
      </g>
      <path clip-path="url(#d)" fill="none" stroke="#000" stroke-miterlimit="10" d="m421.91 793.57.56.6c8.06 8.9 9.44 21.95 6.87 33.48-2.63 11.79-8.81 22.54-14.11 33.5-3.66 7.54-6.96 15.48-8.36 23.6-.63 3.68-.87 7.4-.58 11.14.41 5.31 1.89 10.48 3.36 15.62 1.7 5.96 5.02 13.7 6.77 19.72l.08.27"/>
      <path clip-path="url(#d)" fill="none" stroke="#000" stroke-miterlimit="10" d="m415.94 931.25.48-.02c11.58-.47 22.33-8.58 33.74-6.66M451.8 923.79a27.3 27.3 0 0 0 14.11 9.54c4.77 1.36 9.83 1.43 14.81 1.49l35.71.43c5.24.07 10.66.1 15.49-1.84 13.97-5.6 17.68-25.1 32.11-29.52 3.64-1.11 7.54-1.08 11.35-1.04l42.98.47h.43M618.19 863.74l-.74-1.58M618.36 903.22c3.87-2.01 4.95-6.76 5.18-10.94a61.08 61.08 0 0 0-5.35-28.53"/>
      <path clip-path="url(#d)" fill="none" stroke="#000" stroke-miterlimit="10" d="m617.74 864.24.45-.49v-.01c3.7-4.05 6.02-9.06 8.19-14.04l.49-1.14c1.93-4.47 3.88-8.99 5.62-13.57 4.06-10.63 7.06-21.55 6.43-32.74-.75-13.28-6.56-25.78-12.65-37.75M424.79 793.71c3.25-11.69 10.95-22.21 21.35-29.19a57.6 57.6 0 0 1 36.12-9.35c4.74.37 9.39 1.33 14.06 2.17 39.1 7.07 79.39 6.49 118.93 2.12 2-.22 4.07-.44 5.99.13 1.92.57 3.65 2.18 3.62 4.09"/>
      <path clip-path="url(#d)" fill="#b9b9b9" d="M454.5 843.5c29.63-36.8 23.2-38.75-12-7-4.92 4.44-12 3.13-12 7s-8.63 23-2 23c6.63 0 23.57-19.99 26-23"/>
      <path clip-path="url(#d)" fill="#989898" d="M516.5 857.5c2.73.48-7.39 41.02-15 40-7.66-1.03-1-47.69-1-51 0-3.31 27.82-14.88 35-12 5.21 2.1-30.2 21.01-19 23"/>
      <path clip-path="url(#d)" fill="#b9b9b9" d="M519.5 895c-29.85 23.88-35.98 55.18 8 21.5 11.69-8.95 22.5-73.4 8-71-11.71 1.94-3.58 28-8 28s1.27 14.08-8 21.5M618.5 877c0 8 5 20.5-3 20.5s-11.44-26.35-19-29c-47.32-16.58-36.79-12.57 7.5-6 7.92 1.18 14.5 6.5 14.5 14.5"/>
      <path clip-path="url(#d)" d="M0 1.5c1.93 0 1.93-3 0-3s-1.93 3 0 3"/>
    </g>
  </g>
</svg>
