<svg width="55.33" height="54.25" xmlns="http://www.w3.org/2000/svg" viewBox="0 0 166 162.75">
  <defs>
    <style>
      .cls-2{fill:#424242}.cls-4{fill:#707477}.cls-5{fill:#444}.cls-9{fill:none;stroke:#000;stroke-miterlimit:10}
    </style>
  </defs>
  <g id="图层_2" data-name="图层 2">
    <g id="Layer_2" data-name="Layer 2">
      <path d="M144.49 143.16c3.87.72 6.57-8.46 6.71-19.72.05-3.48-6.54-6.31-14.61-6.31S122 120 122 123.44s12.66.15 14.62 6.32c2.83 9.04 5.56 12.97 7.87 13.4Zm-53.13-34.39c.31 1.53.59 6.8.9 8-2.22 1.55 4.26 5.08 7.14 5.66a7.71 7.71 0 0 0 7.35-3c1.47-2 1.75-4.43 2-6.76a34.62 34.62 0 0 0-17.07-4ZM112.21 155c-12.88 1.38-26.79-1.62-37.21-8a47.8 47.8 0 0 0-6.22-3.5 83 83 0 0 0 18.77 1.81c13.27 0 24-2.16 24-4.82s-6.52-10-19.8-10-28.29 7.36-28.29 10c0 .78.92 1.52 2.57 2.17a11.77 11.77 0 0 0-2-.23c-2.34-.07-4.63.61-7 .52-6.8-.24-10.31-6.24-13.45-11a41.67 41.67 0 0 0-4.49-17.67c-.49-1-1-2-1.6-3-3.18-5.37-7.68-10.9-6.25-16.68.63-2.54 2.37-4.85 3.09-7.38a18.6 18.6 0 0 0 .2-7.17q-1.89-18-5.33-35.85a32.3 32.3 0 0 0-1.55-5.72 2.87 2.87 0 0 0-.15-.37l.52-.13a119.69 119.69 0 0 1 20.63-8.85A26.72 26.72 0 0 1 58 27.32c5.55.13 10.21 3.23 14.07 6.38 5.33 4.35 8.54 8.84 12.62 14A39.87 39.87 0 0 0 81.6 58c-.84 6.56-.24 14.1 6.17 18.33 4.9 3.22 11.78 3.57 17.71 5.41 7.81 2.43 14.09 7.72 16.65 14 .86 2.12 1.43 4.49 3.57 5.93a12.47 12.47 0 0 0 4.64 1.6c5.89 1.14 5.86 3.42 11.9 3l.3-.16c.46.5 1 1 1.47 1.5 5.08 4.91 11.59 8.87 16.26 14s7.23 12.28 3.32 17.82a17.6 17.6 0 0 1-8.21 5.67c-4.48 1.6-9.27 1.55-11.25-1.72l-.07-.28c-5.84.84-10.42 4.4-15.43 7a47.48 47.48 0 0 1-16.42 4.9Zm-34.06-42.32c2.68-3.56 1.58-8.47-2.1-11.42s-9.48-4-14.58-3l-.33-.08c-.75 2.85-2.23 7.12-1.85 10a9.49 9.49 0 0 0 5.21 7.39c4.5 2.19 10.96.66 13.65-2.89Zm-.64-57.56a.76.76 0 0 0 .1-.59 11 11 0 0 0-1.21-3.72 1.45 1.45 0 0 0-.52-.61 1.94 1.94 0 0 0-.8-.22 18.83 18.83 0 0 0-6.48.45 7.53 7.53 0 0 0-2.35.82 5 5 0 0 0-1.84 2.11 8.93 8.93 0 0 0-.95 3.94l.25.18c1.75-1.16 4.16-1.43 6.45-1.49a28.09 28.09 0 0 0 6.76-.58 1.22 1.22 0 0 0 .59-.29Zm.13 30.82c0-1.64-4-3-9-3s-9 1.33-9 3 4 3 9 3 9-1.36 9-3ZM47 100.05c1.82 0 9 42.53 9 26.74s-7.14-83.93-9-83.93-3.3 12.81-3.3 28.6 1.47 28.59 3.3 28.59Z" style="fill:#5d6163"/>
      <path class="cls-2" d="M136.59 117.13c8.07 0 14.66 2.83 14.61 6.31-.14 11.26-2.84 20.44-6.71 19.72-2.31-.43-5-4.36-7.9-13.4-2-6.17-14.62-2.83-14.62-6.32s6.54-6.31 14.62-6.31Z"/>
      <path d="M144.13 143.5c2 3.27 6.77 3.32 11.25 1.72-1.76 6.32-9.92 11.3-17.37 14-4.42 1.61-9.1 3.12-14 3s-10.21-3.71-11.83-7.28a47.48 47.48 0 0 0 16.42-4.76c5-2.58 9.59-6.14 15.43-7Z" style="fill:#818487"/>
      <path class="cls-4" d="M84.71 47.67c2.39-5.56 5.67-11.11 8.35-16l.14-.27c16.12 6.92 27 22.13 31.5 36.14 4.34 13.4 7.43 27.69 17.84 38.71l-.3.16c-6 .37-6-1.91-11.9-3a12.47 12.47 0 0 1-4.64-1.6c-2.14-1.44-2.71-3.81-3.57-5.93-2.56-6.29-8.84-11.58-16.65-14-5.93-1.84-12.81-2.19-17.71-5.41-6.41-4.23-7-11.77-6.17-18.33a39.87 39.87 0 0 1 3.11-10.47Zm33.49 14.5c0-7-4-12.62-9-12.62s-9 5.65-9 12.62 4 12.63 9 12.63 9-5.65 9-12.63Z"/>
      <ellipse class="cls-2" cx="109.24" cy="62.17" rx="8.96" ry="12.63"/>
      <path class="cls-5" d="M108.76 112.68c-.26 2.33-.54 4.73-2 6.76a7.71 7.71 0 0 1-7.35 3c-2.88-.58-9.36-4.11-7.14-5.66-.31-1.19-.59-6.46-.9-8h.33a34.62 34.62 0 0 1 17.06 3.9Z"/>
      <path class="cls-2" d="M91.79 130.5c13.28 0 19.8 7.36 19.8 10s-10.77 4.82-24 4.82a83 83 0 0 1-18.77-1.81 14.69 14.69 0 0 0-2.71-.84c-1.65-.65-2.57-1.39-2.57-2.17-.04-2.64 14.97-10 28.25-10Z"/>
      <path class="cls-4" d="M30.92 26.66v.23c-.74.62-1.44 1.93-1.15 2.75a2.69 2.69 0 0 0 2.1 2.05 3 3 0 0 0 2.29-.9 6.34 6.34 0 0 0 1.15-3c-.1.68-1.24-1-2.12-1.17a9.41 9.41 0 0 0-2.27.04Zm62.14 5c-2.68 4.94-6 10.49-8.35 16.05-4.08-5.13-7.29-9.62-12.62-14-3.86-3.15-8.52-6.25-14.07-6.38a26.72 26.72 0 0 0-9.26 1.86A119.69 119.69 0 0 0 28.13 38l-.52.13a16.38 16.38 0 0 0-2.12-3.79C21.89 29.56 13.71 25.5 6 24.29A342.86 342.86 0 0 1 37.67 1.43c1.26.06 2.5.13 3.67.21a125.14 125.14 0 0 1 23.78 4.59 17.18 17.18 0 0 1 6.46 2.89c1.91 1.63 2.66 3.88 3.63 6C78.44 22 84.89 28 93.06 31.62Zm-51.25-9.59C44.93 22.07 56 13 56 8.7S45 6.47 41.86 6.47s-14.15 12-14.15 16.34 10.98-.74 14.1-.74Z"/>
      <path class="cls-5" d="M76.05 101.26c3.68 2.95 4.78 7.86 2.1 11.42s-9.15 5.08-13.65 2.91a9.49 9.49 0 0 1-5.21-7.39c-.38-2.89 1.1-7.16 1.85-10l.33.08c5.1-.99 10.9.02 14.58 2.98ZM77.61 54.53a.76.76 0 0 1-.1.59 1.22 1.22 0 0 1-.59.29 28.09 28.09 0 0 1-6.76.58c-2.29.06-4.7.33-6.45 1.49l-.25-.18a8.93 8.93 0 0 1 .95-3.94 5 5 0 0 1 1.84-2.11 7.53 7.53 0 0 1 2.35-.82 18.83 18.83 0 0 1 6.48-.43 1.94 1.94 0 0 1 .8.22 1.45 1.45 0 0 1 .52.61 11 11 0 0 1 1.21 3.7Z"/>
      <ellipse class="cls-2" cx="68.68" cy="85.94" rx="8.96" ry="2.97"/>
      <path d="M68.78 143.54a20.47 20.47 0 0 1-2.71-.84 14.69 14.69 0 0 1 2.71.84Z" style="fill:#b9b9b9"/>
      <path class="cls-2" d="M56 126.79c0 15.79-7.14-26.74-9-26.74s-3.3-12.8-3.3-28.59 1.48-28.6 3.3-28.6 9 68.14 9 83.93ZM56 8.7c0 4.31-11 13.37-14.14 13.37s-14.15 5.05-14.15.74 11-16.34 14.15-16.34S56 4.39 56 8.7Z"/>
      <path class="cls-4" d="M43.69 132c-6.29-9.54-16.84-17.3-29.36-21.57-3-1-6.12-1.89-8.42-3.67a12.58 12.58 0 0 1-4.26-7.16c-2.84-11 2.19-23.09 12.76-30.65 1.25-.9 2.64-1.82 3-3.12a4.8 4.8 0 0 0-.84-3.49 52.2 52.2 0 0 0-3.57-5.5l1.27-.48c3.69 4.79 7.83 8.78 10.54 8.78 6 0 2.83-19.42 2.83-24.13a6.93 6.93 0 0 0-.41-2.36l.51-.12a32.3 32.3 0 0 1 1.55 5.72q3.42 17.86 5.33 35.85l-1.32.08a8.73 8.73 0 0 0-7.95 3.48c-1.63 2.24-2.05 4.89-2.36 7.46a16.73 16.73 0 0 0 .01 5.35 19.05 19.05 0 0 0 2.18 5.19c2.05 3.8 10.42 9.46 14.07 12.66A41.67 41.67 0 0 1 43.69 132ZM18.23 94.48c0-4.72 9.47-17.45 6.6-17.45s-17 12.73-17 17.45S10.18 103 13 103s5.23-3.8 5.23-8.52Z"/>
      <path class="cls-2" d="M37.6 111.35c.58 1 1.11 2 1.6 3-3.65-3.2-12-8.86-14.07-12.66A19.05 19.05 0 0 1 23 96.47a16.73 16.73 0 0 1 0-5.33c.31-2.57.73-5.22 2.36-7.46a8.73 8.73 0 0 1 8-3.48l1.32-.08a18.6 18.6 0 0 1-.2 7.17c-.72 2.53-2.46 4.84-3.09 7.38-1.47 5.78 3.03 11.33 6.21 16.68Z"/>
      <path d="M33.23 26.64c.88.13 2 1.85 2.12 1.17a6.34 6.34 0 0 1-1.15 3 3 3 0 0 1-2.29.9 2.69 2.69 0 0 1-2.1-2.05c-.29-.82.41-2.13 1.15-2.75v-.23a9.41 9.41 0 0 1 2.27-.04Z" style="fill:#afafaf"/>
      <path d="M16.28.56c6.39.42 14.47.55 21.39.87A342.86 342.86 0 0 0 6 24.29a29.5 29.5 0 0 0-4.23-.37A60.93 60.93 0 0 1 10.38 3.2 5.46 5.46 0 0 1 13 .8a8 8 0 0 1 3.28-.24Z" style="fill:#898c8f"/>
      <path class="cls-4" d="M27.61 38.16a2.87 2.87 0 0 1 .15.37l-.51.12c-1.31-3.57-5.48-6.19-10.43-6.19C10.83 32.46 6 36.29 6 41c0 2.57 3.85 9.55 8.32 15.35l-1.32.49A86 86 0 0 0 .78 43.23l.22-.29a55.55 55.55 0 0 1 .7-19 29.5 29.5 0 0 1 4.3.35c7.75 1.21 15.93 5.27 19.53 10.08a16.38 16.38 0 0 1 2.08 3.79Z"/>
      <path class="cls-2" d="M27.66 41c0 4.71 3.16 24.13-2.83 24.13-2.71 0-6.85-4-10.54-8.78C9.82 50.56 6 43.58 6 41c0-4.72 4.86-8.55 10.85-8.55 4.95 0 9.12 2.62 10.43 6.19a6.93 6.93 0 0 1 .38 2.36ZM24.83 77c2.87 0-6.6 12.73-6.6 17.45S15.91 103 13 103s-5.14-3.8-5.14-8.52S22 77 24.83 77Z"/>
      <path class="cls-9" d="M68.78 143.54A47.8 47.8 0 0 1 75 147c10.42 6.34 24.33 9.34 37.21 7.92a47.48 47.48 0 0 0 16.42-4.76c5-2.58 9.59-6.14 15.43-7l.43-.06M.78 43.23A86 86 0 0 1 13 56.84a52.2 52.2 0 0 1 3.53 5.47 4.8 4.8 0 0 1 .84 3.49c-.38 1.3-1.77 2.22-3 3.12C3.8 76.48-1.23 88.55 1.61 99.57a12.58 12.58 0 0 0 4.26 7.16c2.3 1.78 5.46 2.65 8.42 3.67 12.52 4.27 23.07 12 29.36 21.57 3.14 4.75 6.65 10.75 13.45 11 2.34.09 4.63-.59 7-.52a11.77 11.77 0 0 1 2 .23"/>
      <path class="cls-9" d="M112.07 154.64a1.73 1.73 0 0 0 .14.32c1.62 3.57 7.1 7.16 11.83 7.28s9.55-1.39 14-3c7.45-2.72 15.61-7.7 17.37-14a2.17 2.17 0 0 0 .07-.24"/>
      <path class="cls-9" d="M144.13 143.5c2 3.27 6.77 3.32 11.25 1.72a17.6 17.6 0 0 0 8.21-5.67c3.91-5.54 1.34-12.66-3.32-17.82s-11.18-9.12-16.26-14c-.51-.49-1-1-1.47-1.5-10.41-11-13.5-25.31-17.84-38.71-4.53-14-15.38-29.22-31.5-36.14M93.14 31.65h-.08C84.89 28 78.44 22 75.21 15.08c-1-2.08-1.72-4.33-3.63-6a17.18 17.18 0 0 0-6.46-2.89 125.14 125.14 0 0 0-23.78-4.55M41.34 1.64c-1.17-.08-2.41-.15-3.67-.21-6.92-.32-15-.45-21.39-.87A8 8 0 0 0 13 .8a5.46 5.46 0 0 0-2.59 2.4 60.93 60.93 0 0 0-8.7 20.72 55.55 55.55 0 0 0-.7 19"/>
    </g>
  </g>
</svg>
