<svg width="187.23" height="197.54" xmlns="http://www.w3.org/2000/svg" viewBox="0 0 187.22 197.53">
  <defs>
    <style>
      .cls-4{fill:#424548}.cls-6{fill:#333332}.cls-10{fill:#707477}.cls-13{fill:none;stroke:#000;stroke-miterlimit:10}
    </style>
  </defs>
  <g id="图层_2" data-name="图层 2">
    <g id="Layer_2" data-name="Layer 2">
      <path d="M67.76 126.65a2.17 2.17 0 0 1 .07-.24 1.47 1.47 0 0 1 .56-.89 1.48 1.48 0 0 1 1-.08L86.26 128c2.46.36 5.15.69 7.27-.6 2.64-1.6 3.39-5 3.83-8.07a8.44 8.44 0 0 0 0-3.71 8.56 8.56 0 0 0-2.56-3.39l-5.89-5.57A19.87 19.87 0 0 0 84.1 103a6.68 6.68 0 0 0-5.83-.24c-1 .52-1.83 1.38-2.83 1.92-1.79 1-4 .85-5.81 1.77a11.19 11.19 0 0 0-3.39 3.12c-3.08 3.76-6.29 7.83-6.74 12.67v.3a19.6 19.6 0 0 0 7.5 7.6 18.68 18.68 0 0 1 .76-3.49Zm118.73 1.85c1.48 10.59-4.32 22.9-11.44 30.89a87.72 87.72 0 0 1-7.13 7c-9.57-1.14-22.78-2.84-31.75-5.93-4.37-1.51-8.63-3.47-13.2-4.13s-9.69.23-12.81 3.63c-1.36 1.49-2.26 3.34-3.53 4.91-1.89 2.32-4.52 3.9-7.1 5.42l-1.52.89-.1-.18a12.37 12.37 0 0 1-12.22-9 7.51 7.51 0 0 0-.94-2.64c-.9-1.2-2.56-1.48-3.89-2.19-2.09-1.12-3.33-3.3-4.65-5.26-8.69-12.9-28.24-20.57-43.43-16.81l-.05-.21c-5.22-3.5-8.39-9.45-9.82-15.57-.12-.52-.23-1.05-.34-1.58C24.3 119.65 29.65 121 36 121c7.73 0 14-2 14-4.5s8.72-15.5 1-15.5c-7.22 0-26.25 11.35-28.73 14.88a92.71 92.71 0 0 1-.53-15.28q.11-4.78.2-9.56h.3a107 107 0 0 0 18.42 1c8.65-.26 17.31-1.57 25.94-.8 7.28.66 14.4 2.79 21.7 2.9 9.12.13 18.63-2.85 27.12.46 4.34 1.7 8 4.93 12.5 6.18 6.79 1.89 13.85-1.08 20.46-3.52s18.17-1.59 24.12 2.18l.35.08c-.92 3.46.57 7.1 2.18 10.32a124.14 124.14 0 0 0 11.46 18.66Zm-9.5 17c0-3-9.85-5.5-22-5.5s-34-1-34 2-31.15 11-19 11 75.01-4.46 75.01-7.5ZM157 117c0-.55-7.84-1-17.5-1s-17.5.45-17.5 1-16.66 8-7 8 42-7.45 42-8Z" style="fill:#4c4f52"/>
      <path d="m156.15 31.61.34-.11c3.51 4.56 9.57 10 13 14.61a42.71 42.71 0 0 1 3.76 6.78 77.75 77.75 0 0 1 5.72 14.57c1.25 5.07 1.48 10.52-.26 15.44l-.25-.05c-.56 3.13-1.46 8.66-2.94 11.54-2.29-7.41-4.61-14.88-8.37-21.66S158 59.78 151 56.42c-1.74-.84-3.73-1.51-5.58-.93-1.54.49-2.68 1.75-3.88 2.85A23.39 23.39 0 0 1 118.09 63c-4.48-1.65-8.32-4.65-12.07-7.6-11.68-9.21-23.5-18.54-32.52-30.34a8.49 8.49 0 0 0-3.08-2.91 8.23 8.23 0 0 0-3.24-.43H59.3a4.18 4.18 0 0 0-2.19.41 4.25 4.25 0 0 0-1.49 2.55c-2.12 7.22-4.54 14.42-8.56 20.76s-9.82 11.79-17 14.09c-2.64.85-5.79 1.52-7 4a8.73 8.73 0 0 0-.63 3.74q-.24 11.88-.5 23.76-.09 4.77-.2 9.56a92.71 92.71 0 0 0 .53 15.28 1.17 1.17 0 0 0-.27.62 1.9 1.9 0 0 0 .58 1.29c.11.53.22 1.06.34 1.58 1.43 6.12 4.6 12.07 9.82 15.57l.05.21c-.43.11-.86.22-1.29.35l-.33.1c-.86 8.3-5.41 20.72-9.67 27.9l-.37.25C17 157.65 13.05 151.42 9.52 145a65.23 65.23 0 0 0 7.5-8c1.39-1.76 2.73-3.7 3-5.93.28-2.72-1.14-5.32-2.71-7.55a13.16 13.16 0 0 0-5.45-5c-2.3-.94-9.94-1.1-11.33 1a20 20 0 0 1 1.41-7.88c1.51-3.71 4.24-6.84 5.73-10.56a17.86 17.86 0 0 0-.53-14.24l.57-.1c2.65-9-.35-18.67-3.45-27.57h.11c-.53-1.64-.87-4.34-.25-5.77l.9.11c.62-4.59 1.9-9.47 5.91-11.53 2.87-1.47 6.3-1 9.51-1.33 7-.73 13.16-5.48 17.21-11.28 3.85-5.6 6.35-12.52 8.53-18.97l.31.1C51 9 56.43 9.8 61.05 8.56c1.84-.49 3.53-4.46 5.34-5.07a27.68 27.68 0 0 1 5.88-1.06C77.1 1.9 83.66 1 88.49.5a.83.83 0 0 0 0 .15c1.26 5.19 10.87 15 15.41 17.52s9.67 4.26 14.09 7.11c4.58 2.95 8.43 7.14 13.51 9.11 7.29 2.8 17.18-.39 24.65-2.78Z" style="fill:#6f7376"/>
      <path d="M59 28.61a6.8 6.8 0 0 0 1 9.86 1.85 1.85 0 0 0 1.29.41c.44-.07.64-.86 1.07-.76C78.2 42 67.47 30.72 59 28.61Zm-4.64 25.13C53 56.38 52 63 51.37 65.65a10.2 10.2 0 0 0 1.08 8.16c2.72 4 8.33 4.45 13.16 4.44a2.91 2.91 0 0 0 1.52-.25 2.68 2.68 0 0 0 .92-1.2c2.37-4.9 2.72-10.91.21-15.74s-8.11-8.09-13.48-7.19Zm121.07 40.63a7.2 7.2 0 0 1-.27.49 19.74 19.74 0 0 0-2.34 4.57v.13l-.35-.08c-6-3.77-17.51-4.61-24.12-2.18s-13.67 5.41-20.46 3.52c-4.49-1.25-8.16-4.48-12.5-6.18-8.49-3.31-18-.33-27.12-.46C81 94.09 73.87 92 66.59 91.3c-8.63-.77-17.29.54-25.94.8a107 107 0 0 1-18.42-1h-.3q.26-11.88.5-23.76a8.73 8.73 0 0 1 .63-3.74c1.24-2.49 4.39-3.16 7-4 7.15-2.3 13-7.76 17-14.09s6.44-13.61 8.56-20.8a4.25 4.25 0 0 1 1.49-2.55 4.18 4.18 0 0 1 2.19-.41h7.88a8.23 8.23 0 0 1 3.24.43 8.49 8.49 0 0 1 3.08 2.91c9 11.8 20.84 21.13 32.52 30.32 3.75 2.95 7.59 5.95 12.07 7.6a23.39 23.39 0 0 0 23.42-4.64c1.2-1.1 2.34-2.36 3.88-2.85 1.85-.58 3.84.09 5.58.93 7 3.36 12.34 9.5 16.09 16.29s6.08 14.26 8.37 21.63ZM163 84c0-3.31-9.18-6-20.5-6S122 80.69 122 84s-5.32 10 6 10 35-6.69 35-10Zm-55.05-3.71c3.14-4.37 3.3-10.82 0-15.06S98 59.69 93.59 62.66l-.1-.16c-3.76 1.34-5.86 7-6.57 10.93s-.82 8.83 2.42 11.28a8.87 8.87 0 0 0 4.39 1.55 15.51 15.51 0 0 0 14.21-5.97Z" style="fill:#5d6163"/>
      <path class="cls-4" d="M155 140c12.15 0 22 2.46 22 5.5s-62.85 7.5-75 7.5 19-8 19-11 21.84-2 34-2Z"/>
      <path d="M167.92 166.43c-5.48 4.88-11.39 9.33-16.82 14.28-3.52 3.21-7.16 6.82-11.87 7.56-2.87.45-6-.2-8.56 1.2-1.39.77-2.4 2.06-3.69 3a14.57 14.57 0 0 1-6.94 2.14c-15.17 1.71-30.76-1.88-45.66 1.4-3.5.77-7.36 1.87-10.47.09-2.19-1.25-3.43-3.64-5.09-5.54a16.28 16.28 0 0 0-3.66-3.09c6.49-.54 13.6-2.57 20.58-5.3A164.84 164.84 0 0 0 98 171.22l1.52-.89c2.58-1.52 5.21-3.1 7.1-5.42 1.27-1.57 2.17-3.42 3.53-4.91 3.12-3.4 8.23-4.29 12.81-3.63s8.83 2.62 13.2 4.13c8.98 3.09 22.19 4.79 31.76 5.93ZM128 177c17.12 0 14.94-5.42 14-6-7.46-4.59-12.9.69-19.42 6-14.58.2-25.58 1-25.58 2s-9.12 6 8 6c7.3 0 12.74-4 17.58-8H128Z" style="fill:#7e8285"/>
      <path class="cls-6" d="M142.49 78c11.32 0 20.5 2.69 20.5 6s-23.68 10-35 10-6-6.69-6-10 9.18-6 20.5-6Z"/>
      <path class="cls-4" d="M139.49 116c9.66 0 17.5.45 17.5 1s-32.34 8-42 8 7-7.45 7-8 7.84-1 17.5-1Z"/>
      <path d="M138.55 9.69c8.13 4.89 9.58 17.07 17.6 21.92-7.47 2.42-17.36 5.58-24.61 2.78-5.08-2-8.93-6.16-13.51-9.11-4.42-2.85-9.5-4.53-14.09-7.11S89.79 5.84 88.53.65c12.69 1.11 25.39 5.11 38.08 6.17 4.12.34 8.39.74 11.94 2.87Z" style="fill:#898c8f"/>
      <path class="cls-6" d="M142 171c.94.58 3.12 6-14 6h-5.42c6.51-5.31 11.95-10.59 19.42-6ZM93.59 62.66c4.44-3 11-1.64 14.33 2.57s3.16 10.69 0 15.06a15.51 15.51 0 0 1-14.21 6 8.87 8.87 0 0 1-4.39-1.55c-3.24-2.45-3.15-7.28-2.42-11.28s2.81-9.59 6.57-10.93ZM97 179c0-1 11-1.8 25.58-2-4.84 4-10.28 8-17.58 8-17.13 0-8-4.9-8-6Z"/>
      <path d="m97.91 171 .1.18a164.84 164.84 0 0 1-22.27 10.92l-.25-.64c-1-.05-5.5-1.89-5.31-2.83s.67-1.87.45-2.8a3.86 3.86 0 0 0-1.36-1.82c-3.64-3.23-7.35-6.51-11.81-8.45-8.11-3.52-17.49-2.13-26 .31-1.35.39-7 1.18-7 2.59l-.07.05q-1.67-2.38-3.3-4.8l.37-.25c4.26-7.18 8.81-19.6 9.67-27.9l.33-.1c.43-.13.86-.24 1.29-.35C48 131.39 67.52 139.06 76.21 152c1.32 2 2.56 4.14 4.65 5.26 1.33.71 3 1 3.89 2.19a7.51 7.51 0 0 1 .94 2.64A12.37 12.37 0 0 0 97.91 171Z" style="fill:#222627"/>
      <path class="cls-4" d="M67.76 126.65a18.68 18.68 0 0 0-.74 3.49 19.6 19.6 0 0 1-7.53-7.64v-.3c.45-4.84 3.66-8.91 6.74-12.67a11.19 11.19 0 0 1 3.39-3.12c1.81-.92 4-.8 5.81-1.77 1-.54 1.81-1.4 2.83-1.92a6.68 6.68 0 0 1 5.83.24 19.87 19.87 0 0 1 4.78 3.66l5.89 5.57a8.56 8.56 0 0 1 2.56 3.39 8.44 8.44 0 0 1 0 3.71c-.44 3-1.19 6.47-3.83 8.07-2.12 1.29-4.81 1-7.27.6l-16.85-2.52a1.48 1.48 0 0 0-1 .08 1.47 1.47 0 0 0-.56.89 2.17 2.17 0 0 0-.05.24ZM88 116.5c0-2.49-3.58-4.5-8-4.5s-8 2-8 4.5 3.58 4.5 8 4.5 8-2 8-4.5Z"/>
      <ellipse cx="79.99" cy="116.5" rx="8" ry="4.5" style="fill:#717577"/>
      <path class="cls-10" d="m75.49 181.5.25.64c-7 2.73-14.09 4.76-20.58 5.3-5.39-3.42-12.53-4.29-18.52-7.11l.4-.83c2.13.79 4.41 1.32 6.43.4a26.6 26.6 0 0 1 2.36-1.25c1.7-.58 3.52.17 5.21.79 6.45 2.36 17.72 3.45 24.45 2.06Z"/>
      <path class="cls-10" d="m37 179.5-.4.83a22.45 22.45 0 0 1-3.44-2c-3.6-2.51-6.23-6.15-8.74-9.76v-.06l.07-.05c0-1.41 5.63-2.2 7-2.59 8.5-2.44 17.88-3.83 26-.31 4.46 1.94 8.17 5.22 11.81 8.45a3.86 3.86 0 0 1 1.36 1.82c.22.93-.27 1.86-.45 2.8s4.35 2.78 5.31 2.83c-6.73 1.39-18 .3-24.45-2.06-1.69-.62-3.51-1.37-5.21-.79a26.6 26.6 0 0 0-2.36 1.25c-2.05.96-4.33.43-6.5-.36Z"/>
      <path class="cls-6" d="M68.26 61c2.51 4.83 2.16 10.84-.21 15.74a2.68 2.68 0 0 1-.92 1.2 2.91 2.91 0 0 1-1.52.28c-4.83 0-10.44-.45-13.16-4.44a10.2 10.2 0 0 1-1.08-8.16C52 63 53 56.38 54.36 53.74l.42.1c5.37-.9 10.96 2.36 13.48 7.16ZM59 28.61c8.47 2.11 19.2 13.39 3.38 9.51-.43-.1-.63.69-1.07.76a1.85 1.85 0 0 1-1.31-.41 6.8 6.8 0 0 1-1.08-9.82Z"/>
      <path d="M51 101c7.73 0-1 13-1 15.5s-6.28 4.5-14 4.5c-6.34 0-11.69-1.35-13.42-3.21-.11-.63-.22-1.27-.31-1.91C24.74 112.35 43.77 101 51 101Z" style="fill:#434342"/>
      <path d="M22.26 115.88c.09.64.2 1.28.31 1.91a1.9 1.9 0 0 1-.57-1.29 1.17 1.17 0 0 1 .26-.62Z" style="fill:#989898"/>
      <path class="cls-6" d="M17.28 123.49c1.57 2.23 3 4.83 2.71 7.55-.24 2.23-1.58 4.17-3 5.93a65.23 65.23 0 0 1-7.5 8q-2.16-3.91-4.09-8C2.82 131.54.56 125.43.5 119.49c1.39-2.07 9-1.91 11.33-1a13.16 13.16 0 0 1 5.45 5Z"/>
      <path class="cls-13" d="M6.22 85.19a14.14 14.14 0 0 1 .89 1.62 17.86 17.86 0 0 1 .53 14.24c-1.49 3.72-4.22 6.85-5.73 10.56a20 20 0 0 0-1.41 7.88c.06 5.94 2.32 12 4.93 17.52q1.94 4 4.09 8c3.53 6.45 7.47 12.68 11.6 18.78q1.64 2.42 3.3 4.8v.06c2.51 3.61 5.14 7.25 8.74 9.76a22.45 22.45 0 0 0 3.44 2c6 2.82 13.13 3.69 18.52 7.11a16.28 16.28 0 0 1 3.66 3.09c1.66 1.9 2.9 4.29 5.09 5.54 3.11 1.78 7 .68 10.47-.09 14.9-3.28 30.49.31 45.66-1.4a14.57 14.57 0 0 0 6.94-2.14c1.29-.91 2.3-2.2 3.69-3 2.54-1.4 5.69-.75 8.56-1.2 4.71-.74 8.35-4.35 11.87-7.56 5.43-5 11.34-9.4 16.82-14.28a87.72 87.72 0 0 0 7.13-7c7.12-8 12.92-20.3 11.44-30.89M186.49 128.5A124.14 124.14 0 0 1 175 109.9c-1.61-3.22-3.1-6.86-2.18-10.32v-.13a19.74 19.74 0 0 1 2.34-4.57c.09-.15.18-.31.27-.49 1.48-2.88 2.38-8.41 2.94-11.54 0-.12.05-.24.07-.35M178.67 82.9c1.74-4.92 1.51-10.37.26-15.44a77.75 77.75 0 0 0-5.72-14.57 42.71 42.71 0 0 0-3.76-6.78c-3.39-4.65-9.45-10-13-14.61"/>
      <path class="cls-13" d="m156.79 32-.64-.36c-8-4.85-9.47-17-17.6-21.92-3.54-2.13-7.82-2.53-11.94-2.87-12.69-1.09-25.39-5.09-38.08-6.2h-.39M88.49.5C83.66 1 77.1 1.9 72.27 2.43a27.68 27.68 0 0 0-5.88 1.06c-1.81.61-3.5 4.58-5.34 5.07C56.43 9.8 51 9 46.49 10.5M46.49 9.5c-.1.3-.2.6-.31.9-2.18 6.45-4.68 13.37-8.56 18.9-4 5.8-10.17 10.55-17.21 11.28-3.21.33-6.64-.14-9.51 1.33C6.89 44 5.61 48.85 5 53.44c-.08.56-.14 1.06-.2 1.56M4.23 59.14c3.1 8.9 6.1 18.53 3.45 27.57M4.49 59.5c0-.12-.1-.26-.15-.4-.53-1.64-.87-4.34-.25-5.77"/>
    </g>
  </g>
</svg>
