<svg width="116.92" height="90.635" xmlns="http://www.w3.org/2000/svg" viewBox="0 0 233.84 181.27">
  <defs>
    <style>
      .cls-2{fill:#5d6163}.cls-3{fill:#4c4c4b}.cls-5{fill:#2e2f2f}.cls-7{fill:none;stroke:#000;stroke-miterlimit:10}
    </style>
  </defs>
  <g id="图层_2" data-name="图层 2">
    <g id="Layer_2" data-name="Layer 2">
      <path d="M224.48 79.6c-4.92 3.88-30.53-22.17-37.26-21.1-22 3.5-44.48-.64-66.52-4-6.42-1-13-1.88-19.35-.42-6.55 1.52-12.17 5.46-17.24 9.7-17.11 14.32-30 32.8-47.22 47.06a127.07 127.07 0 0 1-33.22 19.81l-2.47-.39c1.4-8.13 4.7-16.07 8.36-23.61 5.3-11 11.48-21.71 14.11-33.5 2.57-11.53 1.19-24.58-6.87-33.48l2.32-.46A52.58 52.58 0 0 1 40.47 10 57.59 57.59 0 0 1 76.59.67a142.07 142.07 0 0 1 14.06 2.17C129.75 9.91 170 9.33 209.58 5a15.26 15.26 0 0 1 6 .13c1.92.57 3.65 2.18 3.62 4.09l1.41.82c6.09 12 11.9 24.47 12.65 37.75.63 11.19-2.37 22.11-6.43 32.74Zm-96.73-35.92.08.32c-.07 2.83 3.49 6.31 4.65 8.92 3.18-1.44 8 3.42 8.35.08.06-.68 3.88-4.68 4-4 2.08 11.33 41.7 12 39 4-.91-2.69-51.19-10.78-56.08-9.32Zm92.53 4.55a19.51 19.51 0 0 0-7.93-15.67c-1.44-1.07-3.24-2-5-1.6-2.05.45-3.25 2.41-4.21 4.19l.85.92A20.83 20.83 0 0 0 199 47a26 26 0 0 0 2.5 14.47 7.37 7.37 0 0 0 3 3.63c2.34 1.19 5.25.08 7.38-1.41a19.57 19.57 0 0 0 8.4-15.46ZM181.9 27.39c.69-2.81-.16-6.14-2.72-7.69a6.67 6.67 0 0 0-7.14.43 7.24 7.24 0 0 0-2.82 6.4l.3 1a17 17 0 0 0 .33 6.73 4.18 4.18 0 0 0 1.53 2.58c1.9 1.23 4.36-.45 5.88-2.07 2.02-2.18 3.95-4.57 4.64-7.38Zm-105.24-.57a9.68 9.68 0 0 0-3.24-8.58A5.2 5.2 0 0 0 69.74 17a6.17 6.17 0 0 0-3.68 2.34 19.31 19.31 0 0 0-2.12 2.91l-1.54-.55a17.72 17.72 0 0 0-3.22 17c.63 1.83 1.82 3.75 3.81 4.17a5.77 5.77 0 0 0 3.82-.87 18.79 18.79 0 0 0 6.29-6.46 20.22 20.22 0 0 0 3.56-8.72ZM48.83 89c29.63-36.79 23.19-38.75-12-7-4.92 4.44-12 3.13-12 7s-8.63 23-2 23 23.58-20 26-23Z" style="fill:#818487"/>
      <path class="cls-2" d="m44.68 169.69-.19.38c-11.41-1.92-22.16 6.19-33.74 6.66C9 170.72 5.68 163 4 157c-1.49-5.13-3-10.3-3.38-15.61a45.06 45.06 0 0 1 .58-11.13l2.47.39a127.07 127.07 0 0 0 33.22-19.81C54.11 96.58 67 78.1 84.11 63.77c5.07-4.24 10.69-8.18 17.24-9.7 6.31-1.46 12.93-.56 19.35.42 22 3.37 44.5 7.51 66.52 4 6.73-1.07 32.34 25 37.26 21.1l2.34.89c-1.74 4.58-3.69 9.1-5.62 13.57l-.49 1.14q-13.85 3.61-28 5.88c-9 1.44-19.17 2.18-26.23-3.28-4.12-3.19-6.47-8-10.45-11.38-7.28-6.14-19-5.82-27.18-.75a26.22 26.22 0 0 0-2.9 2.07l-2.47-.32c4.71-3.63 8.26-6.65 6.35-7.42-7.17-2.88-35 8.69-35 12s-6.66 50 1 51c5.6.75 12.55-21 14.76-32.71l2.9.57c-.89 5.13-1.19 10.35-2.41 15.42-2.82 11.73-10.57 22.12-20.56 29.53s-22.1 12-34.53 14.32a23.94 23.94 0 0 1-8.91.34 10.37 10.37 0 0 1-2.4-.77Zm17.51-59.11 2.75 1.15a11.59 11.59 0 0 0 .88 15c1.53 1.55 4 2.72 6 1.64a5.22 5.22 0 0 0 2.12-2.93 18.61 18.61 0 0 0 .62-10.8 8.61 8.61 0 0 0-3.21-5.31c-2.58-1.76-6.42-1.17-8.74.87ZM22.1 136l2.42.9a8.62 8.62 0 0 0-3.53 5 26 26 0 0 0-.94 9.93 14.69 14.69 0 0 0 1.7 6.2 7.7 7.7 0 0 0 5.18 3.83 8.21 8.21 0 0 0 6.7-2.25 17.77 17.77 0 0 0 3.9-5.89A23.89 23.89 0 0 0 40 144.9a11.33 11.33 0 0 0-3-8.49 11.33 11.33 0 0 0-11.58-2.27A12.16 12.16 0 0 0 22.1 136Z"/>
      <path class="cls-3" d="m204 36.07-.85-.92c1-1.78 2.16-3.74 4.21-4.19 1.77-.38 3.57.53 5 1.6a19.51 19.51 0 0 1 7.93 15.67 19.57 19.57 0 0 1-8.36 15.48c-2.13 1.49-5 2.6-7.38 1.41a7.37 7.37 0 0 1-3-3.63A26 26 0 0 1 199 47a20.83 20.83 0 0 1 5-10.93Z"/>
      <path d="M157.43 128.74a50 50 0 0 0-4.74 11 4.88 4.88 0 0 0-.08 3.58c1.09 2.15 4.41 1.94 6.74 1a24.25 24.25 0 0 0 13.35-12.25 5.45 5.45 0 0 0 .66-2.88c-.24-1.86-2.21-3.17-4.18-3.39a14 14 0 0 0-5.79 1Zm55.09-19.49a61.08 61.08 0 0 1 5.35 28.53c-.23 4.18-1.31 8.93-5.18 10.94v.1l-43-.47c-3.81 0-7.71-.07-11.35 1-14.43 4.42-18.14 23.92-32.11 29.52-4.83 1.94-10.25 1.91-15.49 1.84l-35.71-.43c-5-.06-10-.13-14.81-1.49a27.29 27.29 0 0 1-13.16-8.36 23.94 23.94 0 0 0 8.91-.34c12.43-2.35 24.55-6.91 34.53-14.32s17.74-17.8 20.56-29.53c1.22-5.07 1.52-10.29 2.41-15.42.13-.74.26-1.47.42-2.2 1.7-7.93 5.62-15.71 12-20.92a26.22 26.22 0 0 1 2.9-2.07c8.15-5.07 19.9-5.39 27.18.75 4 3.34 6.33 8.19 10.45 11.38 7.06 5.46 17.25 4.72 26.23 3.28q14.14-2.27 28-5.88c-2.17 5-4.49 10-8.19 14 .07.08.06.09.06.09ZM209.83 143c8 0 3-12.49 3-20.5s-6.58-13.32-14.5-14.5c-44.29-6.57-54.82-10.58-7.5 6 7.56 2.65 10.99 29 19 29Zm-88 19c11.69-8.95 22.5-73.4 8-71-11.71 1.94-3.58 28-8 28s1.27 14.08-8 21.5c-29.83 23.88-35.98 55.18 8 21.5Z" style="fill:#45484b"/>
      <path class="cls-5" d="M212.83 122.5c0 8 5 20.5-3 20.5s-11.44-26.35-19-29c-47.32-16.58-36.79-12.57 7.5-6 7.92 1.18 14.5 6.49 14.5 14.5Z"/>
      <path class="cls-3" d="M183.83 53c2.7 8-36.92 7.33-39-4-.12-.68-3.94 3.32-4 4-.31 3.34-5.17-1.52-8.35-.08-1.16-2.61-4.72-6.09-4.65-8.92l-.08-.32c4.89-1.46 55.17 6.63 56.08 9.32ZM179.18 19.7c2.56 1.55 3.41 4.88 2.72 7.69s-2.62 5.2-4.64 7.36c-1.52 1.62-4 3.3-5.88 2.07a4.18 4.18 0 0 1-1.53-2.58 17 17 0 0 1-.33-6.73l-.3-1a7.24 7.24 0 0 1 2.82-6.4 6.67 6.67 0 0 1 7.14-.41Z"/>
      <path d="M173.36 129.25a5.45 5.45 0 0 1-.66 2.88 24.25 24.25 0 0 1-13.35 12.25c-2.33.89-5.65 1.1-6.74-1a4.88 4.88 0 0 1 .08-3.58 50 50 0 0 1 4.74-11l6-1.9a14 14 0 0 1 5.79-1c1.93.18 3.9 1.49 4.14 3.35Z" style="fill:#202122"/>
      <path class="cls-5" d="M129.83 91c14.5-2.4 3.69 62.05-8 71-44 33.68-37.85 2.38-8-21.5 9.27-7.42 3.58-21.5 8-21.5s-3.71-26.06 8-28Z"/>
      <path class="cls-3" d="M129.83 80c1.91.77-1.64 3.79-6.35 7.42-8.14 6.27-19.74 14.32-12.65 15.58.72.13.55 3.06-.24 7.29-2.21 11.71-9.16 33.46-14.76 32.71-7.66-1-1-47.69-1-51s27.83-14.88 35-12Z"/>
      <path class="cls-2" d="m123.48 87.42 2.47.32c-6.42 5.21-10.34 13-12 20.92-.16.73-.29 1.46-.42 2.2l-2.9-.57c.79-4.23 1-7.16.24-7.29-7.13-1.26 4.47-9.31 12.61-15.58Z"/>
      <path class="cls-3" d="M63.94 22.24a19.31 19.31 0 0 1 2.12-2.91A6.17 6.17 0 0 1 69.74 17a5.2 5.2 0 0 1 3.68 1.25 9.68 9.68 0 0 1 3.24 8.58 20.22 20.22 0 0 1-3.56 8.76A18.79 18.79 0 0 1 66.81 42a5.77 5.77 0 0 1-3.82.82c-2-.42-3.18-2.34-3.81-4.17a17.72 17.72 0 0 1 3.22-17ZM74.53 114.65a18.61 18.61 0 0 1-.62 10.8 5.22 5.22 0 0 1-2.12 2.93c-1.93 1.08-4.44-.09-6-1.64a11.59 11.59 0 0 1-.88-15l-2.75-1.15.39-.37c2.32-2 6.16-2.63 8.74-.87a8.61 8.61 0 0 1 3.24 5.3ZM36.83 82c35.19-31.75 41.63-29.79 12 7-2.42 3-19.37 23-26 23s2-19.13 2-23 7.08-2.56 12-7ZM24.52 136.89 22.1 136a12.16 12.16 0 0 1 3.35-1.85A11.33 11.33 0 0 1 37 136.41a11.33 11.33 0 0 1 3 8.49 23.89 23.89 0 0 1-2.48 8.84 17.77 17.77 0 0 1-3.9 5.89 8.21 8.21 0 0 1-6.7 2.25 7.7 7.7 0 0 1-5.18-3.83 14.69 14.69 0 0 1-1.7-6.2 26 26 0 0 1 .94-9.93 8.62 8.62 0 0 1 3.54-5.03Z"/>
      <path class="cls-7" d="m16.24 39.07.56.6c8.06 8.9 9.44 21.95 6.87 33.48-2.67 11.79-8.81 22.54-14.11 33.5-3.66 7.54-7 15.48-8.36 23.61a45.06 45.06 0 0 0-.58 11.13C1 146.7 2.51 151.87 4 157c1.7 6 5 13.71 6.77 19.72 0 .09.05.18.08.27"/>
      <path class="cls-7" d="M10.27 176.75h.48c11.58-.47 22.33-8.58 33.74-6.66M46.13 169.29c.31.4.62.8.95 1.18a27.29 27.29 0 0 0 13.16 8.36c4.77 1.36 9.83 1.43 14.81 1.49l35.71.43c5.24.07 10.66.1 15.49-1.84 14-5.6 17.68-25.1 32.11-29.52 3.64-1.11 7.54-1.08 11.35-1l43 .47h.43M212.52 109.24c-.24-.53-.49-1.06-.74-1.58M212.69 148.72c3.87-2 4.95-6.76 5.18-10.94a61.08 61.08 0 0 0-5.35-28.53"/>
      <path class="cls-7" d="m212.07 109.74.45-.49c3.7-4 6-9.06 8.19-14l.49-1.14c1.93-4.47 3.88-9 5.62-13.57 4.06-10.63 7.06-21.55 6.43-32.74-.75-13.33-6.56-25.8-12.65-37.8M19.12 39.21A52.58 52.58 0 0 1 40.47 10 57.59 57.59 0 0 1 76.59.67a142.07 142.07 0 0 1 14.06 2.17C129.75 9.91 170 9.33 209.58 5a15.26 15.26 0 0 1 6 .13c1.92.57 3.65 2.18 3.62 4.09"/>
    </g>
  </g>
</svg>
