<svg width="387" height="387" viewBox="0 0 102.4 102.4" xmlns:xlink="http://www.w3.org/1999/xlink" xmlns="http://www.w3.org/2000/svg">
  <defs>
    <path fill="#0f0" d="M833.5 360q0-80.2-56.7-136.8-56.6-56.7-136.8-56.7-80.2 0-136.8 56.6Q446.4 280 446.4 360q0 80.2 56.6 136.8 56.7 56.7 136.9 56.7t136.8-56.7q56.7-56.6 56.7-136.8m-72.8-118.6q50.1 50.1 50.1 121 0 70.8-50.1 120.9-50 50.1-120.9 50.1-70.8 0-121-50.1-50-50-50-120.9 0-70.8 50-121 50.2-50 121-50 70.9 0 120.9 50z" id="a"/>
  </defs>
  <use xlink:href="#a" width="100%" height="100%" transform="matrix(.26458 0 0 .26458 -118.1 -44)"/>
</svg>
