<svg width="87.246" height="64.336" viewBox="0 0 69.25 51.07" xmlns:xlink="http://www.w3.org/1999/xlink" xmlns="http://www.w3.org/2000/svg">
  <defs>
    <path id="a" d="M0 0h1920v1080H0z"/>
    <path id="c" d="M0 0h1920v1080H0z"/>
    <path id="e" d="M990.31 311.51h192.01v233.54H990.31z"/>
    <path id="g" d="M990.31 311.51h192.01v233.54H990.31z"/>
  </defs>
  <g transform="matrix(.26458 0 0 .26458 -252.76 -84.2)">
    <clipPath id="b">
      <use xlink:href="#a" overflow="visible" width="100%" height="100%"/>
    </clipPath>
    <g clip-path="url(#b)" transform="rotate(90 1086.32 414.75)">
      <clipPath id="d">
        <use xlink:href="#c" overflow="visible" width="100%" height="100%"/>
      </clipPath>
      <g clip-path="url(#d)">
        <clipPath id="f">
          <use xlink:href="#e" overflow="visible" width="100%" height="100%"/>
        </clipPath>
        <g clip-path="url(#f)">
          <clipPath id="h">
            <use xlink:href="#g" overflow="visible" width="100%" height="100%"/>
          </clipPath>
          <path clip-path="url(#h)" fill="#ae2c6d" d="m1175.5 476.49 2 .01c5.08 10.97 5.43 20.54 4.28 32.58-1.14 12.01-5.57 24.21-10.24 35.34h-.01l-.2-.09h-24.1a57.2 57.2 0 0 1-2.36-5.01h22.11c4.52-5 5.99-13 7.35-19.59 2.16-10.48 4.33-21.31 2.22-31.8-.82-4.06-2.34-8.1-5.19-11.1l.01-.41c1.47.03 2.86.06 4.13.07"/>
          <path clip-path="url(#h)" fill="#e54696" d="M1141.26 478.24a37.6 37.6 0 0 0-1.86-2.66l.1-.08c.98.11 4.42.1 5.98.19l.01-.19h.01c.45.05 15.12.7 25.87.92v.41c2.84 3 4.36 7.04 5.18 11.1 2.11 10.49-.06 21.32-2.22 31.8-1.36 6.59-2.83 14.59-7.35 19.59h-22.11a97.43 97.43 0 0 1-3.81-11.53c-1.1-4.01-2.07-8.07-2.8-12.17a2 2 0 0 1-.76-.18c.49-6.42 1.38-13.99 1.86-20.4.1-1.42.2-2.84.37-4.25.42-3.61.48-8.88 1.53-12.55"/>
          <path clip-path="url(#h)" fill="#71e4bf" d="M1158.14 455.15c3.2-.25 6.52 1.2 8.96 3.38 4.16 3.72 9.21 12.44 8.4 17.96-1.27-.01-2.66-.04-4.13-.07-10.75-.22-25.42-.87-25.87-.92.84-3.67 2.06-8.27 3.32-11.82 1.26-3.54 3.69-6.94 7.26-8.12a8.65 8.65 0 0 1 2.06-.41"/>
          <path clip-path="url(#h)" fill="#5aaae7" d="M1146.5 425.5c.67 4.88.92 7.55.44 10.84l-.66-.1h-27.81l-.3.01c-.12-2.9-.2-5.9-.46-8.47l-.24-2.28H1146l.33-.24c.05.08.1.16.17.24"/>
          <path clip-path="url(#h)" fill="#1e81ce" d="m1146.28 436.24.66.1a48.6 48.6 0 0 1-1.44 6.16h-.5c-10.44 0-15.22-.17-25.67-.17l-.34.2a8.63 8.63 0 0 0-.53-1.01l.04-.02a99.78 99.78 0 0 1-.33-5.25l.3-.01z"/>
          <path clip-path="url(#h)" fill="#ebe5dd" d="M1113.54 411.7a14.96 14.96 0 0 0-5.16-5.15l.95-.22v-40.45h.37c27.68 13.56 23.17 40.85 36.63 59.38l-.33.24h-28.53c-.36-3.38-.86-6.76-2.04-9.94a20.65 20.65 0 0 0-1.89-3.86"/>
          <path clip-path="url(#h)" fill="#ae2c6d" d="M1141.26 478.24c-1.05 3.67-1.1 8.94-1.53 12.55a98.43 98.43 0 0 0-.37 4.25c-.48 6.41-1.37 13.98-1.86 20.4-2.54-.97-9.24-5.59-12.96-8.05-1.78-1.18-3.77-2.33-5.89-2.12l-.06-.01 1.21-10c1.35-11.2 2.71-22.47 2.14-33.73l.56-.03c.44.21.51.24.51.23l.48.25a48.13 48.13 0 0 1 17.77 16.26"/>
          <path clip-path="url(#h)" fill="#e54696" d="M1121.5 459.35h.31c.05.73.1 1.45.13 2.18.57 11.26-.79 22.53-2.14 33.73l-1.21 10-.01.1.04.3a54.89 54.89 0 0 1-5.12 13.84c-1.29-.48-4.72-.5-6 0-3.89 0-7.91.08-11.99.2-5.63.15-11.37.38-17.02.55-4.77.14-9.47.25-13.99.25l-.09-.45c-1.24.23-2.66-.41-3.91-.55l-.28.1c-1.9-4.78-4.01-9.48-6.35-14.07l-.15.08c-.06 0-.13.03-.19.04l-.03-.15c-.77-8.08-2.44-16.97-3.2-25.05-.66-6.85-2.33-12.55.2-18.95-.02-.52-.02-1.07 0-1.65.08-5.62 1.32-13.52 3-18.35 8.08-.03 16.51-.18 25.01-.37 2-.04 4-.1 6-.13l7-.15c8.86-.2 17.63-.35 26-.35.33.2.65.56.95 1.02.2.3.36.64.53 1 .95 2.14 1.5 5.24 1.47 6.72-.07 3.53 1.08 6.58 1.04 10.11m-19 18.15c0-11.6-7.39-21-16.5-21s-16.5 9.4-16.5 21 7.39 21 16.5 21 16.5-9.4 16.5-21"/>
          <path clip-path="url(#h)" fill="#9da1a4" d="m1118.5 441.5-.04.02c-.3-.46-.62-.82-.96-1.02-8.36 0-17.13.16-25.99.35l-.01-.35a35.35 35.35 0 0 1-.52-6h.02l20.43-.28c2.75-5.55 3.98-11.59 3.07-17.72-.17-1.14-.79-4.02-.96-4.8.77 1.22 1.4 2.53 1.89 3.86 1.18 3.18 1.68 6.56 2.04 9.94l.24 2.28c.26 2.57.34 5.57.46 8.47.08 1.83.17 3.62.33 5.25"/>
          <path clip-path="url(#h)" fill="#a9baca" d="M1114.5 416.5c.91 6.13-.32 12.17-3.07 17.72l-20.43.28h-.02c-.04-3.65.43-7.46 1.36-11.15 1.39-5.55 3.82-10.82 7.14-14.82 1.18-1.42 2.6-2.84 4.44-3.12a6.4 6.4 0 0 1 3.77.77l.69.37a14.95 14.95 0 0 1 5.16 5.15c.17.78.79 3.66.96 4.8"/>
          <path clip-path="url(#h)" fill="#ebe5dd" d="M1073.5 349.46v.04c.03 12.09.5 25.83.5 37.83l.18.34c-3.83 2.08-10.42 5.71-13.51 8.67.27-9.61.79-19.78.83-28.84v-1c-.02-5.97-.16-13.09-.17-19h.17c2.34-8.99 7.91-19.77 13.24-27.38 3.35-4.78 8.47-9.63 14.17-8.42 3.37.72 5.93 3.41 8.04 6.14 7.33 9.45 11.22 18.77 12.55 30.66v15.83h-.17v31.17h-.83c-2.83-1.67-9.7-4.98-11-8h-.5c0-12.84-.5-26.17-.5-39-1.83-3.82-5.8-6.59-10.04-6.61-.64 0-1.28.05-1.91.15-3.29.5-6.36 2.23-9.27 3.93-.94.53-1.71 2.4-1.78 3.49"/>
          <path clip-path="url(#h)" fill="#999" d="M1097 387.5h.5c1.3 3.02 8.17 6.33 11 8h.83v10.83l-.95.22-.69-.37a6.4 6.4 0 0 0-3.77-.77c-1.83.28-3.26 1.7-4.44 3.12-3.32 4-5.75 9.27-7.14 14.82l-.05-.01a91.48 91.48 0 0 0-5.7-21.94 2.76 2.76 0 0 0-.69-1.15 1.58 1.58 0 0 0-1.22-.34l-.06-.36v-57.04l-.07-.47c.63-.1 1.27-.15 1.91-.15 4.24.02 8.21 2.79 10.04 6.61 0 12.83.5 26.16.5 39"/>
          <path clip-path="url(#h)" fill="#e4d422" d="m1106.67 543.33-.17.17c-13.44 0-27.72-.5-41.17-.5 0-2.42 1.35-4.82 3.18-7.22h35.26l.13-.08c1.59 2.63 2.77 5.21 2.77 7.63"/>
          <path clip-path="url(#h)" fill="#ffd422" d="m1103.9 535.7-.13.08h-35.26c3.9-5.08 9.99-10.14 9.99-15.28l-.01-.25c5.65-.17 11.39-.4 17.02-.55.12 4.97 5.12 10.6 8.39 16"/>
          <path clip-path="url(#h)" fill="#71e4bf" d="M1086 456.5c9.11 0 16.5 9.4 16.5 21s-7.39 21-16.5 21-16.5-9.4-16.5-21 7.39-21 16.5-21"/>
          <path clip-path="url(#h)" fill="#a6001e" d="m1092.29 423.34.05.01c-.93 3.69-1.4 7.5-1.36 11.15.01 2.07.18 4.09.52 6l.01.35-7 .15v-41l-.02-.05.19-.04c.44-.05.88.05 1.22.34.34.29.53.73.69 1.15a91.48 91.48 0 0 1 5.7 21.94"/>
          <path clip-path="url(#h)" fill="#ccc" d="m1074.18 387.67-.18-.34c0-12-.47-25.74-.5-37.83v-.04c.07-1.09.84-2.96 1.78-3.49 2.91-1.7 5.98-3.43 9.27-3.93l.07.47v57.04l.06.36-.19.04c-.44.09-.87.32-1.18.64a5.63 5.63 0 0 0-1.18 2.6c-1.49 5.95-4.17 14.2-4.63 20.31l-.21.08a43.95 43.95 0 0 0-2.1-4.17l-2.6-4.7c-.3-.56-.6-1.12-.93-1.67a16.83 16.83 0 0 0-3.61-4.62c-2-1.68-4.88-2.55-7.26-1.49l-.4-.27.11-.16c0-3.26.07-6.67.17-10.16 3.09-2.96 9.68-6.59 13.51-8.67"/>
          <path clip-path="url(#h)" fill="#f40e34" d="M1084.5 400v41l-5.99.13-.01-.63c.19-4.42.72-11.5-.73-15.68-.14-.42-.3-.83-.48-1.24l.21-.08c.46-6.11 3.14-14.36 4.63-20.31.24-.93.51-1.91 1.18-2.6.31-.32.74-.55 1.18-.64z"/>
          <path clip-path="url(#h)" fill="#9da1a4" d="M1077.77 424.82c1.45 4.18.92 11.26.73 15.68l.01.63c-8.5.19-16.93.34-25.01.37h-2v.17h-1v-.17a63.74 63.74 0 0 1 .33-6.02l.17.02 22.01.24c1.63-3.36 2.79-7.8 2.37-11.51-.45-3.87-2.57-7.45-3.72-11.19.33.55.63 1.11.94 1.67l2.59 4.7a44.2 44.2 0 0 1 2.1 4.17c.18.41.34.82.48 1.24"/>
          <path clip-path="url(#h)" fill="#a9baca" d="M1052.49 425.5c1.62-6.88 4.25-13.56 7.9-18.84l.4.27c2.38-1.06 5.26-.19 7.26 1.49a16.81 16.81 0 0 1 3.6 4.62c1.16 3.74 3.28 7.32 3.73 11.19.42 3.71-.74 8.15-2.37 11.51l-22.01-.24-.17-.02c.3-3.28.86-6.65 1.66-9.98"/>
          <path clip-path="url(#h)" fill="#ebe5dd" d="M1060.67 396.34c-.1 3.49-.17 6.9-.17 10.16l-.11.16c-3.65 5.28-6.28 11.96-7.9 18.84h-26.99c8.5-10.6 8.23-21.37 16.03-36.64 5.06-9.92 13.99-16.8 19.97-22.36v1c-.04 9.06-.56 19.23-.83 28.84"/>
          <path clip-path="url(#h)" fill="#ae2c6d" d="m1053.5 505.5.03.15a52.25 52.25 0 0 0-11.43 3.81c-1.99.93-4 2.06-5.36 3.76a117.15 117.15 0 0 0-8.72-36.09v-.63h.48l.28-.18c.3.3.66.47 1.08.39.34-.06.62-.28.88-.49l7.2-5.82a163.7 163.7 0 0 0 12.24-10.55h.32c-.02.58-.02 1.13 0 1.65-2.53 6.4-.86 12.1-.21 18.95.77 8.08 2.44 16.97 3.21 25.05"/>
          <path clip-path="url(#h)" fill="#5aaae7" d="M1025.5 425.5h26.99a71.6 71.6 0 0 0-1.69 10.24h-25.3z"/>
          <path clip-path="url(#h)" fill="#1e81ce" d="M1050.77 435.74h.03a64.1 64.1 0 0 0-.3 5.76v.17c-10.67-.01-14.02-.17-25-.17v-5.76z"/>
          <path clip-path="url(#h)" fill="#ae2c6d" d="M1036.74 513.22c.05.56.09 1.11.12 1.67l-.53.04c-.11 10.5-6.39 20.93-11.58 30.12-7.79-.41-18.28-.71-26.07-.55a88.81 88.81 0 0 1-3.19-8h28.71c1.96-3.43 2.3-7.55 2.61-11.5 1.24-16.13 2.46-32.51-.88-48.34v-.16h2.09v.63a117.18 117.18 0 0 1 8.72 36.09"/>
          <path clip-path="url(#h)" fill="#71e4bf" d="M1012.5 455.32c2.21.37 4.46.8 6.34 2 2.5 1.59 4.02 4.32 5.18 7.04 1.37 3.2 2.84 6.72 3.48 10.14l.43.18c.16.58.45 1.23.85 1.64l-.28.18h-33l-.56-.18.23-.71v-.28h2.4c1.07-2.37 1.93-5.83 2.68-8.27 1.28-4.13 4.42-7.37 7.45-10.45.52-.52 1.05-1.06 1.74-1.32a5.26 5.26 0 0 1 2.73-.03l.33.06"/>
          <path clip-path="url(#h)" fill="#e54696" d="M1025.93 476.66c3.34 15.83 2.12 32.21.88 48.34-.31 3.95-.65 8.07-2.62 11.5H995.5a94.81 94.81 0 0 1-.55-60.18l.56.18h30.43z"/>
        </g>
      </g>
      <path clip-path="url(#d)" fill="none" stroke="#000" stroke-miterlimit="10" d="M998.5 544.5h.18c7.79-.16 18.28.14 26.07.55l.25.01"/>
      <path clip-path="url(#d)" fill="none" stroke="#000" stroke-miterlimit="10" d="m1024.5 545.5.25-.45c5.19-9.19 11.47-19.62 11.58-30.12M1036.22 513.94c.16-.25.33-.49.52-.72 1.36-1.7 3.37-2.83 5.36-3.76a52.23 52.23 0 0 1 11.43-3.81l.19-.04M1053.75 505.29l.12.24a164.63 164.63 0 0 1 6.38 14.17M1060.5 519.5c1.25.14 2.67.78 3.91.55a2 2 0 0 0 .26-.05M1078.5 520.5c0 5.14-6.09 10.2-9.99 15.28-1.83 2.4-3.18 4.8-3.18 7.22M1065.33 543c13.45 0 27.73.5 41.17.5M1106.67 543.33c0-2.42-1.18-5-2.77-7.63-3.27-5.4-8.27-11.03-8.4-16v-.2M1107.5 519.5c1.28-.49 4.71-.48 6 0"/>
      <path clip-path="url(#d)" fill="none" stroke="#000" stroke-miterlimit="10" d="m1113.26 519.96.24-.46a54.89 54.89 0 0 0 5.12-13.84M1118.65 505.27c2.12-.21 4.1.94 5.89 2.12 3.72 2.46 10.42 7.08 12.96 8.05a2 2 0 0 0 .76.18c.12-.01.2-.05.24-.12M1138.26 515.62c.73 4.1 1.7 8.16 2.8 12.17a97.25 97.25 0 0 0 3.81 11.53 57.2 57.2 0 0 0 2.36 5.01l.03.05M1147 544.33H1171.33M1171.5 544.5l.03-.08h.01c4.67-11.13 9.1-23.33 10.24-35.34 1.15-12.04.8-21.61-4.28-32.58M1175.5 476.5v-.01c.81-5.52-4.24-14.24-8.4-17.96-2.44-2.18-5.76-3.63-8.96-3.38-.7.05-1.38.19-2.06.41-3.57 1.18-6 4.58-7.26 8.12a114.86 114.86 0 0 0-3.32 11.82M1145.99 475.73a5.3 5.3 0 0 0-.51-.04c-1.56-.09-5-.08-5.98-.19M1123 461.72l.01.01.48.25a48.14 48.14 0 0 1 17.77 16.26l.32.48M1122.5 461.5c.44.21.51.24.51.23M1121.5 459.5v-.15c.04-3.53-1.11-6.58-1.04-10.11.03-1.48-.52-4.58-1.47-6.71a8.63 8.63 0 0 0-.53-1.01c-.3-.46-.62-.82-.96-1.02M1119.33 442.33c10.45 0 15.23.17 25.67.17M1145.5 442.5a47.9 47.9 0 0 0 1.44-6.16c.48-3.29.23-5.96-.44-10.84M1109.7 365.88c27.68 13.56 23.17 40.85 36.63 59.38l.17.24M1109.5 364.5v-16M1061.5 347.5c2.34-8.99 7.91-19.77 13.24-27.38 3.35-4.78 8.47-9.63 14.17-8.42 3.37.72 5.93 3.41 8.04 6.14 7.33 9.45 11.22 18.77 12.55 30.66"/>
      <path clip-path="url(#d)" fill="none" stroke="#000" stroke-miterlimit="10" d="M1086.5 311.5c0-8.22.17-19.28.17-27.5M1061.33 347v.5c.01 5.91.15 13.03.17 19M1061.5 366.5c-5.98 5.56-14.91 12.44-19.97 22.36-7.8 15.27-7.53 26.04-16.03 36.64M1025.5 425.5v16M1025 441.5h.5c10.98 0 14.33.16 25 .17h1.17M1053.5 441.5c-1.68 4.83-2.92 12.73-3 18.35-.02.58-.02 1.13 0 1.65M1050.18 459.85a163.9 163.9 0 0 1-12.23 10.55l-7.21 5.82c-.26.21-.54.43-.88.49-.42.08-.78-.09-1.08-.39a3.97 3.97 0 0 1-.85-1.64M1027.5 474.5c-.64-3.42-2.11-6.94-3.48-10.14-1.16-2.72-2.68-5.45-5.18-7.04-1.88-1.2-4.13-1.63-6.34-2l-.33-.06a5.26 5.26 0 0 0-2.73.03c-.69.26-1.22.8-1.74 1.32-3.03 3.08-6.17 6.32-7.45 10.45-.75 2.44-1.6 5.9-2.68 8.27l-.07.17M998.33 475.33H995M995.17 475.61l-.23.71a94.8 94.8 0 0 0 3.74 68.18l.05.11"/>
      <ellipse clip-path="url(#d)" fill="none" stroke="#000" stroke-miterlimit="10" cx="1086" cy="477.5" rx="16.5" ry="21"/>
      <path clip-path="url(#d)" fill="none" stroke="#000" stroke-miterlimit="10" d="M1050.5 461.5c-2.53 6.4-.86 12.1-.21 18.95.77 8.08 2.44 16.97 3.21 25.05M1118.58 505.37l.01-.11 1.21-10c1.35-11.2 2.71-22.47 2.14-33.73a72.4 72.4 0 0 0-.13-2.18M1028.02 477.13a117.15 117.15 0 0 1 8.9 38.54M1141.5 477.5l-.24.74c-1.05 3.67-1.1 8.94-1.53 12.55a98.43 98.43 0 0 0-.37 4.25c-.48 6.41-1.37 13.98-1.86 20.4v.06M1064.5 520.5c4.52 0 9.22-.11 13.99-.25 5.65-.17 11.39-.4 17.02-.55 4.08-.12 8.1-.2 11.99-.2M1061.5 366.5v1c-.04 9.06-.56 19.23-.83 28.84-.1 3.49-.17 6.9-.17 10.16M1060.5 406.5l-.11.16c-3.65 5.28-6.28 11.96-7.9 18.84a71.6 71.6 0 0 0-1.99 16M1060.79 406.93c2.38-1.06 5.26-.19 7.26 1.49a16.81 16.81 0 0 1 3.61 4.62c.33.55.63 1.11.94 1.67l2.59 4.7a44.2 44.2 0 0 1 2.1 4.17c.18.41.34.82.48 1.24 1.45 4.18.92 11.26.73 15.68M1118.5 441.5a99.78 99.78 0 0 1-.33-5.25c-.12-2.9-.2-5.9-.46-8.47l-.24-2.28c-.36-3.38-.86-6.76-2.04-9.94a20.59 20.59 0 0 0-1.89-3.86 14.96 14.96 0 0 0-5.16-5.15l-.69-.37a6.4 6.4 0 0 0-3.77-.77c-1.83.28-3.26 1.7-4.44 3.12-3.32 4-5.75 9.27-7.14 14.82-.93 3.69-1.4 7.5-1.36 11.15.01 2.07.18 4.09.52 6M1077.5 423.5c.46-6.11 3.14-14.36 4.63-20.31.24-.93.51-1.91 1.18-2.6.31-.32.74-.55 1.18-.64l.19-.04c.44-.05.88.05 1.22.34.34.29.53.73.69 1.15a91.48 91.48 0 0 1 5.7 21.94"/>
      <path clip-path="url(#d)" fill="none" stroke="#000" stroke-miterlimit="10" d="M1051.5 441.5h2c8.08-.03 16.51-.18 25.01-.37l5.99-.13 7.01-.15c8.86-.19 17.63-.35 25.99-.35M1109.33 364.33v42M995.5 476.5H1028.5M1145.49 475.5h.01c.45.05 15.12.7 25.87.92 1.47.03 2.86.06 4.13.07l2 .01M1025 425.5h27.5M1117.5 425.5h28.5M1012.5 455.5v-.18c-.01-7.04-.64-15.6-.64-22.61M1158.14 455.44v-24.25"/>
    </g>
  </g>
</svg>
