<svg width="334.98" height="51.48" viewBox="0 0 88.6301 13.6207" xmlns="http://www.w3.org/2000/svg">
  <g transform="matrix(.26458 0 0 .26458 -61.0552 -86.0584)">
    <path fill="#e6e7e8" d="M234.76 376.74c-2.2 0-4-1.8-4-4v-43.48c0-2.2 1.8-4 4-4h326.98c2.2 0 4 1.8 4 4v43.48c0 2.2-1.8 4-4 4z"/>
    <path opacity=".1" d="M234.76 376.74c-2.2 0-4-1.8-4-4v-43.48c0-2.2 1.8-4 4-4h326.98c2.2 0 4 1.8 4 4v43.48c0 2.2-1.8 4-4 4z"/>
    <path opacity=".1" d="M234.76 376.74c-2.2 0-4-1.8-4-4v-43.48c0-2.2 1.8-4 4-4h326.98c2.2 0 4 1.8 4 4v43.48c0 2.2-1.8 4-4 4z"/>
    <linearGradient id="a" gradientUnits="userSpaceOnUse" x1="302.8098" y1="255.5598" x2="493.6902" y2="446.4402">
      <stop offset="0" style="stop-color:#fff"/>
      <stop offset=".1938" style="stop-color:#fff;stop-opacity:0"/>
      <stop offset=".7967" style="stop-color:#020202;stop-opacity:0"/>
      <stop offset="1" style="stop-color:#000"/>
    </linearGradient>
    <path opacity=".2" fill="url(#a)" d="M234.76 376.74c-2.2 0-4-1.8-4-4v-43.48c0-2.2 1.8-4 4-4h326.98c2.2 0 4 1.8 4 4v43.48c0 2.2-1.8 4-4 4z" style="fill:url(#a)"/>
    <path fill="#e6e7e8" d="M239.58 363.552c0 2.75 2.25 5 5 5h307.34c2.75 0 5-2.25 5-5v-30.104c0-2.75-2.25-5-5-5H244.58c-2.75 0-5 2.25-5 5z"/>
    <linearGradient id="b" gradientUnits="userSpaceOnUse" x1="486.1422" y1="436.3922" x2="310.3578" y2="260.6078">
      <stop offset="0" style="stop-color:#fff"/>
      <stop offset=".2119" style="stop-color:#fff;stop-opacity:0"/>
      <stop offset=".8078" style="stop-color:#020202;stop-opacity:0"/>
      <stop offset="1" style="stop-color:#000"/>
    </linearGradient>
    <path opacity=".1" fill="url(#b)" d="M239.58 363.552c0 2.75 2.25 5 5 5h307.34c2.75 0 5-2.25 5-5v-30.104c0-2.75-2.25-5-5-5H244.58c-2.75 0-5 2.25-5 5z" style="fill:url(#b)"/>
  </g>
</svg>
