<svg width=" 48" height="48" xmlns="http://www.w3.org/2000/svg" viewBox="0 0 182.7 182.9">
  <g data-name="图层 2">
    <g data-name="Push wave/Shock wave (icon)">
      <path d="M175 7.5 7.5 7.8l.3 167.6 167.4-.3Z" style="fill:#c69c6d;stroke:#000;stroke-miterlimit:10;stroke-width:15px"/>
      <path d="M37 72.1a19.9 19.9 0 0 1 1.1-4l-.7 1.8a22.6 22.6 0 0 1 1.5-2.8l.8-1.3.4-.6c.5-.8-1 1.3-.4.6a39.2 39.2 0 0 1 4.6-4.6c1.3-1-1.2.9 0 0l1.3-1 3-1.8a56.8 56.8 0 0 1 6.4-3.1l-1.8.7a80.8 80.8 0 0 1 20.1-5.2l-2 .3a174 174 0 0 1 21-1.4 152.4 152.4 0 0 1 22 1.2l-2-.3a86.8 86.8 0 0 1 22 5.8l-1.9-.7a54.5 54.5 0 0 1 9.3 4.9l1 .7c1.2.8-1.4-1.2-.3-.2.7.5 1.3 1 1.8 1.6l1.7 1.7.5.6c-.7-1-1-1.2-.6-.7l.8 1.2c2 3.3 6.8 4.9 10.3 2.6 3.3-2 4.9-6.7 2.6-10.2A48 48 0 0 0 133.3 40a110 110 0 0 0-30.3-5.2 185.3 185.3 0 0 0-28.7.8 88.6 88.6 0 0 0-30 8c-9.7 4.8-19.8 13.2-21.7 24.5a8.1 8.1 0 0 0 .7 5.8 7.6 7.6 0 0 0 4.5 3.4c3.6.8 8.5-1.1 9.2-5.2ZM62.7 129.5a33.7 33.7 0 0 0 2.4-5.2l-.7 1.7.9-2 .4-.7q.5-.7-.1.1c-.5.6-.5.6 0 .2.1-.2 1-1 0-.2s0 .2.2 0a20.7 20.7 0 0 1 2-1l-1.8.8a85 85 0 0 1 21.3-5.8l-2 .3a83.3 83.3 0 0 1 21.8 0l-2-.3a39.7 39.7 0 0 1 9.6 2.1l-1.8-.7a29 29 0 0 1 4.7 3l3.5 2.4.8.6c1.1.8-1.5-1.2-.4-.4l1.5 1.4.7.8c1 1-1-1.5-.3-.5a16.4 16.4 0 0 1 1.2 2.2l-.8-1.8.4 1.1c1.3 3.8 5.3 6.6 9.3 5.3 3.7-1.2 6.5-5.3 5.2-9.3a21 21 0 0 0-5.6-8.9 54.4 54.4 0 0 0-6.7-5l-3.2-2.3a22.3 22.3 0 0 0-5.3-2.6c-3.4-1.2-7.2-1.6-10.8-2a88.6 88.6 0 0 0-38.1 3.4 57.3 57.3 0 0 0-10.8 4.3 16 16 0 0 0-5.2 5 30.7 30.7 0 0 0-2.6 5.5l.8-1.8a18.5 18.5 0 0 1-1.4 2.7 7.6 7.6 0 0 0 2.7 10.3 7.7 7.7 0 0 0 10.2-2.7ZM139 150.8a110.3 110.3 0 0 1 10.6 11 1.5 1.5 0 0 0 2 0 1.5 1.5 0 0 0 0-2.2 109.2 109.2 0 0 0-10.5-11 1.5 1.5 0 0 0-2.1 0 1.5 1.5 0 0 0 0 2.2Z"/>
      <path d="M149.4 147.8c-5 3.1-7.6 8.5-10 13.6a1.6 1.6 0 0 0 .5 2 1.5 1.5 0 0 0 2.1-.4c2.1-4.6 4.4-9.7 9-12.5 1.6-1 0-3.6-1.6-2.6ZM156.8 149.5a5.8 5.8 0 0 1 3.4.6 3 3 0 0 1 1.8 1.9 2.1 2.1 0 0 1-1.2 1.9 8.4 8.4 0 0 1-3.4.9l.7 2.7a2.7 2.7 0 0 1 1.8.2 12.1 12.1 0 0 1 2 .6c1 .5 2.3 1.5 1.9 2.7s-2 1.5-3 1.6a17.5 17.5 0 0 1-5.3-.4c-1.8-.4-2.6 2.5-.8 2.9a18.4 18.4 0 0 0 7.6.3c2.2-.4 4.3-2 4.5-4.5s-1.5-4.2-3.4-5.2-4.6-1.7-6.8-.7c-1.3.6-.7 3 .8 2.8a11 11 0 0 0 5.2-1.5 5 5 0 0 0 2.4-4.5c-.4-3.7-4.9-5.6-8.2-5.3a1.5 1.5 0 0 0-1.5 1.5 1.5 1.5 0 0 0 1.5 1.5Z"/>
    </g>
  </g>
</svg>
