<svg width="318.9556" height="210.957" viewBox="0 0 42.1952 27.9079" xmlns="http://www.w3.org/2000/svg">
  <g transform="matrix(.26458 0 0 .26458 -32.4798 -43.1953)">
    <path fill="#e6e7e8" d="M234.76 268.74c-2.2 0-4-1.8-4-4v-43.48c0-2.2 1.8-4 4-4h43.48c2.2 0 4 1.8 4 4v43.48c0 2.2-1.8 4-4 4z"/>
    <path opacity=".1" d="M234.76 268.74c-2.2 0-4-1.8-4-4v-43.48c0-2.2 1.8-4 4-4h43.48c2.2 0 4 1.8 4 4v43.48c0 2.2-1.8 4-4 4z"/>
    <path opacity=".1" d="M234.76 268.74c-2.2 0-4-1.8-4-4v-43.48c0-2.2 1.8-4 4-4h43.48c2.2 0 4 1.8 4 4v43.48c0 2.2-1.8 4-4 4z"/>
    <linearGradient id="a" gradientUnits="userSpaceOnUse" x1="231.9348" y1="218.4348" x2="281.0652" y2="267.5652">
      <stop offset="0" style="stop-color:#fff"/>
      <stop offset=".5" style="stop-color:#fff;stop-opacity:0"/>
      <stop offset=".5047" style="stop-color:#020202;stop-opacity:0"/>
      <stop offset="1" style="stop-color:#000"/>
    </linearGradient>
    <path opacity=".2" fill="url(#a)" d="M234.76 268.74c-2.2 0-4-1.8-4-4v-43.48c0-2.2 1.8-4 4-4h43.48c2.2 0 4 1.8 4 4v43.48c0 2.2-1.8 4-4 4z" style="fill:url(#a)"/>
    <path fill="#e6e7e8" d="M239.58 255.552c0 2.75 2.25 5 5 5h23.84c2.75 0 5-2.25 5-5v-30.104c0-2.75-2.25-5-5-5h-23.84c-2.75 0-5 2.25-5 5z"/>
    <linearGradient id="b" gradientUnits="userSpaceOnUse" x1="273.5172" y1="257.5172" x2="239.4828" y2="223.4827">
      <stop offset="0" style="stop-color:#fff"/>
      <stop offset=".5" style="stop-color:#fff;stop-opacity:0"/>
      <stop offset=".5047" style="stop-color:#020202;stop-opacity:0"/>
      <stop offset="1" style="stop-color:#000"/>
    </linearGradient>
    <path opacity=".1" fill="url(#b)" d="M239.58 255.552c0 2.75 2.25 5 5 5h23.84c2.75 0 5-2.25 5-5v-30.104c0-2.75-2.25-5-5-5h-23.84c-2.75 0-5 2.25-5 5z" style="fill:url(#b)"/>
  </g>
  <path fill="#414042" d="M33.2198 16.6005c.524 0 .927.1333 1.2097.4.2825.2667.4238.6731.4238 1.2192 0 .2858-.0317.539-.0952.7596-.0635.2207-.162.4064-.2953.5572-.1333.151-.3032.266-.5096.3453-.2064.0794-.4508.119-.7334.119H32.053v-3.4003Zm.0381 3.0194c.0508 0 .1143-.004.1905-.012.0762-.0079.1572-.027.243-.057a1.11 1.11 0 0 0 .2547-.131c.0841-.0572.1595-.135.2262-.2334.0667-.0984.1214-.2215.1643-.369.043-.1477.0643-.3263.0643-.5359 0-.2032-.0198-.385-.0595-.5453s-.1048-.2968-.1953-.4096c-.0905-.1127-.2072-.1984-.35-.257-.143-.0589-.319-.0882-.5287-.0882h-.762V19.62z"/>
</svg>
