<?xml version="1.0" encoding="UTF-8" standalone="no"?>
<!-- Created with Inkscape (http://www.inkscape.org/) -->

<svg
   width="42.195751mm"
   height="27.908249mm"
   viewBox="0 0 42.195751 27.908249"
   version="1.1"
   id="svg5"
   inkscape:export-filename="C:\Users\u1330167\Desktop\bitmap.png"
   inkscape:export-xdpi="96"
   inkscape:export-ydpi="96"
   sodipodi:docname="arrows.svg"
   inkscape:version="1.1 (c68e22c387, 2021-05-23)"
   xmlns:inkscape="http://www.inkscape.org/namespaces/inkscape"
   xmlns:sodipodi="http://sodipodi.sourceforge.net/DTD/sodipodi-0.dtd"
   xmlns="http://www.w3.org/2000/svg"
   xmlns:svg="http://www.w3.org/2000/svg">
  <sodipodi:namedview
     id="namedview7"
     pagecolor="#505050"
     bordercolor="#ffffff"
     borderopacity="1"
     inkscape:pageshadow="0"
     inkscape:pageopacity="0"
     inkscape:pagecheckerboard="1"
     inkscape:document-units="mm"
     showgrid="false"
     inkscape:zoom="0.74118967"
     inkscape:cx="534.95079"
     inkscape:cy="-10.118867"
     inkscape:window-width="1920"
     inkscape:window-height="1017"
     inkscape:window-x="1912"
     inkscape:window-y="-8"
     inkscape:window-maximized="1"
     inkscape:current-layer="Legends_1_" />
  <defs
     id="defs2" />
  <g
     inkscape:label="Layer 1"
     inkscape:groupmode="layer"
     id="layer1"
     transform="translate(-56.669915,-99.921836)">
    <g
       id="g5253"
       transform="matrix(0.26458333,0,0,0.26458333,24.189665,56.725962)">
      <g
         id="ANSI"
         inkscape:export-filename="C:\Users\u1330167\Desktop\ANSI.png"
         inkscape:export-xdpi="300"
         inkscape:export-ydpi="300">
	
	
	
	
	
	
	
	
	
	
	
	
	
	
	
	
	
	
	
	
	
	
	
	
	
	
	
	
	
	
	
	
	
	
	
	
	
	<g
   id="g1226">
		<path
   fill="#e6e7e8"
   d="m 167.26,214.74 c -2.2,0 -4,-1.8 -4,-4 v -43.48 c 0,-2.2 1.8,-4 4,-4 h 43.48 c 2.2,0 4,1.8 4,4 v 43.48 c 0,2.2 -1.8,4 -4,4 z"
   id="path1196" />

		<path
   opacity="0.1"
   d="m 167.26,214.74 c -2.2,0 -4,-1.8 -4,-4 v -43.48 c 0,-2.2 1.8,-4 4,-4 h 43.48 c 2.2,0 4,1.8 4,4 v 43.48 c 0,2.2 -1.8,4 -4,4 z"
   id="path1198" />

		<path
   opacity="0.1"
   d="m 167.26,214.74 c -2.2,0 -4,-1.8 -4,-4 v -43.48 c 0,-2.2 1.8,-4 4,-4 h 43.48 c 2.2,0 4,1.8 4,4 v 43.48 c 0,2.2 -1.8,4 -4,4 z"
   id="path1200" />

		<linearGradient
   id="SVGID_75_"
   gradientUnits="userSpaceOnUse"
   x1="164.4348"
   y1="164.4348"
   x2="213.5652"
   y2="213.5652">
			<stop
   offset="0"
   style="stop-color:#FFFFFF"
   id="stop1202" />

			<stop
   offset="0.5"
   style="stop-color:#FFFFFF;stop-opacity:0"
   id="stop1204" />

			<stop
   offset="0.5047"
   style="stop-color:#020202;stop-opacity:0"
   id="stop1206" />

			<stop
   offset="1"
   style="stop-color:#000000"
   id="stop1208" />

		</linearGradient>

		<path
   opacity="0.2"
   fill="url(#SVGID_75_)"
   d="m 167.26,214.74 c -2.2,0 -4,-1.8 -4,-4 v -43.48 c 0,-2.2 1.8,-4 4,-4 h 43.48 c 2.2,0 4,1.8 4,4 v 43.48 c 0,2.2 -1.8,4 -4,4 z"
   id="path1211"
   style="fill:url(#SVGID_75_)" />

		<path
   fill="#e6e7e8"
   d="m 172.08,201.552 c 0,2.75 2.25,5 5,5 h 23.84 c 2.75,0 5,-2.25 5,-5 v -30.104 c 0,-2.75 -2.25,-5 -5,-5 h -23.84 c -2.75,0 -5,2.25 -5,5 z"
   id="path1213" />

		<linearGradient
   id="SVGID_76_"
   gradientUnits="userSpaceOnUse"
   x1="206.0172"
   y1="203.5173"
   x2="171.9828"
   y2="169.4827">
			<stop
   offset="0"
   style="stop-color:#FFFFFF"
   id="stop1215" />

			<stop
   offset="0.5"
   style="stop-color:#FFFFFF;stop-opacity:0"
   id="stop1217" />

			<stop
   offset="0.5047"
   style="stop-color:#020202;stop-opacity:0"
   id="stop1219" />

			<stop
   offset="1"
   style="stop-color:#000000"
   id="stop1221" />

		</linearGradient>

		<path
   opacity="0.1"
   fill="url(#SVGID_76_)"
   d="m 172.08,201.552 c 0,2.75 2.25,5 5,5 h 23.84 c 2.75,0 5,-2.25 5,-5 v -30.104 c 0,-2.75 -2.25,-5 -5,-5 h -23.84 c -2.75,0 -5,2.25 -5,5 z"
   id="path1224"
   style="fill:url(#SVGID_76_)" />

	</g>

	
	
	
	
	
	<g
   id="g1418">
		<path
   fill="#e6e7e8"
   d="m 126.76,268.74 c -2.2,0 -4,-1.8 -4,-4 v -43.48 c 0,-2.2 1.8,-4 4,-4 h 43.48 c 2.2,0 4,1.8 4,4 v 43.48 c 0,2.2 -1.8,4 -4,4 z"
   id="path1388" />

		<path
   opacity="0.1"
   d="m 126.76,268.74 c -2.2,0 -4,-1.8 -4,-4 v -43.48 c 0,-2.2 1.8,-4 4,-4 h 43.48 c 2.2,0 4,1.8 4,4 v 43.48 c 0,2.2 -1.8,4 -4,4 z"
   id="path1390" />

		<path
   opacity="0.1"
   d="m 126.76,268.74 c -2.2,0 -4,-1.8 -4,-4 v -43.48 c 0,-2.2 1.8,-4 4,-4 h 43.48 c 2.2,0 4,1.8 4,4 v 43.48 c 0,2.2 -1.8,4 -4,4 z"
   id="path1392" />

		<linearGradient
   id="SVGID_87_"
   gradientUnits="userSpaceOnUse"
   x1="123.9348"
   y1="218.4348"
   x2="173.0652"
   y2="267.56519">
			<stop
   offset="0"
   style="stop-color:#FFFFFF"
   id="stop1394" />

			<stop
   offset="0.5"
   style="stop-color:#FFFFFF;stop-opacity:0"
   id="stop1396" />

			<stop
   offset="0.5047"
   style="stop-color:#020202;stop-opacity:0"
   id="stop1398" />

			<stop
   offset="1"
   style="stop-color:#000000"
   id="stop1400" />

		</linearGradient>

		<path
   opacity="0.2"
   fill="url(#SVGID_87_)"
   d="m 126.76,268.74 c -2.2,0 -4,-1.8 -4,-4 v -43.48 c 0,-2.2 1.8,-4 4,-4 h 43.48 c 2.2,0 4,1.8 4,4 v 43.48 c 0,2.2 -1.8,4 -4,4 z"
   id="path1403"
   style="fill:url(#SVGID_87_)" />

		<path
   fill="#e6e7e8"
   d="m 131.58,255.552 c 0,2.75 2.25,5 5,5 h 23.84 c 2.75,0 5,-2.25 5,-5 v -30.104 c 0,-2.75 -2.25,-5 -5,-5 h -23.84 c -2.75,0 -5,2.25 -5,5 z"
   id="path1405" />

		<linearGradient
   id="SVGID_88_"
   gradientUnits="userSpaceOnUse"
   x1="165.5172"
   y1="257.51721"
   x2="131.4828"
   y2="223.4827">
			<stop
   offset="0"
   style="stop-color:#FFFFFF"
   id="stop1407" />

			<stop
   offset="0.5"
   style="stop-color:#FFFFFF;stop-opacity:0"
   id="stop1409" />

			<stop
   offset="0.5047"
   style="stop-color:#020202;stop-opacity:0"
   id="stop1411" />

			<stop
   offset="1"
   style="stop-color:#000000"
   id="stop1413" />

		</linearGradient>

		<path
   opacity="0.1"
   fill="url(#SVGID_88_)"
   d="m 131.58,255.552 c 0,2.75 2.25,5 5,5 h 23.84 c 2.75,0 5,-2.25 5,-5 v -30.104 c 0,-2.75 -2.25,-5 -5,-5 h -23.84 c -2.75,0 -5,2.25 -5,5 z"
   id="path1416"
   style="fill:url(#SVGID_88_)" />

	</g>

	<g
   id="g1450">
		<path
   fill="#e6e7e8"
   d="m 180.76,268.74 c -2.2,0 -4,-1.8 -4,-4 v -43.48 c 0,-2.2 1.8,-4 4,-4 h 43.48 c 2.2,0 4,1.8 4,4 v 43.48 c 0,2.2 -1.8,4 -4,4 z"
   id="path1420" />

		<path
   opacity="0.1"
   d="m 180.76,268.74 c -2.2,0 -4,-1.8 -4,-4 v -43.48 c 0,-2.2 1.8,-4 4,-4 h 43.48 c 2.2,0 4,1.8 4,4 v 43.48 c 0,2.2 -1.8,4 -4,4 z"
   id="path1422" />

		<path
   opacity="0.1"
   d="m 180.76,268.74 c -2.2,0 -4,-1.8 -4,-4 v -43.48 c 0,-2.2 1.8,-4 4,-4 h 43.48 c 2.2,0 4,1.8 4,4 v 43.48 c 0,2.2 -1.8,4 -4,4 z"
   id="path1424" />

		<linearGradient
   id="SVGID_89_"
   gradientUnits="userSpaceOnUse"
   x1="177.9348"
   y1="218.4348"
   x2="227.0652"
   y2="267.56519">
			<stop
   offset="0"
   style="stop-color:#FFFFFF"
   id="stop1426" />

			<stop
   offset="0.5"
   style="stop-color:#FFFFFF;stop-opacity:0"
   id="stop1428" />

			<stop
   offset="0.5047"
   style="stop-color:#020202;stop-opacity:0"
   id="stop1430" />

			<stop
   offset="1"
   style="stop-color:#000000"
   id="stop1432" />

		</linearGradient>

		<path
   opacity="0.2"
   fill="url(#SVGID_89_)"
   d="m 180.76,268.74 c -2.2,0 -4,-1.8 -4,-4 v -43.48 c 0,-2.2 1.8,-4 4,-4 h 43.48 c 2.2,0 4,1.8 4,4 v 43.48 c 0,2.2 -1.8,4 -4,4 z"
   id="path1435"
   style="fill:url(#SVGID_89_)" />

		<path
   fill="#e6e7e8"
   d="m 185.58,255.552 c 0,2.75 2.25,5 5,5 h 23.84 c 2.75,0 5,-2.25 5,-5 v -30.104 c 0,-2.75 -2.25,-5 -5,-5 h -23.84 c -2.75,0 -5,2.25 -5,5 z"
   id="path1437" />

		<linearGradient
   id="SVGID_90_"
   gradientUnits="userSpaceOnUse"
   x1="219.5172"
   y1="257.51721"
   x2="185.4828"
   y2="223.4827">
			<stop
   offset="0"
   style="stop-color:#FFFFFF"
   id="stop1439" />

			<stop
   offset="0.5"
   style="stop-color:#FFFFFF;stop-opacity:0"
   id="stop1441" />

			<stop
   offset="0.5047"
   style="stop-color:#020202;stop-opacity:0"
   id="stop1443" />

			<stop
   offset="1"
   style="stop-color:#000000"
   id="stop1445" />

		</linearGradient>

		<path
   opacity="0.1"
   fill="url(#SVGID_90_)"
   d="m 185.58,255.552 c 0,2.75 2.25,5 5,5 h 23.84 c 2.75,0 5,-2.25 5,-5 v -30.104 c 0,-2.75 -2.25,-5 -5,-5 h -23.84 c -2.75,0 -5,2.25 -5,5 z"
   id="path1448"
   style="fill:url(#SVGID_90_)" />

	</g>

	<g
   id="g1482">
		<path
   fill="#e6e7e8"
   d="m 234.76,268.74 c -2.2,0 -4,-1.8 -4,-4 v -43.48 c 0,-2.2 1.8,-4 4,-4 h 43.48 c 2.2,0 4,1.8 4,4 v 43.48 c 0,2.2 -1.8,4 -4,4 z"
   id="path1452" />

		<path
   opacity="0.1"
   d="m 234.76,268.74 c -2.2,0 -4,-1.8 -4,-4 v -43.48 c 0,-2.2 1.8,-4 4,-4 h 43.48 c 2.2,0 4,1.8 4,4 v 43.48 c 0,2.2 -1.8,4 -4,4 z"
   id="path1454" />

		<path
   opacity="0.1"
   d="m 234.76,268.74 c -2.2,0 -4,-1.8 -4,-4 v -43.48 c 0,-2.2 1.8,-4 4,-4 h 43.48 c 2.2,0 4,1.8 4,4 v 43.48 c 0,2.2 -1.8,4 -4,4 z"
   id="path1456" />

		<linearGradient
   id="SVGID_91_"
   gradientUnits="userSpaceOnUse"
   x1="231.9348"
   y1="218.4348"
   x2="281.06519"
   y2="267.56519">
			<stop
   offset="0"
   style="stop-color:#FFFFFF"
   id="stop1458" />

			<stop
   offset="0.5"
   style="stop-color:#FFFFFF;stop-opacity:0"
   id="stop1460" />

			<stop
   offset="0.5047"
   style="stop-color:#020202;stop-opacity:0"
   id="stop1462" />

			<stop
   offset="1"
   style="stop-color:#000000"
   id="stop1464" />

		</linearGradient>

		<path
   opacity="0.2"
   fill="url(#SVGID_91_)"
   d="m 234.76,268.74 c -2.2,0 -4,-1.8 -4,-4 v -43.48 c 0,-2.2 1.8,-4 4,-4 h 43.48 c 2.2,0 4,1.8 4,4 v 43.48 c 0,2.2 -1.8,4 -4,4 z"
   id="path1467"
   style="fill:url(#SVGID_91_)" />

		<path
   fill="#e6e7e8"
   d="m 239.58,255.552 c 0,2.75 2.25,5 5,5 h 23.84 c 2.75,0 5,-2.25 5,-5 v -30.104 c 0,-2.75 -2.25,-5 -5,-5 h -23.84 c -2.75,0 -5,2.25 -5,5 z"
   id="path1469" />

		<linearGradient
   id="SVGID_92_"
   gradientUnits="userSpaceOnUse"
   x1="273.51721"
   y1="257.51721"
   x2="239.4828"
   y2="223.4827">
			<stop
   offset="0"
   style="stop-color:#FFFFFF"
   id="stop1471" />

			<stop
   offset="0.5"
   style="stop-color:#FFFFFF;stop-opacity:0"
   id="stop1473" />

			<stop
   offset="0.5047"
   style="stop-color:#020202;stop-opacity:0"
   id="stop1475" />

			<stop
   offset="1"
   style="stop-color:#000000"
   id="stop1477" />

		</linearGradient>

		<path
   opacity="0.1"
   fill="url(#SVGID_92_)"
   d="m 239.58,255.552 c 0,2.75 2.25,5 5,5 h 23.84 c 2.75,0 5,-2.25 5,-5 v -30.104 c 0,-2.75 -2.25,-5 -5,-5 h -23.84 c -2.75,0 -5,2.25 -5,5 z"
   id="path1480"
   style="fill:url(#SVGID_92_)" />

	</g>

	
	
	
	
	
	
	
	
	
	
	
	
	
	
	
	
	
	
	
	
	
	
	
	
	
	
	
	
	
	
	
	
	
	
	
	
	
	
	
	
	
</g>
      <g
         id="Legends_1_">
	
	<g
   id="g2803">
		<path
   fill="#414042"
   d="m 186.232,184.852 -2.934,-10.8 h -0.036 l -2.97,10.8 H 178.51 L 175.216,172 h 1.746 l 2.52,10.692 h 0.036 L 182.398,172 h 1.854 l 2.844,10.692 h 0.036 L 189.742,172 h 1.71 l -3.438,12.852 z"
   id="path2801" />

	</g>

	
	
	
	
	
	
	
	
	
	
	
	
	
	
	
	
	
	
	
	
	
	
	
	
	
	
	
	
	
	
	
	
	
	
	
	
	
	
	
	
	
	
	
	
	
	
	
	
	
	
	
	
	
	
	
	
	
	<g
   id="g3281">
		<path
   fill="#414042"
   d="m 141.286,226 5.022,12.852 h -1.89 l -1.404,-3.87 h -5.436 l -1.44,3.87 h -1.746 L 139.396,226 Z m 1.188,7.542 -2.142,-5.994 h -0.036 l -2.178,5.994 z"
   id="path3279" />

	</g>

	<g
   id="g3285">
		<path
   fill="#414042"
   d="m 196.339,227.755 c -0.57,-0.414 -1.299,-0.621 -2.187,-0.621 -0.36,0 -0.714,0.036 -1.062,0.108 -0.348,0.072 -0.657,0.192 -0.927,0.36 -0.27,0.168 -0.486,0.393 -0.648,0.675 -0.162,0.282 -0.243,0.633 -0.243,1.053 0,0.396 0.117,0.717 0.351,0.963 0.234,0.246 0.546,0.447 0.936,0.603 0.39,0.156 0.831,0.285 1.323,0.387 0.492,0.102 0.993,0.213 1.503,0.333 0.51,0.12 1.011,0.261 1.503,0.423 0.492,0.162 0.933,0.381 1.323,0.657 0.39,0.276 0.702,0.624 0.936,1.044 0.234,0.42 0.351,0.948 0.351,1.584 0,0.684 -0.153,1.269 -0.459,1.755 -0.306,0.486 -0.699,0.882 -1.179,1.188 -0.48,0.306 -1.017,0.528 -1.611,0.666 -0.594,0.138 -1.185,0.207 -1.773,0.207 -0.72,0 -1.401,-0.09 -2.043,-0.27 -0.642,-0.18 -1.206,-0.453 -1.692,-0.819 -0.486,-0.366 -0.871,-0.834 -1.152,-1.404 -0.282,-0.57 -0.423,-1.245 -0.423,-2.025 h 1.62 c 0,0.54 0.105,1.005 0.315,1.395 0.21,0.39 0.486,0.711 0.828,0.963 0.342,0.252 0.741,0.438 1.197,0.558 0.456,0.12 0.924,0.18 1.404,0.18 0.384,0 0.771,-0.036 1.161,-0.108 0.39,-0.072 0.741,-0.195 1.053,-0.369 0.312,-0.174 0.564,-0.411 0.756,-0.711 0.192,-0.3 0.288,-0.684 0.288,-1.152 0,-0.444 -0.117,-0.804 -0.351,-1.08 -0.234,-0.276 -0.546,-0.5 -0.936,-0.675 -0.39,-0.174 -0.831,-0.315 -1.323,-0.423 -0.492,-0.108 -0.993,-0.219 -1.503,-0.333 -0.51,-0.114 -1.011,-0.246 -1.503,-0.396 -0.492,-0.15 -0.933,-0.348 -1.323,-0.594 -0.39,-0.246 -0.702,-0.564 -0.936,-0.954 -0.234,-0.39 -0.351,-0.879 -0.351,-1.467 0,-0.648 0.132,-1.209 0.396,-1.683 0.264,-0.474 0.615,-0.864 1.053,-1.17 0.438,-0.306 0.936,-0.534 1.494,-0.684 0.558,-0.15 1.131,-0.225 1.719,-0.225 0.66,0 1.271,0.079 1.836,0.234 0.564,0.156 1.059,0.402 1.485,0.738 0.426,0.336 0.762,0.759 1.008,1.269 0.246,0.51 0.38,1.119 0.405,1.827 h -1.62 c -0.096,-0.924 -0.429,-1.593 -0.999,-2.007 z"
   id="path3283" />

	</g>

	<g
   id="g3289">
		<path
   fill="#414042"
   d="m 248.314,226 c 1.98,0 3.504,0.504 4.572,1.512 1.068,1.008 1.602,2.544 1.602,4.608 0,1.08 -0.12,2.037 -0.36,2.871 -0.24,0.834 -0.612,1.536 -1.116,2.106 -0.504,0.57 -1.146,1.005 -1.926,1.305 -0.78,0.3 -1.704,0.45 -2.772,0.45 h -4.41 V 226 Z m 0.144,11.412 c 0.192,0 0.432,-0.015 0.72,-0.045 0.288,-0.03 0.594,-0.102 0.918,-0.216 0.324,-0.114 0.645,-0.279 0.963,-0.495 0.318,-0.216 0.603,-0.51 0.855,-0.882 0.252,-0.372 0.459,-0.837 0.621,-1.395 0.162,-0.558 0.243,-1.233 0.243,-2.025 0,-0.768 -0.075,-1.455 -0.225,-2.061 -0.15,-0.606 -0.396,-1.122 -0.738,-1.548 -0.342,-0.426 -0.783,-0.75 -1.323,-0.972 -0.54,-0.222 -1.206,-0.333 -1.998,-0.333 h -2.88 v 9.972 z"
   id="path3287" />

	</g>

	
	
	
	
	
	
	
	
	
	
	
	
	
	
	
	
	
	
	
	
	
	
	
	
	
	
	
	
	
	<g
   id="g3429">
	</g>

	<g
   id="g3431">
	</g>

	<g
   id="g3433">
	</g>

	<g
   id="g3435">
	</g>

	<g
   id="g3437">
	</g>

	<g
   id="g3439">
	</g>

</g>
    </g>
  </g>
</svg>
