<svg width="318.9556" height="210.957" viewBox="0 0 42.1952 27.9079" xmlns="http://www.w3.org/2000/svg">
  <g transform="matrix(.26458 0 0 .26458 -32.4798 -43.1953)">
    <path fill="#e6e7e8" d="M180.76 268.74c-2.2 0-4-1.8-4-4v-43.48c0-2.2 1.8-4 4-4h43.48c2.2 0 4 1.8 4 4v43.48c0 2.2-1.8 4-4 4z"/>
    <path opacity=".1" d="M180.76 268.74c-2.2 0-4-1.8-4-4v-43.48c0-2.2 1.8-4 4-4h43.48c2.2 0 4 1.8 4 4v43.48c0 2.2-1.8 4-4 4z"/>
    <path opacity=".1" d="M180.76 268.74c-2.2 0-4-1.8-4-4v-43.48c0-2.2 1.8-4 4-4h43.48c2.2 0 4 1.8 4 4v43.48c0 2.2-1.8 4-4 4z"/>
    <linearGradient id="a" gradientUnits="userSpaceOnUse" x1="177.9348" y1="218.4348" x2="227.0652" y2="267.5652">
      <stop offset="0" style="stop-color:#fff"/>
      <stop offset=".5" style="stop-color:#fff;stop-opacity:0"/>
      <stop offset=".5047" style="stop-color:#020202;stop-opacity:0"/>
      <stop offset="1" style="stop-color:#000"/>
    </linearGradient>
    <path opacity=".2" fill="url(#a)" d="M180.76 268.74c-2.2 0-4-1.8-4-4v-43.48c0-2.2 1.8-4 4-4h43.48c2.2 0 4 1.8 4 4v43.48c0 2.2-1.8 4-4 4z" style="fill:url(#a)"/>
    <path fill="#e6e7e8" d="M185.58 255.552c0 2.75 2.25 5 5 5h23.84c2.75 0 5-2.25 5-5v-30.104c0-2.75-2.25-5-5-5h-23.84c-2.75 0-5 2.25-5 5z"/>
    <linearGradient id="b" gradientUnits="userSpaceOnUse" x1="219.5172" y1="257.5172" x2="185.4828" y2="223.4827">
      <stop offset="0" style="stop-color:#fff"/>
      <stop offset=".5" style="stop-color:#fff;stop-opacity:0"/>
      <stop offset=".5047" style="stop-color:#020202;stop-opacity:0"/>
      <stop offset="1" style="stop-color:#000"/>
    </linearGradient>
    <path opacity=".1" fill="url(#b)" d="M185.58 255.552c0 2.75 2.25 5 5 5h23.84c2.75 0 5-2.25 5-5v-30.104c0-2.75-2.25-5-5-5h-23.84c-2.75 0-5 2.25-5 5z" style="fill:url(#b)"/>
  </g>
  <path fill="#414042" d="M19.4681 17.0648c-.1508-.1095-.3437-.1643-.5787-.1643-.0952 0-.1889.0095-.281.0286-.092.019-.1738.0508-.2452.0952a.5.5 0 0 0-.1715.1786c-.0428.0746-.0643.1675-.0643.2786 0 .1048.031.1897.093.2548.062.0651.1444.1183.2476.1596.1031.0412.2198.0754.35.1024.1302.027.2627.0563.3977.088.135.0318.2675.0691.3976.112.1302.0428.247.1008.35.1738a.8273.8273 0 0 1 .2477.2762c.062.1112.093.251.093.4191 0 .181-.0406.3358-.1215.4644a.9995.9995 0 0 1-.312.3143c-.127.081-.269.1397-.4262.1762a2.0673 2.0673 0 0 1-.469.0548c-.1906 0-.3708-.0238-.5407-.0715-.1698-.0476-.319-.1198-.4477-.2166-.1285-.0969-.2304-.2207-.3048-.3715-.0746-.1508-.1119-.3294-.1119-.5358h.4286c0 .143.0278.266.0834.369a.7578.7578 0 0 0 .219.255c.0906.0666.1961.1158.3168.1475.1206.0318.2444.0476.3714.0476.1016 0 .204-.0095.3072-.0285.1032-.019.196-.0516.2786-.0977a.5546.5546 0 0 0 .2-.188c.051-.0795.0763-.181.0763-.3049 0-.1175-.031-.2127-.093-.2857-.0618-.073-.1444-.1323-.2476-.1786-.103-.046-.2198-.0834-.35-.112a105.2922 105.2922 0 0 1-.3977-.088 5.4082 5.4082 0 0 1-.3976-.1048c-.1302-.0397-.2469-.092-.35-.1572a.7529.7529 0 0 1-.2477-.2524c-.062-.1032-.0929-.2326-.0929-.388 0-.1716.035-.32.1048-.4454a.916.916 0 0 1 .2786-.3096c.116-.081.2476-.1413.3953-.181a1.7442 1.7442 0 0 1 .4548-.0594c.1746 0 .3363.0208.4858.062.1492.0411.2802.1062.393.1951.1126.089.2015.2008.2666.3357.065.135.1005.2961.1071.4834h-.4286c-.0254-.2445-.1135-.4215-.2643-.531z"/>
</svg>
