<svg width="318.9556" height="105.48" viewBox="0 0 42.1958 27.9082" xmlns="http://www.w3.org/2000/svg">
  <g transform="matrix(.26458 0 0 .26458 -32.4802 -43.1959)">
    <path fill="#e6e7e8" d="M167.26 214.74c-2.2 0-4-1.8-4-4v-43.48c0-2.2 1.8-4 4-4h43.48c2.2 0 4 1.8 4 4v43.48c0 2.2-1.8 4-4 4z"/>
    <path opacity=".1" d="M167.26 214.74c-2.2 0-4-1.8-4-4v-43.48c0-2.2 1.8-4 4-4h43.48c2.2 0 4 1.8 4 4v43.48c0 2.2-1.8 4-4 4z"/>
    <path opacity=".1" d="M167.26 214.74c-2.2 0-4-1.8-4-4v-43.48c0-2.2 1.8-4 4-4h43.48c2.2 0 4 1.8 4 4v43.48c0 2.2-1.8 4-4 4z"/>
    <linearGradient id="a" gradientUnits="userSpaceOnUse" x1="164.4348" y1="164.4348" x2="213.5652" y2="213.5652">
      <stop offset="0" style="stop-color:#fff"/>
      <stop offset=".5" style="stop-color:#fff;stop-opacity:0"/>
      <stop offset=".5047" style="stop-color:#020202;stop-opacity:0"/>
      <stop offset="1" style="stop-color:#000"/>
    </linearGradient>
    <path opacity=".2" fill="url(#a)" d="M167.26 214.74c-2.2 0-4-1.8-4-4v-43.48c0-2.2 1.8-4 4-4h43.48c2.2 0 4 1.8 4 4v43.48c0 2.2-1.8 4-4 4z" style="fill:url(#a)"/>
    <path fill="#e6e7e8" d="M172.08 201.552c0 2.75 2.25 5 5 5h23.84c2.75 0 5-2.25 5-5v-30.104c0-2.75-2.25-5-5-5h-23.84c-2.75 0-5 2.25-5 5z"/>
    <linearGradient id="b" gradientUnits="userSpaceOnUse" x1="206.0172" y1="203.5173" x2="171.9828" y2="169.4827">
      <stop offset="0" style="stop-color:#fff"/>
      <stop offset=".5" style="stop-color:#fff;stop-opacity:0"/>
      <stop offset=".5047" style="stop-color:#020202;stop-opacity:0"/>
      <stop offset="1" style="stop-color:#000"/>
    </linearGradient>
    <path opacity=".1" fill="url(#b)" d="M172.08 201.552c0 2.75 2.25 5 5 5h23.84c2.75 0 5-2.25 5-5v-30.104c0-2.75-2.25-5-5-5h-23.84c-2.75 0-5 2.25-5 5z" style="fill:url(#b)"/>
  </g>
  <g transform="matrix(.26458 0 0 .26458 -32.4802 -43.1959)">
    <path fill="#e6e7e8" d="M126.76 268.74c-2.2 0-4-1.8-4-4v-43.48c0-2.2 1.8-4 4-4h43.48c2.2 0 4 1.8 4 4v43.48c0 2.2-1.8 4-4 4z"/>
    <path opacity=".1" d="M126.76 268.74c-2.2 0-4-1.8-4-4v-43.48c0-2.2 1.8-4 4-4h43.48c2.2 0 4 1.8 4 4v43.48c0 2.2-1.8 4-4 4z"/>
    <path opacity=".1" d="M126.76 268.74c-2.2 0-4-1.8-4-4v-43.48c0-2.2 1.8-4 4-4h43.48c2.2 0 4 1.8 4 4v43.48c0 2.2-1.8 4-4 4z"/>
    <linearGradient id="c" gradientUnits="userSpaceOnUse" x1="123.9348" y1="218.4348" x2="173.0652" y2="267.5652">
      <stop offset="0" style="stop-color:#fff"/>
      <stop offset=".5" style="stop-color:#fff;stop-opacity:0"/>
      <stop offset=".5047" style="stop-color:#020202;stop-opacity:0"/>
      <stop offset="1" style="stop-color:#000"/>
    </linearGradient>
    <path opacity=".2" fill="url(#c)" d="M126.76 268.74c-2.2 0-4-1.8-4-4v-43.48c0-2.2 1.8-4 4-4h43.48c2.2 0 4 1.8 4 4v43.48c0 2.2-1.8 4-4 4z" style="fill:url(#c)"/>
    <path fill="#e6e7e8" d="M131.58 255.552c0 2.75 2.25 5 5 5h23.84c2.75 0 5-2.25 5-5v-30.104c0-2.75-2.25-5-5-5h-23.84c-2.75 0-5 2.25-5 5z"/>
    <linearGradient id="d" gradientUnits="userSpaceOnUse" x1="165.5172" y1="257.5172" x2="131.4828" y2="223.4827">
      <stop offset="0" style="stop-color:#fff"/>
      <stop offset=".5" style="stop-color:#fff;stop-opacity:0"/>
      <stop offset=".5047" style="stop-color:#020202;stop-opacity:0"/>
      <stop offset="1" style="stop-color:#000"/>
    </linearGradient>
    <path opacity=".1" fill="url(#d)" d="M131.58 255.552c0 2.75 2.25 5 5 5h23.84c2.75 0 5-2.25 5-5v-30.104c0-2.75-2.25-5-5-5h-23.84c-2.75 0-5 2.25-5 5z" style="fill:url(#d)"/>
  </g>
  <g transform="matrix(.26458 0 0 .26458 -32.4802 -43.1959)">
    <path fill="#e6e7e8" d="M180.76 268.74c-2.2 0-4-1.8-4-4v-43.48c0-2.2 1.8-4 4-4h43.48c2.2 0 4 1.8 4 4v43.48c0 2.2-1.8 4-4 4z"/>
    <path opacity=".1" d="M180.76 268.74c-2.2 0-4-1.8-4-4v-43.48c0-2.2 1.8-4 4-4h43.48c2.2 0 4 1.8 4 4v43.48c0 2.2-1.8 4-4 4z"/>
    <path opacity=".1" d="M180.76 268.74c-2.2 0-4-1.8-4-4v-43.48c0-2.2 1.8-4 4-4h43.48c2.2 0 4 1.8 4 4v43.48c0 2.2-1.8 4-4 4z"/>
    <linearGradient id="e" gradientUnits="userSpaceOnUse" x1="177.9348" y1="218.4348" x2="227.0652" y2="267.5652">
      <stop offset="0" style="stop-color:#fff"/>
      <stop offset=".5" style="stop-color:#fff;stop-opacity:0"/>
      <stop offset=".5047" style="stop-color:#020202;stop-opacity:0"/>
      <stop offset="1" style="stop-color:#000"/>
    </linearGradient>
    <path opacity=".2" fill="url(#e)" d="M180.76 268.74c-2.2 0-4-1.8-4-4v-43.48c0-2.2 1.8-4 4-4h43.48c2.2 0 4 1.8 4 4v43.48c0 2.2-1.8 4-4 4z" style="fill:url(#e)"/>
    <path fill="#e6e7e8" d="M185.58 255.552c0 2.75 2.25 5 5 5h23.84c2.75 0 5-2.25 5-5v-30.104c0-2.75-2.25-5-5-5h-23.84c-2.75 0-5 2.25-5 5z"/>
    <linearGradient id="f" gradientUnits="userSpaceOnUse" x1="219.5172" y1="257.5172" x2="185.4828" y2="223.4827">
      <stop offset="0" style="stop-color:#fff"/>
      <stop offset=".5" style="stop-color:#fff;stop-opacity:0"/>
      <stop offset=".5047" style="stop-color:#020202;stop-opacity:0"/>
      <stop offset="1" style="stop-color:#000"/>
    </linearGradient>
    <path opacity=".1" fill="url(#f)" d="M185.58 255.552c0 2.75 2.25 5 5 5h23.84c2.75 0 5-2.25 5-5v-30.104c0-2.75-2.25-5-5-5h-23.84c-2.75 0-5 2.25-5 5z" style="fill:url(#f)"/>
  </g>
  <g transform="matrix(.26458 0 0 .26458 -32.4802 -43.1959)">
    <path fill="#e6e7e8" d="M234.76 268.74c-2.2 0-4-1.8-4-4v-43.48c0-2.2 1.8-4 4-4h43.48c2.2 0 4 1.8 4 4v43.48c0 2.2-1.8 4-4 4z"/>
    <path opacity=".1" d="M234.76 268.74c-2.2 0-4-1.8-4-4v-43.48c0-2.2 1.8-4 4-4h43.48c2.2 0 4 1.8 4 4v43.48c0 2.2-1.8 4-4 4z"/>
    <path opacity=".1" d="M234.76 268.74c-2.2 0-4-1.8-4-4v-43.48c0-2.2 1.8-4 4-4h43.48c2.2 0 4 1.8 4 4v43.48c0 2.2-1.8 4-4 4z"/>
    <linearGradient id="g" gradientUnits="userSpaceOnUse" x1="231.9348" y1="218.4348" x2="281.0652" y2="267.5652">
      <stop offset="0" style="stop-color:#fff"/>
      <stop offset=".5" style="stop-color:#fff;stop-opacity:0"/>
      <stop offset=".5047" style="stop-color:#020202;stop-opacity:0"/>
      <stop offset="1" style="stop-color:#000"/>
    </linearGradient>
    <path opacity=".2" fill="url(#g)" d="M234.76 268.74c-2.2 0-4-1.8-4-4v-43.48c0-2.2 1.8-4 4-4h43.48c2.2 0 4 1.8 4 4v43.48c0 2.2-1.8 4-4 4z" style="fill:url(#g)"/>
    <path fill="#e6e7e8" d="M239.58 255.552c0 2.75 2.25 5 5 5h23.84c2.75 0 5-2.25 5-5v-30.104c0-2.75-2.25-5-5-5h-23.84c-2.75 0-5 2.25-5 5z"/>
    <linearGradient id="h" gradientUnits="userSpaceOnUse" x1="273.5172" y1="257.5172" x2="239.4828" y2="223.4827">
      <stop offset="0" style="stop-color:#fff"/>
      <stop offset=".5" style="stop-color:#fff;stop-opacity:0"/>
      <stop offset=".5047" style="stop-color:#020202;stop-opacity:0"/>
      <stop offset="1" style="stop-color:#000"/>
    </linearGradient>
    <path opacity=".1" fill="url(#h)" d="M239.58 255.552c0 2.75 2.25 5 5 5h23.84c2.75 0 5-2.25 5-5v-30.104c0-2.75-2.25-5-5-5h-23.84c-2.75 0-5 2.25-5 5z" style="fill:url(#h)"/>
  </g>
  <g>
    <path fill="#414042" d="m16.7936 5.7129-.7763-2.8575h-.0095l-.7858 2.8575h-.4715l-.8715-3.4004h.462l.6667 2.8289h.0095l.762-2.829h.4906l.7524 2.829h.0096l.6905-2.829h.4525L17.265 5.713zM4.9017 16.6l1.3287 3.4004h-.5l-.3715-1.024H3.9206l-.381 1.024h-.462L4.4016 16.6Zm.3143 1.9954-.5667-1.5859h-.0096l-.5762 1.586zM19.4678 17.0643c-.1508-.1095-.3437-.1643-.5787-.1643-.0952 0-.1889.0095-.281.0286-.092.019-.1738.0508-.2452.0952a.5.5 0 0 0-.1715.1786c-.0428.0746-.0643.1675-.0643.2786 0 .1048.031.1897.0929.2548.062.0651.1445.1183.2477.1596.1031.0412.2198.0754.35.1024.1302.027.2627.0563.3977.088.1349.0318.2675.0691.3976.112.1302.0428.2469.1008.35.1738a.8273.8273 0 0 1 .2477.2762c.062.1112.0929.2509.0929.4191 0 .181-.0405.3358-.1214.4644a.9995.9995 0 0 1-.312.3143c-.127.081-.269.1397-.4262.1762a2.0673 2.0673 0 0 1-.4691.0548c-.1905 0-.3707-.0238-.5406-.0715-.1698-.0476-.319-.1198-.4477-.2166-.1285-.0969-.2304-.2207-.3048-.3715-.0746-.1508-.1119-.3294-.1119-.5358h.4286c0 .1429.0278.2659.0834.369a.7578.7578 0 0 0 .219.2549c.0906.0667.1961.1159.3168.1476.1206.0318.2444.0476.3714.0476.1016 0 .204-.0095.3072-.0285.1032-.019.196-.0516.2786-.0977a.5546.5546 0 0 0 .2-.188c.0509-.0795.0763-.181.0763-.3049 0-.1175-.031-.2127-.093-.2857-.0618-.073-.1444-.1323-.2476-.1786-.1031-.046-.2198-.0834-.35-.112-.1302-.0285-.2627-.0579-.3977-.088a5.4098 5.4098 0 0 1-.3976-.1048c-.1302-.0397-.2469-.0921-.35-.1572a.7529.7529 0 0 1-.2477-.2524c-.062-.1032-.0929-.2326-.0929-.3881 0-.1715.035-.32.1048-.4453a.916.916 0 0 1 .2786-.3096c.1159-.081.2476-.1413.3953-.181a1.7443 1.7443 0 0 1 .4548-.0595c.1746 0 .3363.0209.4858.062.1492.0412.2802.1063.3929.1952.1127.0889.2016.2008.2667.3357.065.135.1005.2961.1071.4834h-.4286c-.0254-.2445-.1135-.4215-.2643-.531zM33.2195 16.6c.5239 0 .927.1333 1.2097.4.2825.2667.4238.6731.4238 1.2192 0 .2858-.0317.539-.0952.7596-.0635.2207-.162.4064-.2953.5572-.1333.1509-.3032.266-.5096.3453-.2064.0794-.4508.119-.7334.119h-1.1668V16.6Zm.0381 3.0194c.0508 0 .1143-.004.1905-.012.0762-.0079.1572-.027.2429-.057a1.11 1.11 0 0 0 .2548-.131c.0841-.0572.1595-.135.2262-.2334.0667-.0984.1214-.2215.1643-.3691.0429-.1476.0643-.3262.0643-.5358 0-.2032-.0198-.385-.0595-.5453s-.1048-.2968-.1953-.4096c-.0905-.1127-.2072-.1984-.35-.2571-.143-.0588-.3191-.0881-.5287-.0881h-.762v2.6384z"/>
  </g>
</svg>
